<mxfile host="app.diagrams.net" modified="2023-10-25T19:32:34.441Z" agent="Mozilla/5.0 (Windows NT 10.0; Win64; x64) AppleWebKit/537.36 (KHTML, like Gecko) Chrome/118.0.0.0 Safari/537.36 Edg/118.0.2088.61" etag="oP9xTaf1rVk9uXfWZMiv" version="22.0.8" type="device">
  <diagram name="Page-1" id="V-wOrhV3eNb8qx3c311z">
    <mxGraphModel dx="622" dy="784" grid="1" gridSize="10" guides="1" tooltips="1" connect="1" arrows="1" fold="1" page="1" pageScale="1" pageWidth="850" pageHeight="1100" math="0" shadow="0">
      <root>
        <mxCell id="0" />
        <mxCell id="1" parent="0" />
        <mxCell id="JZUDk3lIRAv1eScNHPHP-2" value="" style="swimlane;startSize=0;" vertex="1" parent="1">
          <mxGeometry x="360" y="110" width="200" height="300" as="geometry" />
        </mxCell>
        <mxCell id="JZUDk3lIRAv1eScNHPHP-7" value="" style="shape=image;verticalLabelPosition=bottom;labelBackgroundColor=default;verticalAlign=top;aspect=fixed;imageAspect=0;image=data:image/png,iVBORw0KGgoAAAANSUhEUgAAAacAAAB/CAYAAABL9Q1uAAAAAXNSR0IArs4c6QAAAARnQU1BAACxjwv8YQUAAAAJcEhZcwAADsMAAA7DAcdvqGQAAE6xSURBVHhe7d0L2H1FVT/wY5bdr5YUqUlFkJamkpaaGSaICmiYYYqiWJGaVpIlWqZPUmKPBSEXQUhUREBLTZOkAlNCUSNRK0SxMi3MMrva7fz3Z+L7+w/DPuc97/t7L+f8fvN9nnn2OXvPnsuambVmrVkz+1bTAZOOjo6Ojo4lwufcdO3o6Ojo6Fga7NGak6qlere61a3KtUaefc7n7L6MXiuvFovE6ejo6NhbsVcIp1mCwLP//d//LeG///u/y/V//ud/dgkZv92/9a1vXdJIIMyEz/3cz5183ud9XnkOeW8RwbNInI6Ojo69FXvFmpMqCoRNBBCh4/of//Efk3/913+d/Pu///vks5/97OS//uu/yjP4z//8z/LsC77gC24mkITb3OY25f6XfdmXTb7wC79wl5DyzDXxZwmhLpw6Ojo6ZmOvEE6EzD//8z9Pbrzxxsnf/u3fTv7mb/5m8pd/+Zfl6t6nPvWpyWc+85kilCLIIAKtFjKuQgTVV3/1V5dwu9vdbnLHO96xhK//+q+f7LPPPpOv/MqvnHzxF39xiVdDul04dXR0dMzGygknxQ1zn8XgCaJ/+Id/KIKnFkT/9E//VMI//uM/Tv7+7/++XMWlHdGaaFWLIvkTPl/yJV9SNKiv+qqvmtz2trct1/z/2q/92smd7nSnIrAIMPcIK8Kto6Ojo2McSy+c2uIRIO5lHchv2g2z3L/8y78U4fOxj31scsMNN0yuv/76yQc+8IHJtddeO/mrv/qrm1LYPhBchNLd7373yV3ucpfJN3/zNxfNilb1FV/xFeX553/+5+8SsupSC9z6d0dHR8fehJUSThFMEOHEFEf7+fM///PJu971rsnv//7vl980J+tHCVlH2k4oX9anrEn5TaP6vu/7vskDHvCAyUEHHTTZb7/9ynMgZCFmxC6cOjo69lashFlPEQmmMGv/OTJ89KMfnfzpn/7p5G1ve9vk4x//+OQTn/jE5K//+q+L9mSdCdZjqttstAJGuQnVO9zhDkWj+oZv+IbJAQccMLnHPe4xufOd71zuxZmiC6aOjo69GSslnFwJHoLoL/7iLybvf//7J+95z3smf/iHfzj5t3/7t/IcMHjIezuFVgNqy8Pb7/a3v/3k3ve+9+Se97xnEVDf+I3fWNamaFgdHR0deyuWTjjVxWm1Do4LhNFv/dZvTS666KKiKY2BcGoFwVoY01Tae2OkWot80oiwrKFsdfm+9Eu/tGhSj3/84yeHHHLI5Nu+7dtGy9RikTgdHR0dq4alFk7gP1dvjg0XX3zx5L3vfW9xByeYeNiNAcNOAEJgVjU5JfCg+/Iv//Li+k1jsQYk2L/0RV/0RbscLqxtcbqonS/+7u/+rmhts6AMszS5lClu6ZwjmPa+5Vu+pWhSD3nIQ4oThbJ5L/XJe/53r7+Ojo49EUtp1gsTt67EuYG2dNVVV00uu+yy4omHKddMfgzi1MycQwLh8zVf8zVlXxKBRPDwmuP+TQAIhFWcFwgLAiplIYSE/LY3ipAkpPznhME9nTAltDhhtOUYI3fMf3lGQPLqu9/97jf57u/+7uLtx9xHYIqXunuvC6eOjo49EUspnHjXYfz2J9GW3vSmNxV3cAgjx6DnFV08QoZwIWQIoQMPPLCYy6zt0E4IKoIgcSJEFoH8CZ9oUPZNWQfjvk6g0vA8o90JBFq88VrQrOq8pR0BdN/73ndy+OGHl/B1X/d1RXhGIHXh1NHRsadi24XTWHatUMDgL7/88snLXvay4pGH+TOlhRFLY61iEzrWcO5///tP7nrXuxbz2L777lvWdggjzgi0owiG9QimQBkIEUKHoIoQihZlr9UHP/jBIqi4udsUXEOe6uSatKCumw2+HCS+6Zu+qaxHcUFXjxopu/c2Uo+Ojo6OZcNSCKeA+zcT3h/8wR+U/UrvfOc7i1AKakcHTN3vOj1mOxoRQcQMZg+R/5g50120jq1m4MpE+yOgrI9xb6dVfehDHyqC98/+7M/KM8KsLk/q0taLECWkvvM7v7PskXrwgx9c6ugeWtT1iQDv6OjoWGUshXCieVir+fCHPzy55JJLJm9961sn73vf+8qzmvHWTDzCicCyfhTBZJ0GE/ebxtGazLYTqav8OVOo37vf/e7JH/3RH02uu+66sn5mzUq8lNGVwIkWFbgvHpPkIx/5yMlhhx1W6midDJKG+nZ0dHSsOnZMOIX5YqYYt71KZ555ZjGBcSjIiQ6EULQBQgwDDgOXlnWjQw89tGgThJJ9Q9aaxIGdEk7KljpGkCo/jYpLvM3Db3nLWyZnnXVWWZsKlLd+FyJ0vO/KNPmoRz1q8oM/+IOTgw8+uMSp6dnR0dGx6thRzSmM+sILL5y8+c1vLusy1peY98SrTVR+Y85A+FiDsXn1u77ru4qTA+82pjuODRCB5LqTwsk1ZUg51OPTn/50Mfdx9BDU3UkXidM2S50GWqivuhPKtCgOH+7n/Y6Ojo5Vxq1/ccBNv7ccGG6YNc3ISeFMeITTH//xH5d1GKiZcP2Oq0NTaUg2qj7sYQ+bPPCBD5zsv//+hTlbmxGnTiO/dxqtoLX+5cRyZjpeeNaPgOaDNhwroK2HoI5o9clPfrKYQ+MGzwkkcUM3yL2Ojo6OVcG2ak61JsF0x+nhhBNOKG7Y2VCLOdfMNO9g6DQmQulpT3taOTQ16y0t6irtFGNebxlokIT1+eefP/m93/u9YvajWXo3go3G1TYXoWbD7pOf/OTJEUccsUtzRDfxCexaMHZ0dHSsArZVc8JoMU2muwsuuGByzjnnFHdrTLhlumHo7mPAvNMw4Mc85jGTb//2by/rLrOYrncTdgqLlkH9BPG4uDNXcoG3QdhnPuKt6PksGuW7VISRvVyhSwT9WmXo6OjoWDZsq3BirnJyAo885+NxG8/6Uo0wVILMh/psRP2BH/iBsr7CDBbz1aoz3dRbPdXFCRC8Dp1gwdGDgEIzG5LHBHiEEBOgOLQv5kIaJeFd02fVadXR0bF3YUuFU8tMmfKuvvrqyUknnVRcxQmmMNg6LkbKHGUdyZrS0UcfXTQmDNt9z1eV2bY0gdyLp10Ogf3Wb/3W8szaEm0zZr3UPzRAQ5qTeDb6etd6Vr4T1WJVadfR0bH3YNs0J9qBNaYzzjijbEK1xoRJRmsQwqRdaQ+EkkBzcqIDJhzGusoMVp2hrksb1JWQspmYZx4THwFES6rpgFb+u6KpdSv/aZdMoYkj5B2of3d0dHQsG7ZFOJnxO+3hjW98YxFQTFAYdJgmZgp+g0+aH3nkkZOjjjqqmPFqN+mEVUbq6VoL57pururMtGeTMY8+gokGRUglXtICv5n/PPcuDYqZj0YmnzovyLWjo6Nj2bDlwsmCvo8DvuY1rymnin/kIx/ZpTkEYZJhqD4VQWPihRYX6wiwPQG1cLKmpP4RvkGEt/s0KKdBAAHFu5EQiplP8G7S8Vw82qZPcKBh0k68/O7o6OhYRmyqcArTDTA/R/TYy8RF2jeZ2jgQBktLeMITnlBOP7CXiet4zaRXjZmO1VUd3E9dmOJoNrULvToTPPnvaq0t5wTawMt8R0MKkhc6+c3x5E/+5E8m3/Ed31HeqYV8nW5HR0fHMmJThVM0IkxPwESdenDKKacUl/HsZcIgwyTDVK2P8MhjyuMIwK0axEn8PQFopE60G+tIhIi6Mr8FoV9oVP8X7w53uEN5D31jwgt9IswFAs5/J2fYqJz0gvp3R0dHxzJh0zh+hEyAMTqW54orrigzeOfHhcEGYY7Ow3Ngq7Pi7GHiTh2076wa0CVCG9CFNukMQXRRv3jp1YggSQBXgsYGZBtuHV+EVnnf87odmP6cvOFDjb6NJe+Ojo6OVcCWcH1M0DeNnHTgQFfAbGO6yszeb6Y7X3v1MT2fg7BHJ88g11VDhBJaCH5bX6LtOJXc+pvPaNAYa2FcC5cxoAdNi5b58Ic/vJj66mObasjX+X2EEw1Wm3R0dHSsArZEOPEow4B9HgJzJJTCqF2jCVljoilhstzF8xyjrQXUKkLZI5AjPBxJdNppp01OPfXU8owJM+bLCBfvjQVAm9DHMUXf8z3fMzn++OOLN597no2BluZEDmZEjhJJr6Ojo2NZsanCCdOjHWCCmCEHCLP1MEMMtA4OcWXKu8c97lH2NeU+7CkMlMDgsUhTcsAt5xB19XVe60CEV+q8FkITV8KNe/l97nOfIuRoUGPpiGuy4NPxPuJostDR0dGx7Ng04RSG6Zw3a02vf/3rdzHClmli2PYu0Zp8OM8mU+8nrCrUM5qN4AQMX8K1x+sVr3hFoYlTHJgwrRdxblhPfUPjvOMECM4RPt9O80TTNr3EJ6DsMzNhiPZUl7ejYxGkb8/6PRY6thYtnWvat89WCZtu1nMs0eWXX14W4wFhmOtaAllfeuxjH1uYK9MWJpoQxrlqwOgT1MFXbgmkY445ZvKGN7yh3FPv7/3e7y37uTYK6QTMezYtP+hBDypmPppY6AgxlXJIufLKK4uplWYLdXlXtQN3bD30jfSP9BVXVpK6D+lrdcg7vW/tPtIGYyH0b+9B/WzVsGmu5AiAAWLGDnX1vaExgmCmcRvHUHP6A2C6dVglpK7KzYxHQ7nooosmr3vd68pxTbQoXnb2cTn1gkBOR1qkvonTxvMf/ZLeNddcU/LCHBI375kw2JjL6cT+p/pZQkfHPOgjTPW8P22s5/DkQ5nxCn3HO94xefvb3162ONDsje+817E5iOCpx62x734m91DzloRVwqYJJ3uYeJ/99m//dvEMmwWd1WfVfb3VF2yDVSPcGNSBUH7/+98/edOb3lRo4eR1cEaeU9WtsWVPk84Du9Nx0imdpcfzEdOwhwpzoEVBOqygnTii0LI4aoiTvDdaho69B/qIvnXdddeVczI5PrGWmBQJtke4mgA5nYRlJO91bA4idExAHQX30Y9+dPLhD3+4nL5j/2M29uMH7cR/lbBpZj2fazCLQiREqJleDZ02Z+ZBZgGrjtTVwHzZy142+fVf//UyaMEzHokPfehDd2mKEUxB+38RRDABQcNUeOyxx07222+/cg9qweS3o6RodTpy7azS0bEo9DnWAaeUfOhDH5p88IMf3BVMUE2QbJmgwe+tMDY3MqZnIWMYjGMBz2WVOffccyfPec5zJs94xjMmz33uc4tGa3zHtLqZ5dhOrFs4pbJ1IKmtr7zlLW8pndO9EAZBI6h4lDk3z9VxOlFDVxF1HZnL1J+LuOBwWzRRZ8LIUUz3v//9JwcccEB51/10MMF/Yb3wDtomDYJfXgIBpXxtQHNlvfjii4ug6uhYC+mfG+mjezKM/YSxcSb4XcfbHXhfmsDRivfts5/97LKMYiJMMaC5vvKVr5ycfPLJZeuKpZZV5bG7VeoQmymLq/L1119fZkxQN0R++8rrwQcfXL7LROWEVez0qY9ym73wTnz1q19dPqLI6cCM0mIx+K4SrYmmWG8wbsN6MZYGG//tbne7yb3vfe9iMpVXG4DZzwZp5oB8abejo2PjaMdiUI+7+v5GkHSAU5M1PvyGUDKmmfh4A+PF7lsL9H233c13p7Bh4YRQkeJm4D4iOHYCQRrHQjzhdK973av8XiWkDgka25XZQsfgiffCF76wuIxzpfccbTgp0JYe/ehHlz1J7tVpJOwuUh4BnOZu7xhhNZY+t3Ibc5lkTCw2qxwdHXsrjD0TUts0rMnRWOoN75s9vkwsmefDg1vgxYTTKltHNiycEDvqIgZtc2kOIWVqSvDfeoiz88zoaU3enUXUZUMYfpBOhsETyITSOeecU4SSuLUK/f3f//2TH/qhHyqCaTs0RfkzIzirkHs58ynnhxrKlzIywWq7jo6O9SNjmVmfIwJhwaRvzfm8884rmo2xtpnjPfyIxYam1PKnAB/w3PLCqmLDwgkQnTpp8U2gSSBWGwgpggnDNJsPg9wqJr0ZiO0YUo+UF0N/85vfPDn99NOLZyIzng6aeOpIS7SfybmB/hPQ21Fn+dNMeQf6xL01L3nWNE8ZOG8YULVdvNbuOjo6/g/1mDBGCAeHWnNGsL7zK7/yK8UJ6uyzzy5bSExcCayMtc0YTxnH4DxOJvykXz8Dk2Gekrx4VxW7JZwQnO1ToEmEyWm8BERy9tvd7na3XRtPETJhGZGOmA6V39R0p17YZMwjRickmILE4+zBVZtAvtOd7lSeRYvcLviGE+HkFHN5p/PWNKc5CUwQY0Kp/t3RsbeiHQfGCivR7/zO75QJ6otf/OLJS17ykvLNOqewMO9zOmq1ls0YT+GbTtVxwg7e2lplLCew1jDtE2CrOo53WzjRImoG3YKERyQz+XpDXh2WETFLAqauQ/KQefnLX15mR8yY7tXwX3B23g//8A9PDjzwwJue/H9sR521C1pzwtA5bXxuywpMkdqOXXpvdvvt6FgUxpaxxJHIxmNecibmY+NrM1ELGL/xFs5l1pfxWPeiHDDrmxw/4AEPKA5Zcc5aNeyWcFJpG06Z9GYBc3Tumxk8Jl8TeZmhnCmrxUUqPLWd2yZHglnM3MkLNtrqPD6vvlP1NZvSaXXeaG+QeqUtePfwNsyeJ8FA26lyd3QsE4yDWZPJmOoXFUybNSmVn/GNx9jb9Au/8Atln9MJJ5xQfj/rWc8q523iveJt9WR4q7Ah4aSypDSGhlHP8wihRfDQY/tcBYanjCknAWRNzeZibuIEE0Yed/kaOqm6OiXcZtvaXX47kY6oPJwh7n73uxdzqjrp1BE8iccuzquHaQ9WtSN3bAzp7+nz24VF8vUs/TXXnUI7Lvw3vmNdWQtj42qt+o8h70jPhJ/2ZDLs/E5nlbrauuKotPrM0lXEuksdInMA4IbMLOQ6BnHZRNlG68+QLxvS4AkZCOzK1HaLncx51tbUO0y+ho7K4YNXoo5hViWN7QR664hpI2XwyXtqPqReQkwA2s9ZaDx7gjqNVUbquplhHsbib0VYD8beb0PtELNW2AwkrTbfGv5nnImXvtuifn8rwjykXBuBtMfoPgvGo+dj+dGQeOZa18/HS8MLFh3LbTl2N2wGNixSzbSZ8+Zt4qQ9WJi3+RSjXEYgpE7CRJnOYjZkLY3Tw8/93M8Vj7bWjKfB42gAZilmLMxo6RiLdIrNgrzaoAwWRnXWIB020H60pxw3472g/r3K0KZhdH7XNFor5H1hoxhLd1aokTKPMaT1YK36px/PC1uNNg//677q2sZJm6ReNVLuRUNLo/yH/E9cZcHP/F4Es+JJJ2mvheQfmmizMZrU8Mx7qcc8JF7qD95fT9hs3GooyIZGnU1gnAJOOeWUwrzH4JtFNqA+7WlPK//rSi8L0iCgXLQlJ12om1MUeOalvDWp3NNBCDQCgMv4z/zMz5STGdq9RbATdVZemt6ZZ545+dVf/dXiQaS8ylJ3WJOIs846qxyxxFTgmTg7UebNhPqnzVzV3eI1TZ8ziN8mWQS0Z1z+rRNyJnE1qWKq5VBSM/BZqPsHoL205UX4y4+GKk+eXOjMs5PJW17yRX//5ZnyC8l7rTKMwfvyUkemeGUQlEd/5xYdGqhnyoQGftdlkrd1Sh5pP/mTPzm6T068Jz3pSZNHPepRpU+l/EHKI2CwyoA+dV3dT5zcM8mKVuBekN+5r45j7czbVv1YcdBbWuqWtRl5et8V8tukDY2k4x46OXnhZ3/2Z8vBztJtgR/48gKTW+pQw3YP+Sff0CfXFu378lQmtGufAeGpjibNEaSz0oaazvoteqGdoK/Ix730ETxOf03fxUPcy1LGvLwWxYaFE4HkA3rcqW+44Yab7t4c7J+81pzGXWezGQXfLNSNgviO/vCZCyeKc7N2P51W3CD3NQavmB//8R8vJr18Mr3FTtQ59bJWRvg4QdrAbaHMv/RLv1TaifOEetYDZpVhMEVIWD+0RqpdTa6YaXlgGoAYEEbMuwkNaPzcdS06+42JYdbzgN6CPPUlTJzZ1PhIfv7TVDE68eTn9G55WRv0dWT5m/Aoj/6VdkibrKddlCfMlQCwFUJ5lONjH/tYWS9Wzk996lMlHsHiC9XKpN7Kx1SkXM5r9BzTX69wAuXOb32MtUK7GHMOjUUPz8XDUP1PX8QIs7Ecc0w6gbgEvjqqV/ZeCmlnNDcBIYzsAeJBrF68WtWXsCA05Afy8Ft90cy+wJTbPUeWqf/YRlf9xvozniB+W150tRYvT/TK81ltW78vjommvNGu5kuBvsPMl71O3p/Xb9Av/UT/RDO002/1Gf3EfWMJDY0H/dSSgTzU1xVtCX/tFzpuFBsWTr7bctJJJ5XNZjr3GHiS0JyYulri7hQ0pLK0hNOBfvd3f7c4Pvikus6nscTLOy3Uw4AxCJ/61KcW5qVRZsXdbiiHfB0Q6TDI1772tTdbWwrMfGi3j3jEI4oDRcq/k+20EbR0V373DGKbpQlpvzEpbWugCWGK2powSDAIMQ6TD18vPuKII25K+f8wlh9maxA7KYDmbWYtrwT5xYQM+kvycpUfIcXDlWONNUOMWR+U/lib1PfqMrlvhq3OxivHHp+6MF5T97o83vVOyiT4rUz27P3ET/xE6e/e2Yhwck0eAqaub+qXLBVt2fPfuHriE59YPrVTf2YHxAN14jmcz9RgqDXdU8fUD70TCCRti96Eiecgf30CzfAGVqIIGmkRhOpQlztAA0xaGHvOqnTiiSeWzfoRHpD6jKGOg+/aZ0VB0B4tCA1jWn0IDe/Wabf/8QX1xPty7mbdZ9NP8l7dRzJO8HkfUz3kkEOK8B2r+7z6tdjQ95xkqCI+LEi9zcyhZfga2wnZZgc11lPAzUYtaJQD8c1C1EXHNojNEjREypkGUb+27Bi6k9adoZf6i9OGnYK8DSJ19BVczEo5606jg2GIZqX15zZ2stzrRV2f/HbF/LSrzZFObEYHAxEdMvBqhuM/7dIMUjyTFLNQs2yDr4Z3kheaYojyc2oAQWCmbQYqHekZJ/IS0g/l6b48aVvaiiZnps+8TJDGDIUh1HmmfcbaSf1oEL4rRigTlimPOsmLIJW3OitHgv/uex6TG2aDgdOylZ/m5SsEytpCOe1tJMjiKZoyuyovetBGfvM3f7PQymc2lAmt6iA/GgjBRINjOlJGaaTezolUT1Yce48ITMIKTdPOoXnq517dxurhHVemXG2uTQU8jmOUPoQWMXFJcxbkg35tfRKYwbJJvj5rdKwtg7rOhId662/K3KZPu0Q32o3JDdRppz20Mw2JtcgaO+coVjETLHWs+y36hYboh7ZojB7KIOhztGDx0HB3eP+G9C6Nq+AaUyGDZKxBSdPYJJcJdQMjLCHrKCLeeGYNBm89kBAZvJPO6rdBwiRgZsgbMWkuI7QBU40OO1ZOnS2mphqhwyrCoMLcCSZMi+bErBeGgg4JQfs/0JcJ8BpoE/oYpCY09sIx9RBOTKjZYtHmEczKD3OhBdDiabwYL4ZrzEGd9xgwi/Tr888/fxfTIZgxmrE8W9RxCBuMhqnRDHk9SFkTpKu/EUZm/oQm5uh+xlagz1q7ifWF0JCGMemqjZlp1RPdtbX/6i+dOrRo7zH1ojNhmSPJEifjfk+Dfqbe6ScXXnhhEXju17QbCzVyT/8yuUdDfQ4d3atlxHqwIYpj6gY6KamzBzqdTqMzm/GQmpi4e8sCRMwgUH5q8U//9E+XwUvyY+CzmHgNqvKP/uiP7tIMU/dlBMaqHdQ7s58a/qu7dt0ToJ60GBMOJgoz9LR52l97CaGFa+61YE+nVdZIOoL1GgPct7wwXMizOp7+kX6S3/k/C0xUv/Ebv1G+v0VApV96p21H8ByDFt9mTELSpCP9WlCWtSDtpE8wmeGbbLZCelFIS5nlT8gS5M973vOKkJoFZ1NyKKBhMO2FTqEr7cFaqjGMqdb1q+k7RqeW7tLDlNGbAxEzo0l4HWdPAhqZwBBIv/zLv1zohwahIYRG6BdatvSUTk33pEHQv/SlL51ceumlRTN1f71Yl3BKQxFIZovpcEEKZ3ZlMVVnXu9Ma7OhfAmgfJgJqe5MLOY8TNmMOvHajltDnank1maYLc0m1Tt130gjbDW0AeE0q2zqpAMZnAbkKiK0F0ycmPCYKmgv6ue+Nkpc9KD1HnfcccXLUrBuaCOjjY0WyAN9WTvX0D+kQwgySxmIhIJ+ZHB6lngZJzHlcBT6sR/7sZK3tSwmw1nQF9WHsGFGkwckfUhfNSajcVnHGTM9pTwBby7OGNZy7M+zSM9Erb7MifJhmrM2YtJZ57seeE+Qv3pgWsoLoVdNJ6byRz7ykaU8aTfPBP99AVY6TG1MoHWdQPuaVHDIcmqC010Ejj9PfvKTyxoaTUy+SR+tzfI5GTAP2pzONFcjYymTvXlAr8Stg/ve3R16bgRoB8a4OhIgtE2Tl5p+aYeAhYhJ90d+5EdKv33MYx5T1pbi/BWhBTUtaWVOaI/WnvavwzwsvOaUxGRgls0Ga1Ya1I2sU5tpGuT1GkawEw0C8mW2c5S9RtE4Zl8t5hFNw+nYD3vYwyYPetCDdglfaW9nvRaFMoXB+e4Uk0cLcdSZwM0G4tRlGeu0FjAutngTjwjb1EM9aQGEBAboSvtlmsXM4pXG6wjzohUTINZPrA2kb7hKm1mKIJAfZiufBHHQUjqOtTKgrZ0wVVmTIRDk5bm0makIE+1V0z3tJz1ji5NEGFziiYNJM2Fi2IQUtOXRf+VlfKoz5u8cNjRQprve9a5FOIUOhJT7+gWvNjCZW++ak/y9R/u74IILikZXm99A2bQNEx4GqFwmCXk/cdCZpmoM03TQLM+BcOOpZoyit0mI+qG3eluHkY+0sq4iD3CVftJED/WJkPdfvdDGhI7wyrs1lEFcbS6+vBO0nzpyimByr7XRuh7zYFJkbcc6srZvQTGgedZnmoI6E0b6rH7ia7nuyTd5q49+xjqE1+FzPv+jvOpknKAhbdbEQrvGdKdPhh5oE6GkjytLXb86z1EMCc3FUPASBgJMhwYq966//vrpC17wAiXYFYZMpkNBp0Phpvvss8/06KOPnl555ZUl/k5BuZV5YCLTgXjTgYjTYWBMH/GIR5Syrieol+swsKeDPJ8OnaOkvwpQ92EWOB1myKWd6narwzOf+czpwGwKzdLuqwhtPDCm0Tpqw2HATa+++urpMEhveuOWGBjn9AMf+MD03HPPnV533XWFhulPgv+DMJgee+yxM/MRBiY4HTTs6aDNTAeN/abUb45BY51efvnlJd4gDEpfGxjiLdpK3xuYxHTQnkpfhrTTpz/96elb3/rW0sb1O8ogLVfp3eY2t5kOgmc6aBPTyy67bDowj5JOC/X75Cc/WfqNcTzMtG96Mp3eeOON04GxTQdt6mZ5JQwTtulTnvKU6RVXXLGLZsbgMJOePu95z5sOQu4W7yibcg6CZHrqqacWfhOkjoJ6K8ugVc1MA43OPvvs6SB0bkrh5kiZBs26pIMmaC7U6Q2CbDpMZEv7fPazny1XQTtee+2104H5lzap30m43/3uNz3jjDOmg6ArfSnvJigbmihLypTfi2DQRqZPf/rTS9nH8h8mBdNzzjlnesMNN5T4SX8QxtNrrrlmOgjvm8UPf8vvYYIyHTTM6SD8SvlbSOvjH//49KyzzpoOQms6CLObpdGGpz71qdNBmJc6ZwytVd/5emmFoeF3aUYkpTAL4lpETvxlAI8bi6a0PWtNXC3XE3grkfyPe9zjyozOzEg9lx1DG5fZDfMNNdyseS2sQr3mgdmWpjEGJiyzejN6Jhb0EVqglziHHXZYmb2jYYA+Ztxm/2awYxgGXvGwM0O2psk13GyUtuVZ8hXkZXZtUycPK2s8ZsNtuQaBUWaitDRaEiiLYBZtvUu5WkgneZoFP//5zy/mS3QYWy/1W33N6s2SaUzGwFiZ1oKy4QM0LfR61ateNWqtQAPaDvdzJiTvBfVv3nK0JuuI7iunIA88h2ZCY6IV00iUWd1beJcmwDQvnnq1dTPz5+GId9CelFHQb1zn8TfxpSvknTooK4zlu1VQZ+2g/4w5P4VOtBxWr2GCUTRo5U85E6RF+9SfbDFgaYAxWoNxwkwa68Ii2JD00ODCLOgsVL5aXd1p6AyYDCbh67QIL1hnWCRoABttvUstT+daZtQdSVtgNmuVW/xVBwY9Zr4EtMA4COkInNCphngGpUEXgR4G70oAEgY8AscgnoFt8DLpmczIN2nUUA5CgrAQn0Br44B3MUrM2QRLHMFEkfsvpsNEVcM7gnZnmjnyyCPLvi2Cl/Cc1R/SZwhK/SYMar2Qt/JZ47UWxjOvndjKA62sMZn4EYQtlGeYbRevUs4KzPO5D8qmjDHhMUd6FhqNQZsQZsysGG0bj3By0DOaS4swiiBM35mFxE/csSBOyr+VCA1MjNAf/caEk6A89kYxdzPv4uMRwokThKfG9MfUWT+vwfHFOl7afpF6b1g46Sg16kIhvFmiwbgMQAiDn/2X5kPQDCrxrmAzofBTP/VTM4Pj6AkpA5uLq0HXIo1Xh51GyqGDYQLzJgzLUubdgfLrmwbiGD7zmc8UJwkzSAMldW4DhLEnuK8v0WBoLo62CpOsIY6BSxMwaNEd/d1PaOG5MYM5Y7DGzlg8mgNGbybKMUmZaIkWuDHS2nsWPNfm+iyXbGswfks79UzZ1sIicQJxBbSyzmQTqzWqsUktBhfPPAwR/xgDwUsoW2eyjSXl0TbqQNhKx34oSBkSr4a6ewctaE9jAtEs39p6HC68E5qtB3mvDiD/7YI80Y/Gac19bPIWvq3P0irbdki5IfXQt1iVjjrqqCLox2gN2s36mP6rD8yKV2Nh6iiIBgIVG6ucTBNnGYAACKwTuCJkG9IA4swL4oVhCO6lgRLUvaVBnu0UlDN0wCTX0pxWHepqBi2MwQI+Tz57MThOEGShUY20MbjWvyPgMN6xthUH08NomcX0M5Cm35773eYJmCTPuGy6baG8yZ9Q0t+4BPs/C7Q/5kJODfE6lLY+MVaO3Kvv+51yLwJpi4/e559/fqH5rDTM1FkxCKn0zzpOaExIEMImHtIRAn2byZZgYr72fspQx4P6mfcs8tdOA4HJC4ZqIpB+khDarRfemRe2AtJVXhqgfqL/jE0SaEmsQpxGaJU1koa6t+VkWeBMpe96Pgb9wCSFkCIkF6nreEozkATDhGdBZ9KYO8mUayj3rBAoq3q5jsVbKwTt/2WBMmHYYZR7MngSYfBj0G+ZhpjkbCWwh4gmwuyQQSPoB7P6r8Ft7UcfHwMaE0y8nXhzJs2EFul7gjYiQKzzmMXWyPvqQDAxLUY40QRngSs8jYKQqgXlIkieCYuC8MMMmXLiSlwzNnTBzLgmM+cRLKFVi9zjHRdBEZoF1nGslZgw0KowQQFd8rsNEfDMd3VagXue6RetRrqKINz1fX1mrG8z3/LgZOLUfqHJrDZJ0K6EuzV5444QayFPwl77GT+LYGHhlIKAzMcKEKRRZw3eZUSYUc0o1hvaNFyXAWm3vQXWL5gYMPe2n6KFQcKBwLE+5513XtnNzu3cxlBrN5hbmFFNu/xmr8f01hJO0VIWhT6jvJiD8pvV16jLYiYqGPQEqzLPAqZtPasVdlsJDJ07O1Me4dlaWsy2aUpO7rbm4/9a/VR90T3MNePLe2iH6TG1cpHWnmsFWyuYGwnPefTDy1L+ZRnTG4EJggnDLNCcOOYQUmi6SF3TDvq8dUxa1yzticZLQI457YxhTeGkkG2nMcPJIvEYDFodySxm1aCTI+J6gnpiZupt4Lj67/dOI22nXgbYKrbJemCgMO1gxmbmbT9Fj0yu0IKQcsqAQ4qf+cxnTk477bTiVWSWnngZgH57X982854lnMw6zSJb08gstGMMkzDIW2GiDQVguyck/VeeMTN7QMhFi9sO6PcW3u0BMwEgNOqyg7JYByY41TM0rkMN/2mKZt7tuMIMaUAcQnx/zSbbek15VrCGzJPyRS96UTEXzoLyo3FbplUDwTBPCGsHEztX/bHWdGdBmxoHaEMzJ6BmCSftho6E/SJYSHNKZ0njkJKxDStICpPKKDCmXXfGZUUaQVA/6xA6LldbC7SLBO6vRx99dLn6z+HCGVMY3LJAxzDI9gTzxCykf2J8bODPfe5zy2BL/2yR+OmznBvM9J0i4F1aVdZ10j/AQjlhMKt/S4+AmTeBmwflx7RjghsDwWqQKwttYlZfU27pYTh1HbYKYWZcsGlOMeEQ7GkHV/SjpfI8zIZh9KxDXVa/abwRyNKQl7ap29H/jYS16LLVdNsOoPk8rUV/Y54bW+ucBe0gPtrr7yZC6QMttJv8F50gLyScWihEBt5YQRRiWTSHtaD8CQY5G3lUfuaBtYK1iwSMzYxRY1k7WE8jbzW0xSKa06yOteyomYcBw4OI15HJArdY61AmVOKF+QWps4FjDw5vJkyTuc++HMewEAKBiRdGWacBdV8y0DHk9cK73tN/5r2vPc1YlYUAmDUb1QfVW0g9twOEullyZtWQ/F31QyYmY+bKK68sWlHoKX4rDDzzjnao02vjbQXCgGE7abjZQLt5k1P11E9cFwV6hCZoNG9Cpa0WmQgEa5ai7ggphIFjAbKFDiS+q8GyCsIpUFazPaYIA2Vh6T40JCZidmqNwT4SpgK+/7yGlgHaBBObJ5zUQedaT8dcJtRMQ/9TH/SPiccWAGscNAjP0ldhbLCwz+sLzmWzcZtJJHnoK+jZAu3qcuwO6vKNIfmINy+uNt0JxooWdWjz9h8dCSZnE9KeZvVNdRNS13lIP3bdjKCcGLbxvZ302wosQr/dQdppFtBvPTxmYU6UzgFpOKjvpfHcWyXhhNGwZVtMZbeetZZQQ13VGV3ijuqU5cc//vGFCXo+r6G2E2ZLtAKL1GNMVT24PmPmmfkof9pzlaDvZZCkbbhRO9j1BS94QTHX5mw6ECfv1DCA3EMzGpRz3PRn9zCqMfOFdJKWuH5Dm/YYpJVBG21oXj/MBDFjcdaAN1tWB9eUZ7ug3sqVD8+hSWhYgwn89NNPL+t46t7WJX0xdQ1yT71cmVJ5Juag3t0N1lAIJm0tbVikLZcV+oy+ux7Mq69n9fNotrOgvfCXWX21xcLCCSQOKhizXgqXDiToYFT6lhkuS8PW5dCx2euZ8phz/E49aviPqEKeScfiu018Zug56BZt6nhtWtsNEwUL6NpirA0MbIv37M3bbf7ZbCh7HdRNvTgYcKe2EdWeGhurnfZhbUp/bgcMOukbmCmznv0u1iOZ87Qvj6axd8B7TFY0VViUnimz9qK5zTPBRDgpu/WpMM8WyqLM+jVht2hZdhfy5XVoM6eTVZhW4yDiWYLyMAHaWMtMnmOJWtq6h7GhfeqA3qG5fWE2PTs524b5nDS/O4GDzM///M8XrZuA2kyk7Cl/UN8fC7sDfWRePQiWtfpdjbodwIRKW2rXMRiL2imyYy2sKZxSANf8Niiy4KsThXBhyJggrxCLl6loKrC7BN5dJP8QEAPh6urzCvHYST1ruJf6AabAG4xAciy/GTmPqNqEkrDTwOxMFjDaMagXRoLh1hrFqiH0Vp+6rcDAMKN2+sITnvCEwnjssfElY5tT7bPJwPWe+ocGBp21RJ/G1l/0f1qmNMdACNDEmYfXg+RJy8Wk581Cjb8cP6RePN9mQXqcPYzF7WpXwpOGir7o/PCHP7y4x2sXZYhwAv3S/hsnZRNSaJy2hJSZ9mWiIY1AGp5rEx6STjPnhecT5bsbnBrz7Gc/u2wSVp/NQtsG+e/aPoP63tjzRWGMz+snlAnHcbkG9RiahZSbYLJuP6uMeAsLjXZcBGsKJ2gLqCOYrcVVV2HSScDgNFPDEM3alg11eQkmzgy+k6NRdPy6LjXq9/KxweOPP74cizSLUS0DtAHNSdnHoM6YbTurGqPBMmOt8nouGCTqa38Njde3mI499tiy8VVfR4+aAQJB4/MC+ggGyXQbQd5C/ydcDNZFoVzaJ2OHizuhMgtMToJyuirTLCiHExqUPflsFUJjguLBD35w8WIlRJlWHcjaLpgri6CPKqO9Zj58F6S86onncFUeo7uJMGcW6aR+3t0MpE5bjdAi5YfUfzPy12eZK2dBfzNBr4XTIjBmlJHWpd/PmgRre3xTf1gECwknUIAIKYwYI1NRGkSepRFD0KxzLBtSXqaXd77zneW7TmbH6QBjHSF1cqXmZzZosCB6OlTSFpYFJgnz9uVEq5jH4FYBNe3HQg3/9V115snHkYUJyj1o+wAGj2nq0wQbTWuMSUrX4HTOXWahY/2phfcwYJMIWo53503szIIFbaf8ZqSzYJMu71NX2lMreDcb0ifoaU7KqG7K50BWdMYka3guKJt1X1YMM/BojtLzHN0xN3XOeMxz1gHvmGSaSNTjdXeR8gmLwvpLvaQBa72feuBLOUlBX3JfPXa3Ltb+5u29Qzcnx+MVaL9IfcVRRrTXv2jAY+Wk0GRCRQtdpC4b6qUKRDhhzLW6WzNoMAMUlhHKah1BY1hLMDDqxvC7/o8Rmbk5mNNxKwaZwUdFRejUfRmBsTJLtYMlULc9QTitBxkcBj7tn8lJMIDDDGpgGgYepmPmp+9noNXQZ7zraBxrVZjlLLq38C6hRLBps7H3DHJ7t0wMjUGM2n/tNwZpGoMEq5MQ9INZM9vNAvoRRsZLBHjKbS+g8wZDt3acqb/jpHjwYdJomefonS/yup9nAlqJz6HJeA7tEm8roJ512WuYEOaQU5gVD/AOggg/4lpPODNx2sBMkzRZISx2ty4Ek4mBCUM7sVI+kyH0p7XPO6uxhbHBHKuvm7yNlVGe2t8Egyl6EWx4CmV9Iud/KUwtmDQaqOB6KrkVGGtQZUXQiy66qMzUxqAOqYc6sfH79IHv7VtfMkik49m8jreTUC51N2iZL2cxSQwOs1tU3V52pM3bdg/c13b1c4MVQ3XsULSnGrRjfQCt9Hkm7ZxDNgsGOWapryWvlKvOO/2HZstzjRCZBQza5ChMWnkwe+UZ64fpx8rwyle+spQHE6oFVF2WoC3jeiH9Og/0JqysQTm9Qz0gYyz8AzDjM844o5iYTAZSDgLY8Tq1tUb9U29rVS9/+cuLYMPswbtJu61T/rdhFupnyVsYAy1ibJ2vTV86BI9Jwwtf+MKbnVxhbdQ3vgisTPLXKuMseIdgYG5FQ5OFGsqhLcSz19O2mkXy8hytOZTp77NA47W9xppXKxhnYcPCSeWYE9qZo8KmM7ABs0HCIhXdKqRMrhqBwGTmQEyE1SieG0z1IAGdD8M65phjJs961rMKIzDTFjedMyGDZFmgvupnkNSaUwZWyut3hNNOtdFmQfntSaK1EMi1WTn1besPBANzhkGJWegTdbsSTPHE9B+tfIiQkKjTSz9SDsyVBxqBwB5fw/OaeTOp6JMmS05vTt5CGDjQbnkdEqRpKxoUrY+52bhsyy6IazxeeOGFk5NPPrms75jZg+ctck8ZaQEbtYBIJ+Vx9R/dfFsKMt7qOpp9034uvfTSMiNP+U0Q1Nv7NNcgY1sghK0h/9qv/VrRQKWVtKWTekH+1wH0GYFgrNMOpEdA6gP6wxj0IQKKB7AyBHU+6Svq+JKXvKRcWzrTZKyJ0qDwrdBwPVB2eXmPcOJdTEj43/YxcU2QLHUoe8zSdf1rGGM0PM5CtP2kV6cJ8mV10j9TnrVw618ccNPvdUHiwmWXXVbsjWNAeLMdgyaNkrATkK+OQn32yQTCKe6+LfHF1YBmGYcffnhp0Hvd616FEaT8GsDvhGUD+mNImKMOlzrWZTW5MKvhYu3a1mMZ67UWMF6mISFeoxgNeuizGWwEEiaC+eoTDgE1a/QsbRqaYYaEgj5AQGh71gMMyPpALQTzjrT1L89MDAzWTGyUwz2TBwOcedkgZ34zyMOEavob4JxvaB/6ZvpfmID6YHA0o/ZdMIsnkAhvdc5Za8ZEBJC8MUH1Mj5sRFY+aZuMgvSNeTN677UwM6YdGTvolrKkPMaQussDfbSNZ6Eb2qCd8uqfJgCEAeEkHrMQE5K+Dd7Lu67SZIJVV3XS/tqA4JKuqzqLJw7LgvqYFBBoNC900b605JrJgjKgh35mQjPmlZkyyUf95COefAgc/2mPrsank0haN275eNd74jLJpQ30Oe2j3+pPLTKJ0Wf8Vhb1QEMCgvBHG/RIu4DfaKWN0cd/72lTaag3+nnXt65sUCfITMTqfpc09VEWJ/xT383kDup4Y1i3cFJACSqwDqODItQYgTQMGz7hpJMhDMwr0GZCWaEmgk6tzOecc05pGDAYWuiUZqM+osWMx4Sj/HWabaddNmAAZjQYX9zkg9RDp7fXx2yU2aXFdrXVZoKQoSEw22KsBr2BIxAGCZgS5kLLuuCCC4oAx2y1q3qjkb5hgOkLhAJGaXAbrMwkGB/mgVGGprmCgYyJyEv+xgGGJB8MUPloCNYZYo5q+5X/BrU2chyTvhjTSNqHZqfPEq7SD8Ov289vzA/j1i94H2LI4hMUrBzKg+lger6Y6lBczJRAMfOVhnqsRzihR10O5cxYCqMeG4PaDV+h1QtoRzD57UQJYxl9a2grdVdHB/hKXxsrp3ZCc0KZNUGdPZcWQeO0CnXSFzBme+Pwr/AtSDld0UC7S2cMGLi2J+zlJy7hJx/9hrco3kk46bMtD83kA52UgWAyVmE9wilaEuhHND500CdrjV6cBJMUZx9qGwLJPX0zApZwsy5GS9WXxAFlTf/VD5SDJ+whhxxyi8lv8pqJIbENYWic6dBJpyeccMJ0aESjcTQMHXr6xje+cToQY9d72wV51WEg4PTkk0+eDg1cyjY0/nQg5C3KLAyMaHr++edPh448HYTYdOgA04HZlyCdpLlMqOsqDANs+vznP7/Ud+gEpb5tnQ866KDpKaecMh066S3eF1YJyjswpumJJ544HZhiqd8wGKeDEJne/va3nw6CpfTVgblP73Of+0zvdre7TQ844IDpMIBLHHHRp6aVNAahPT3++ONLXxiY+83og27DrLekOcy0d9E1IWkNzH26zz77TPfff/+S54EHHliCMg0MsDwfBvMtQt499NBDp4PAnQ5MbVc/TF8U/B4Yx/T1r399iVvnPZam5wPDmw5CreQ/zMoLjVwH5j8dJi3TgbGUvjIIk+kwQSt1Nw4GplbGtLLXdU0YJq3TpzzlKdMrrrhiV7sE+T1MXKcDo54+5CEPKfmMpSOg6aCtTocJ1nSY0Zf31fXtb3/79OlPf/ot4quzMqeO2nRgztN999239AltrdyC3wPDnw5Ms9RZO8sPjdDw4osvng4MeVdbC2iNBnjCIFSmj370o2+Rv7wT0Fj73fa2ty3tL6DxcccdV/rqoOkWWtVpJCQN9dlvv/2mL3rRiwrtIPUfhPXou+o6TMCnw4SjxK/Ljn4f+chHyjhRnuRT9xF5CoMgK/1Cv02fNYbQDr3Qt+5nuXr3jne84/SYY46ZXnXVVaW9a76ZMA8bNusNBSqBBDcryNpSCzMukppnWy3BtwtDHUuetDgzwksuuaRIejPIgYC76iEeMEPyKDJL5lrs/0Ds8ixxvZf/y4KUf2jwUi6zRzPEV7ziFaXeZrspb+KCWTjPQzNcs6oWy1THtTAMujJbtTirjf0fBkSZXZv1ZfZsVijErOW+/hDaBaGT/TpMu7QBfaGmI5rRWvRtaZtpSgvES1ztoQ8qX10GebuvrPqVNOtg5q4fMruaafsPSTvBu7QKDhosGupCs5BG4kCdtjjy1TdoCmjkqjzuKbM4aGjWjgZm8CwO69GcIPm7SlMcGqi00IP2UY/HxFcGZaHV8zZTf8/QnNkN/bUhTQSSBqgjrUIe6iWO8tbBvbrO6Qd4FqsCk5Rygvt1+eSN99G8o8El70AZpOk5c5kAtDL7vmIes6UFvJ9+AK7+40P6AbMyrNesV5dbeviyfhL6oRFay68O+kc0pvRZv9HOO/qGeNJ1BVcn5zgVxD43PEZbgXg12v81dssuJeFhBlI8hWZBZajXCKCi2w2EQnSDyYJzjvGviaKxDGwDiV3UHiYLtv57P8QX6s6/bEjnAIMuTgE6ExhcdRyDzgKzhX4dFZa1bovAQNHP1DdMYAzogBGJ3yJtbdBihJgspmwTaS2YQDrDTLGYKwxCzAbzMB70p8Rt6T4L4oQBag8CgSmNabl2AtAH2+Ad5cNQCVOmaN5R0sDIpZ0gjxp1nYL6nncwWIx0s8aw9PU/5p773ve+RfCEvgkgb23FxIiBKwNmjOE62cPRSMaqya80YoLzHtRpzcLYc/2IcE992/S0O4Fxz3ves/QNkwJtDuhbhzHkGaZtYkNYpB0T5Cn4TcgwZ+4O6rTRWtmdqDFor0WAMFOnXKlvDe+1yD3voIl24UCmXU16naDjHoy9Pw8bWnOqoZIa0brGGMwYCChS34Iee/N2QoOT8jxPTjrppDLjAIRMQ4iDgE984hPLsSU88sKs02GgJu56Cb0dUKYEawk++0CDIIwD9RG0I6FEGOucNTOt01klYGK8EuPxth6EESTYZOuTG04lp7GYubc0SVz0tB7i8F8zRn1LOczIPV8UiYtpE3BPetKTJo973OPKAMe8kve8dpGGMab83pNW1pRS3haz7tX3MUZaBCbs/kY1p8D/jDuCTzrWZPxu8zZGabn6KAEkTXkQRIQxJksI4zXWl/SDvN+mNYax59qQ0LCQT4Aob0IN+Wsra1fqMG9SFBB4ymsTv/oThNZwTChNmOoxCupNc3aMkvxgvZqTtOqyoykaoqfJAcFEe5y1Np32quFZTTt9w4QBDzWhctZh8p0V5mHDZr0UDBPXIRBXw9SESmXEI5h0cLPM7YTyEJwW7yx6+q9cCKNcNAczTNqSGSeGrdMnTk3AtYi5k0hZBZqiRdczzzyzLHjWs93EUXfnzBFOFvvzbJWhzTBxzIKgYDohVAgOdYvJpoVn4hEs+sIRRxxRBpf+YKKCwYc2rgmQcYCZCbQUfUj+3jX43Qd9b4yRKJ9+qB1oAT5dzrSMaWDEhI08oM57DKkfxqMsZvfKQbBIC6NN3xa3LY/7tEbMioBTDw5NaEFIY3TeI/CYo5TduFZ+AR29S2DQZmJVqcusLtIQ0AYP0W4msa7SqNMUQkflJfTkq47gt3ds8kRDV0zcc3WVz5iWDBi/uPiTdDF0kxKzfpM2abUTtxryQFNtjtbKHxNZm6fye04jx8RpF9JGb+U3iSQghLQ34cIJRp/UP1MWDh/4LqGt/DW9CAl0T/8ZM6lJ339lkiZBLH3lkiezJlobM64pT+Bd/UsfMREhxI0Z5dT22qu1xrjWZVgLtxoyvXmuayDRXdO5eJvwxedWqNNCXRAdRKV5bdgvpDHcC6S1nkIvCkzZjJHb+Ktf/epiH1bmlE2HZIY59NBDS0fMABCnLl+wFWXcLKRdlFE9rTU95znPKfdqpF7qeOKJJ5aOj3FtVRtsF+r6mzlnHcNaqEFMSAsRUGlj8TEYDMNAw2Qwc78xWcjgFDfvgHvSAffFSxwTNZqASRvTKk1DmWhT3hEvcTEP+ZtNY+iYBEZnkpS86ndybwzKAElbGWkUzGHKYYavXGbrxqpnqYN39H/CEIPD6DA95UqQJuarPjRz9YmQAPlLz6yZoMDo2r7lefKUn3GqbaKJScP9Fhg+Jkp4G6voIx1lkj5hgMb6v3oKPNLUnVaiHClL6mrigfaErvqqo/9h8uIkPuRaQ5rqgL688eyV0+cIm7o9CAFMX9oYunVttFMvwkb9TaBpRd4TX3/A+E0SvJvya8N4GSpjTS900IYmn9GcoC573ea5KgfBaDkg/VY9tLH61e8oN/rgoZZ2HMiAdjUPVdbAOwmLYlOEE7Med1ib+3RacB+B6+SZzZzyS6rHNgzrKfAsjFXD4LN3xM54pp6USWc229LJqctmhZA02vLMur9MSGdQN/sOuMMSyGNQD53r7LPPLjPEMbV/FTGvnQxYTKqe1aKBfogJoIGZHvq1SLpQp93SbF7+Bj1mJRjo4shbGQgnIbNiqNOu84ex9IO2rPq7a10v9wglZanX3sRRJozNrNgYaTGvjmMYi7/eNOZBWkmn/h1o79Ae3RMH3bW3umL6Y+0erLcOnhGymDo6A94jP3kRiDX/q6GPErDeI4j1S21RY6yeY0gZg1lldX+sPnhK+iwa6ifioZ2+YfKGfrPqAouUYRbWLZxqeFXQCOyfvqNC1VeRVNhVw6soldnH+NhaDUbPPVtPgedBevKRpjIok++x2Jho5hQGTsozmzChmCWbAaw61EvnwWycZGHfjNnYGMzcmGh8s4bmaODAZrXDMgJ9MvvzWwB9RTDg1H+raEAgaJ8McEjfR3/5+7/ZSF51vdxDB2VxFSD138rybDfULbRPu6ee6qeuQk2fzYC+Jl8Bkh+6zsvPe+mn4mL84u8E0Cq0c637krqkbJtNu2DDvS8NLZgJWEtir4+N2f1UIoWnZvO6oV2Z0WxFpVImC9LUZBvJzGJSHp41PjJHQMZDZU+Aupnh8GhiWmDOmMVcqN5MmUxHBsDeAPShmTApm/Xps4L/7tf9dCtgEGembt1BkL+yJP+tgDq19fI/5ZG/MgnbUZ7thnpgomnzup7qr/9vRbvLU9+qaev/Wvl5T1z9Q/ydEkygnMqbeqTf+o1+W0W7YEM9MAKAdHdFQOqqxXX2x6Ad8OyXduHbmU59HWMISXt3QJNji7XfhWlP+ajGysaMR3tjE0fk1GHV0NLJ7AZ9fU48plW0rQMYkIQSF2Ua4yrWvaOjY8/HuoVTy8wiYEhSJiILyfNAWFx00UVlMS9phdEuyijr+HUA5WHG46FnUY+GxnaLGTtc0ToT5pz4q47Ug6cToZ9v4bhP8KJHAvDe4QBBUJsR7Sl06Ojo2LOwbuFUz8QjmATaCRMZ0x7XU+op5pgQJmhNhG++zwIwuXkGYaa7A55YXCudBJ3PDmDENpr5ai2PQW6Xypbypw6rCDRLsJ/J+VwWUy3453loH9o6m4sXDw1K3T3r6OjoWDZs2LBcC6f8x/T5uPPfZ0bzHFOshQ7zk5k9zYYLOhNcFg3DaDcC+TMVEko887jKWlPid2/3vjUWpsd6jcU7Kf+qwuIpeuY7QKFlEMGk3nGdz+GRsOr17+jo2DOxYeE0BoyQXz3tCSNk6qtRayqY6cUXX1z89WlTu4MwWE4Qp59+etnnYI+Fo02OP/74ojFhztEi9hSot/009pc5jTrmvDEQzCYNPpVtHwch5v0unDo6OpYRmyqcMH+ePjYy2nBbO0cEmGE0KkfM2Btl/QmzZBrEXBMWQZirYzcIPO7jvhTqCA0HD1pvku6qM+GaLoL60A5559nPpN6grgm1Zks42WisTVadFh0dHXs+Nk04RZhgfFyVbWy1C9qemtyHWnuxPsK1nBkuJygvisRlJuRCzTuPtxqBZOe1PVXc25kaA8x6laHOqTdtU51pn9bwOERA6FzTkpOKo0yY8xyTAuJ1IdXR0bGs2HRujSky5zl2w0GFObctgoFwioCycG/270QDQsrG2ayZYJxhxjWjDdyTDicIx31wruAa/uIXv7i4tHOTllbelV6tSawiQgv1Umf7uM4777xdR0YFoY1Ag3LormOjHEUTYR1a1KGjo6NjWbBpwglzq5m/K+2F5x6EWdYQB/MkWHjYMU/RpsY0nAiZwLvucajgMk4gHXfccbvOw2rz2hOALupMGDnU1dlmoL6hO/gtrnU2J2AQTrRY9yP8Ozo6OpYZGz6VfAwRILnSZPymETE7tY4PYaI5cJC3nbOkHG3kWjPcoL4n7Qg9jhicMOKNl7Rdx9JZRfDMcxijjbYCBxB1r4V5fruio9MwOEI4TDT3Q489hS4dHR17HjZVOEVbCdNjQnLcBaFhTanegwM1o+R1xtvMzJ4bOhOUvTieR9jVzNQ9/8URVz71c7/zv76/7Ehda0QI82zkmUdr8ptJs62b/+JyBHGSMW9Fe720RU1vWCW6dHR07F3YVOGE+dUBrD/Z+IqR0oy4eUMdJ8yXYPKZAw4OvP7M9jFVzyKMEt/vOq82eJ6wSqjLHGHvynxpfenCCy8snok5yLKmjXrnP1Oeg10d00SDSrp16Ojo6FhWbKpwGgMmSMAw0zHrEU60pFrYhAkD0xVGzAwYLco6Ui1woP69pyFCR/0Idaa8c889tzhA+J1Dc8UTgvznmedgWxuP40rf0dHRsUrYcuEUxFHBd0ocMYTBZnG+ZrBAePHic5o4wWbtyj6dVkDBniqg0MY6nPPyOD686lWvKvvC0AYdoBVOTjN2dp7PgRBM1uG6YOro6FhFbLlwwjxpARiqz2n4dDbvPJoRDakVTCAuDQoztuiPSTNP5Yj7eVgVYTVWb4jwtTbni5Snnnrq5LTTTism0dAxaIWTfV0Ek6/bcuEn4JJeR0dHxyphW8x6dSBgCCnrShwgaFAYbh0gTNdzH81773vfW7QAGlQ8+cKcE9e9+rqMqIVJkHupexwfHMXkWCJCPEh9Q8/QIecIPvaxjy3akzU7z5JmR0dHxyphW8x6ERauzHQcJAga2oE1KDP8MFwIAwYalK/YZq3KOxgvU5+0oGbWkOsqgYMDIXTNNdeUDcn2fb3tbW8rHo5j9ck9wt63+x/60IcW4WQ/k09hrDItOjo6OrZtzSnALDFUR+pYh2Li4yhB6BAy8Tar4V7MXE5GwMhpTzwBCSjagXRXkSGrq7pZY3M+nrWl1772tZMrr7yyOENEm2xp4r+6O8TV+hJznm9WtZpSF04dHR2riFsNTO6WdqYtQi14XDk8ON3hpS99aTlf7+Mf//guRixugMGG6dIKmPbsbaItHHnkkZO73OUuu8xYq4QIXWfkXXrppZPXvOY1ZW2JyZM5E9RbveI8UsM+JjTwSRDaE22yC6eOjo49AduqORE6AobJrEeDchCpfTiEi2N5aFFMedAyWvAsJ04weX3iE58oWof70sOgW0QgBpvBsNs0a6yVPkHDY5Enng8E8sYjnJ3OznRJM4QIpjY9TiG+y3T44YcXU55zDHnqJW4dOjo6OlYR227Wgwgd15j4fEWXFkHwxMxXC6cItoDWgcHb92PjrnfinZYrATiLQed+0lwPI58lmOr7dfp+K5MyEqg33HDD5F3velfRli655JLJVVddVepQwzsRToG0CHIej8x4tCYfd8zam7h1/I6Ojo5Vxbaa9WrU2ca8RXN63eteVz4DccUVV5RnYdCtWYvgkYZAk6B5WX/hcn7YYYeVj+o5YcK6VITcvKquh6nPSidmS2kpXw3ODlzjfX/JKezW2ghX9Va3Nk1ppO6eJW0bbJ/xjGcUzSmfnK/fXU89Ojo6OpYVOyacIFmH8WLSHB4w8Msuu6yYu6xL5aieGi3zBwKKo4T9Phi3b0lh4k7mpp35zhRNba29UhtFyqgeNhvfeOONxV2eVnT11VeXPVtMkDmiiWCC1D8gYCJk3HduoDWlgw8+uJzy7kvDTn5Qly6MOjo69kTsqHAC2deB0MHU3/e+9xWT17XXXlvMYLSMGmMmO+/XjN46DA3KmowvwDqAlsBiQnQskvUpDD6hNaPNQvKxzkXA5ErgMEvSAAlZDh4+gKj873nPe3Z9EBDqvKQlBO4L7tkTZkMtjYlX3p3vfOdSL8/EiVbY0dHRsSdhKYRTrhhumDbtgynsDW94QzH12ZRKCIgj7phwCsbMZMxfvPxsVuXdt//++5fNqjQswipaVfJP2q7SSgBl4OatfDQ7woiXnQNZr7/++rIORhjF4y6Q9pgwkZ4QyFP9hKOOOqp8KJDWFBNeTaeUs6Ojo2NPwtIIpwCzDbMWaBvWapwQwczHw82JEeKFQQdh3GNVEo85LxoT7cN6FFMgpi94zlWdaVAQh4AgeGwE5knHXJeyEYIEJrOjq+ecHgRalDgtUu6U0e+kFzBBHnTQQeVT9z6tzqRHgNbv1fXu6Ojo2NOwFMKpZbSYPmYd4UMgEEiO8nn3u99dTlGwP4rGQihA0vDuPCRenW/N8AkrazwCQaUMBE0EE/NdSzLvCWPCqEbi1QIpAocg5NBBo/P9JetK1stsVCY4825HR0fH3oAdF05jIGAEjBtqhm795h3veEf5EqwTIzgY0Go8U5W1BETSFDeCoX4nAmA9ZJGO91KGWUg9QDz/CUCCMNqSdSXakv/iJCSPjo6Ojr0BSyecUhxXzL5m6P7TlJjNOE3Qnggqruf+t2s8s1ALE9f2N7SCJu+0mlktbBYhZdIXl+nQWXgPfOADi6bEq5DZkcCiLaUM3unCqaOjY2/C0gonCGMO6v/WeawFccvm0edgWFoVZwQaFZPfLEjDWpL0kl8rnOpnUN+HOm4gjXlguuN4sd9++5U9WEx4CTwJuYcHdf7Jp82vo6OjY0/FUgqnlgm3THoMjjEilHjJOXGBK7d1Iq7dWTPKepF0ao1nLaEyhqSRd/O7JidhRBMSmO64sfsAoDPxmO4OOOCA8oyg7Ojo6Oj4/1jKNae1MFbkCBlmNwLJ/iKu3bz7OFHkRIaNCKKNwjFDTqywlmR/kr1W++67bzHb8Qwk4JSHcJoneDs6Ojr2Nqy0cHIVogUFBBTPOhqTfUjOs7MmxeOv/p/DY11pXvH8WwS8+pjh6kAzYrbj9p2T07Pp1/94AAJhJCh/fnd0dHR0/B9WXjjBLMae+7QTgodXn2CtipcfoeR3hJONtUnTO9a1BOnQdDgpBIQMgUTwcGzw24Zep6y754BW+6kIsRrSl/aYQJpVj46Ojo69DSstnMLM/R9j7G28WagFUbzx/KZ9OQWCYCJo8jkOmhpTnPvrNcmNlWnRcnZ0dHTsLVhJ4bQVQAZCKsj/aE6EUO244F5CR0dHR8fmogunjo6Ojo6lQxdOI5hFkq4ldXR0dGwPbu7m1rEL3WzX0dHRsVOYTP4fLsaop47eXz0AAAAASUVORK5CYII=;" vertex="1" parent="JZUDk3lIRAv1eScNHPHP-2">
          <mxGeometry x="33.38" y="230" width="133.23" height="40" as="geometry" />
        </mxCell>
        <mxCell id="JZUDk3lIRAv1eScNHPHP-13" value="" style="shape=image;verticalLabelPosition=bottom;labelBackgroundColor=default;verticalAlign=top;aspect=fixed;imageAspect=0;image=data:image/png,iVBORw0KGgoAAAANSUhEUgAAAXwAAACyCAYAAABBcnS6AAAAAXNSR0IArs4c6QAAAARnQU1BAACxjwv8YQUAAAAJcEhZcwAADsMAAA7DAcdvqGQAAEZ2SURBVHhe7b0HjF3Hdf9/tvfel0sul7vsRRRJiUW9F1u27EgpcmzHjuMgSEGAIAmSIECABIiBwAECA0l+iPNPsRVbkWzFVYWmukSx97bL7b3X18v+53Peu/SKIsXt+3bffKirt/v2lXvnznznzJkzZxImDWKxWCyWFU9i9NFisVgsKxwr+BaLxRInWMG3WCyWOMEKvsViscQJVvAtFoslTrCCb7FYLHGCFXyLxWKJE6zgWywWS5xgBd9isVjiBLvS1mJZAdCMnSMhIeHaYbFMxQq+xbICaGpqkvr6erlw4YLU1dXJjh07pKKiQtLT06OvsFis4FssK4K3335b3nnnHXnvvfektrZWdu/eLRs2bJDVq1dLaWmppKWlSVJSUvTVlnjFCr7FsgJ48cUX5dVXX5XTp0+Lx+NRyx7Bf+CBB+Sxxx5T0c/MzIy+2hKv2Elbi2UFEggEpKOjQ1577TX5x3/8R3n++eflyJEj4na7JRQKRV9liTeS/sYQ/dlisSxTLl++LI2NjdLT06OTtSkpKeL3+1X0z58/L2NjY/o7zyP4uHdSU1PtxG6cYS18i2UFgpAnJiZKdna2FBYWSnd3t/z4xz+WP/mTP5H/+q//kpMnT4rX642+2hIvWMG3WFYoiD6WPFZ9MBiUiYkJGRgYkBMnTqj4f/vb35aDBw9KW1ub+Hy+6LssKxkr+BZLHIDwZ2RkSFFRkbp5mOD91re+JS+99JJ2ADyH2wfffzgcjr7LstKwgm+xxBnJyckaxZOVlSXnzp1TS/+b3/ymvPzyy9Le3q5RPpaViRV8iyXOwLePxY/wY9WzaAufPhE9L7zwgk4A4/6xEdsrDyv4Fkscg6VPfD4TuCzc+sY3vqGLt/r7+6OvsKwkrOBbLHGOM7lLRE9JSYmKPT5968tfeVjBt1gsKvqkX0D0cefg6rGsPKzgWywWS5xgBd9isVjiBCv4FovFEidYwbdYLJY4wQq+xWKxxAlW8C0WiyVOsIJvsVgscYIVfIvFYokTrOBbLBZLnGAF32KxWOIEK/gWi8USJ1jBt1gsljjBCr7FYrHECVbwLRaLJU6wgm+xWCxxghV8i8ViiROs4FssFkucYAXfYrFY4gQr+BaLxRInWMG3WCyWOMEKvsViscQJVvAtFoslTrCCb7FYLHGCFXyLxWKJE6zgLxCTk5MSDAZlYGBArl69KseOHZNz585Jc3OzjI2NSSAQiL4yPglPhsUX8MmYZ1T6x3ulf6xPfw6FQ1p2FhG32y3Dw8MyNDSkP4dCtmyAchgcHJS2tjZtWz09PTIxMWHLZhok/Y0h+rNlHkHsqYRvv/22fP/735d/+qd/kqNHj2rlzMvLk6ysLD3ilUAoIAPj/dLYd0XOdZ6Ulr4W8fl9UpRdJImJSeawtkhjY6M0NDRIe3u7/k59SU5OloSEBP19KpcuXbomfuFweFblx/v47LVr10ptba3U1dXF5H2gXX3wwQfyxhtvyC9+8Qv9PTU1VUpLS229uQVW8OcZv98vra2t8uGHH8pPfvITFfnLly9Ld3e3/m18fFx/7uvrE5fLJenp6VpZk5KSop+wcsGqR+g7h9vkSu8FudB9SpoHr0jPeKcMTQxK/0SvtA61iNvnMcKTKFlpWZJoHuMFBJcR4YULF+S1116Td955R06cOKH1p76+XlpaWvQ1KSkpkp2dHX1XhJUu+B6PRzo7O1Xof/7zn19rV1j5tKWuri69dgwtp01Z8f84VvDnARoKLhpHzKmMP/vZz+R73/ue/s7fsOppTAzRT58+rZWX12O1paWlqeVGBV2plTQQ8ovbPyHD7kG51H1GTrcfkQu9J6Tf1SO+oFdc/jFpNx3BybaTptGGJDnBiFp6tkRs2QQV/htZtssd3BDUHwQN1w3CjeX6/PPPy8mTJ1XUEHrcgfxMPUHQcnJy9P1Onbl48aKOCFaS4E9tVwj6qVOn5P/+7//kpZde0lHP6OioeL1eLR9GQhycf2Zm5jUjyjGkVmLdmQ0JpsJZx9ccwb+KpfHee+/J+++/L729vSrsDDWpcE6jdBo3Vggin5GRoRVzx44d8vDDD8uuXbukoqIi+qkrh0nzr3mgXpqGLkvj8AUZc42Iy+tSS94Y/UbOk7RsvP6ATLg9kpGaLdlpuZKXUSDbq26TLZXbpKqoStJT0qOfuHKgLiBoWPJvvfWWCjeiTZ1ymiZixc/UIcSssrJS1q9fLw899JBs3bpVysrK5H//93/l1Vdf1Y6Bz6RjmCmIK991//33yyOPPCKPP/74ko48aT+UBeXCHBjCPjIyoiJPWXCuHPj0wekMy8vL5fbbb5e77rpL9uzZo+0sHkbQ08Fa+LOESkbFY6hNZUToceOcP39exd4RdadiAo/8TsVE+GnUjmuHnxnOY7XwOl7D+5cruG8mjNXeM94uVwbOytWBC9IyfEU6RpqNpe+KNlJTNmrDRxouP2HJe3Uy14wGXMPiDXp0ZODyufhYyUjJ+EiZLmewWqkv7777rtYfLFjcgY5P2rFQuV5HsJjwp44wGqCj6O/v1+P48ePS1NSkz2lZzqJ8YsHC5xxoV1jrXBNuLdoVIx8MKf7uuGuc63R+5m+UD+2PRzoH2pTTQeTm5ka/JX6xFv4sQKwQaCIFfvjDH+rE0dThJI2Tn6cLnYPP59Oft2zZIs8++6zs3r1bG57zWTP5vKXFjGJMlcJN0znaKmd7jsiR9kP6l4RJM9IJG2s+jMVqXmkezcvNz5FrC4cjIyCXx5RHIGK1BSZ9kmQaa1l2peyvvUvu3nCv5GTkSlqK6UyXoX+f6+OgDjGhjz/6lVdeUZdOYWHhtOoO76fO0DFgvTIqpBOgDuHfn21dWWoL3zGiaFcvv/yyHDp0SI0p5itwfU63XVE+XAvlQ3k8+eSTei0PPPCAfsZ0P2clYgV/htDQsDzw0x85ckQtCKwJrHQqEZb5TCsTtyBi8Yp2GEVFRSr227Zt08bHEN7x2cYyhFR6A15pGr5krPrT0j3eKcOeAWOdj6glj+AnhBNvKfj+IA02pI8hM1JINH/OMpZ9TmauFGQXyfriTbKpYotsqdqq71tOMLHKHA5+esf1Rx2iDiBO07GoeS0HdZHXY/FSf3huOu+/GUsp+BhQjHYY6dAR8jujFdoWbWom7Wpq+UBJSYkedIy4Tm+77TZtU3Mpq+WKdelMAyoOQ2iGzAy78dUTLYDoO0JPY52t5cB7qHwcWDgM9RmmY+lgtfEcQsh3UPFjsaKOeIekZ6Jd2sbq5VL/SbnYf0q6xtvEHTBWVqJprIg9B46bqMBfe1RnDg010lidIgyFwpGOwvwzXaKMeoale7RLPD6P+EM+CU4GNJafv6empM6q7BcargfxwheNf546Q/3BeuU5RNa5r9M9f17H4dQ3xJ7HudYL6hifs1guHdoVgk67YoKaNoXYI/rUe84Ft+ZM2xWv5eB9nD8dB2XNGhiukc9mRAWO62wmn7+csRb+NEDUmVRj6P2jH/1IK4hTmZzKNZ9wS5xhKZWVibn77rtPPv3pT2tDZGIq1jjVfVhO970vTa6zRpDdkhBIVgFXN86kaVCO4BuRv5WFD0Ej9j5/UAIhrDWRZHQnIWq5meeMxktiUoLsr7lX9lTfKVtXb5fU5FR9byyBqBFRgoj94Ac/UOHB1TC1444VsVlsCx+xZ8SD+4a2hWHD9ztlM5/lQr3h4DtwEdXU1MjTTz8t9957r8bv0+nGA1bwbwJWAFY9w8wzZ85oyBsWAtE4VEhH9BcKFTYjFlTQ/Px8jTxgSIr4E3lAlEZxcXH01YuPaT7G2m6X9vFGaXGfk15Xtwy5+2XCNyJhI8i/FPmpYj99wefngLFc/QHT8QXN5yHwRh95DJnXMCk8aTqA0uwKKcupkPL8SllftkHWFq+TguwCSUlaugbsWJGIGXWHyBnqD6G4zmhtJhb9YrEYgk+5IPSMlCkXyojoG0a1lAvfR9ksFHw/34Ho057WrVsnO3fulO3bt+uIxpkQXqlYl84UqHBUeoSeaImzZ8+qr5XjypUrWlGdEK+FrhQ0PL6HIS3Cj4uHSAWiejjPqWLBuSxkI3GgE8KVMuYblj53h0bfnBs4LMf6D8mAt0t8Ia8khox1ZkQecLUkRCNxpv67lUvHsUB4rXYCPBd9kstONKrPRG5SQpKMecakb7xXOofbjeUfESw+g0dEn8epZbXQOO4DordwUeC6OXz4sBoK3CfuKcdintN0cerVfLt0HOOFduWsKSDQgXBL2hgjHuq5Y9kvJE5Hi/BzLriTGMHjFuO+AI8I/0rEWvhToBIQ7YAfET8rk7P4X53GyeNSNFQVQXM4DZJKW1BQoNY+VhiTu6tWrYq+euEIhgPSM9YpFwePy7G+QzIWGBRvyG0s9Yg4GxmWpLAR2aiQz9bCd0QeAsGQOcLGqud1EcHHvePcBqf6sjI30TTU9JRMqcipkt1r75A71u2VrLRMSV5Ea586g5CxUhaBQ8AQO+Dnpag/02WhLHw+F2PpzTff1DBLwlCdtuTU6YUW+utx2hOPtCcOgiU+9alPafw+E7srEWvhG+jdGVpiiZEOgVAwfnesaccq4FgKnO+mUVBB6ZicKAasSc6TjgrfPr7I+fRH8n1Yzh2jTXKu76hcGDoiDaOnpcvdLN6wS4wUG5lPNWIfEXMVePMPeJyNhW/0/hr6egOdwLWno2/jdky9L6zmJRzUF/DKhG9M+idMubjH9G/5mfn6uBAQbUM6hNdff13FjCgcLHrcN9wzRDPWxR4c8Z0vC5966qQZcdIhMPKhvvI9lAvHUpQL3+ncEzpk7hWWPqMN2hTnzd9oU4w+luIcF4K4tfC5bHLbIJws0MCqx3Vz8OBBDY3Ex+cIfazC+WM54d/HymdSd9OmTeqbxPWE8M/l/P0hr3gCpmPxjcqZ3sNyvPtt6Q+1SkC8kpIYmTjGaseqj/xsGhEWflSRZ2vhhxD3KdWS372+kD464MtP/gTj029GI7x6Q/EW2blml9xZt08yjPWflhxxHTjnOFswEhAJBAK3BO4b0mnwO0KyHH3B82Hhc//4HNqVsyAMtxYHwskRq+4Szp3oHe4bi7SeeeYZtfbpAPkd8V9u9/R64lbwaawslsIiQ+Sd3h0BpZLHutiDiqMRHs6VRsSB8O/fv18OHDigbh4a2Gy5PHBWLg+ekKaJszLs7xdXYMIIqdeIMZZgpOIvhuDzvD8QkqD+PfLcrQTfcQllpmZJVmq2ZKZly57qvbJ51TapKqwy7539nAfniLuGiUeiS/AFY7UiFvyNerMchWE+BJ92xOgG1w2doDP6dDpC54hFqHPcPx4pBxZ7YTxhRD366KOa+gRDajmLfly6dJwJUCaO8NUTiUNF5WYjmks1zJwpnCPnSgWlA+O6uA5nwQp/q6qqir56eoTCQZ0EPdF2VM4PfigN46elw9UgrtCY+UIc6b90oQDi/pFJ2nlw6fB4PXwnzzuCz1uuvdv5YQq8noN5B5dvXAYn+s2IxS8TPtOpe8Z0QpcVuzOF4T4WPfUGY4FwXRLkIWiMqBCDqeWznHA6q9m6dIhiozwYKeMepY2xsIyOxBnxxHLZcG7OOVIWjPydgzUxXIuT7DBWRym3Ii4FnwUw+FvJU491xgSo01iXI1RQrHxcUQg/FhbWJxWT+P2ZNDKv3yPnu87If374/6TRfUpcib2SlJBsLGpjEV8T6F+CgC+04EcaYkTwNQY/Ch4eLP1bXR7vT0pMkp7xLmnsb5CrPQ1SnFMqNSXrZlQ2iACC9uKLL8oLL7ygZeyMBinrmXxWLDIXwee+YUCRyZKDjpEyoV1RPsuJSH1L1PPnEeOJdRSE2BK/z+QumrEcWb5jkzmAJYzQc0PpsVcSjgBh6WORcODrnw7EtncMdUhLX6t5v18Sg6liSsjIcWxUE/R0aoQOoP9E8EyHjNQ0c40hudJ/VZoHmmVgfEDz808HZwISnzSNH3FkfcRyGQ0uJLgVcWexWpaAB9oUc2AroWw4fzot8hxh1TPxTCjnciUuBd8RQyrkch2a3QwsEq4rGI084KBBTpdR96gMT5hhuD8kQU+ShLz452Oj0aIdGJxTrfrIqCDy862g49KdtlwDMuweEbcv4sabDrglMBRYIMSBEDiTePEu+JQh5YO/ngNDaiWMeIBr4B4zesaQ6ujo0Pmb5UpcCn48QOVE+OeCZ1xkwtRtVs7GiOYrSabWJs3ifHxmpOM1x3Q7iKkgalj54Fivlo9CB4gwrsQO0BH+5Y4V/AUGS5vhLn5AJvawuHkOn2fMM5kok0FjFbuTJOyPsUY85XQoyqAx1PHpfxIun1fGvR7z+mn6gK5jse8ZIzMsZ1xyMxmlLRWI4mKIPfeBcnHWolA+0x2pxTtW8BcAKiSijkXohHaRs6O6ulrTtGId0oA5YlX4ExImTeUwjTeUJEGXOV9fjAm+Fluk7Pg/7Z2ivFFxUsbk3/EEjIUf8EXfFZvouZp6gWGAu5H4byYIGbFRnxC2WK0zCwnXzLU7xhLzJ6Q4JvSYERfWN52AFf5Pxgr+PENlpFJieRDKtXnzZvmN3/gN+eu//mv54z/+Y83QRwPmNVgosVhBMdISkyclIXFSJkMJEphINoIfWy4Mc2Y6ycyjA5O3TgqGqfA6X3B5iAHnyBwTvnCyON5xxx0aacWkoZMuO14FH0veCZ9mnckXv/hF+aM/+qNr8fGMoqcboBCvWMGfBxzrAwGnQhK2dffdd8vXv/51+cxnPqOr9ch7wz6bLGr58pe/LJ///Oc16yURALh8Yso6wZg3B9koVVSN6If85jBWvmpNDBj7dErJiRrk+RHR5/xw7Ux17/hN5zrqcYk/FMlpE4s4LgomO6kriBkrPVk9/dhjj8mv/uqv6kG4JNa+I27LoRObLU67whVK+axZs0YXQP3Wb/2WlgkLDGlDn/3sZ3WXuCeeeEJH05SL4zq1fBQr+HNkqrWFq4bhJSvznnrqKbXoqYT87qQ4JikTjfm5557T1YxUYtw+NGJY+gbM9USuyTQ3I/oRKzoUMJa+m92qENsparpEJBrFT04iQsac3RSfPGc21crHleM11v2YEfxAjAm+I2g8OpEg1AeMgt///d+XX/mVX5EHH3xQDYZf+7Vfk6997Wuyb98+dWM40WW83/mMlYRzTcwJcK2kAkfc6QR/53d+R+655x7ZsGGDLiykHTGKpowwqhgNYfHzXkR/6dtU7GAFf444fnhEm+3T/uzP/kwteyqkk4/nRqxevVor6p/+6Z9qBaaiUrEZISxl4yUZGoeDuk4SQhI01n1gLEXCgcgWhbGCjkBU8D9eZqRXmPB6xO3zRp+JLbBEsep5xCj46le/Kn/4h38on/vc567lQ3LgZxZEIWx/8Ad/IL/7u7+r1j51hTqzkqzZqdfEaBnr/c///M/lN3/zNzV3/Y1y2uTl5cmOHTu0Lf3VX/2Vdpb4+Nk+0pn7sFjBnzVUSioRQ3CsDIaY5B5B6PHbl5WVqdjfLGqBDoIKSQXGR8t7seSY3KWiL1VUBgLPv6mo6IcnxRjK4ncZ4Sc6MVY039wHBJ8FVVM7Sn4kJw8Ttb5gbPl1OU/uMRP4bFZPSl5cN1j21AesfAR+auinM3pkpSfvwfLHXUi9w1hgBLlUdWY+4RooG9oBbYlrxDDau3evdnC6wtXUvWHXsDT1NcqZttPSP9YvCYkJ+jc2BuK1Dz30kJYr5eOMiGYzEnLaueNW4ryYW1muWMGfJVQEKiebi5OwjOE2lQvLjE5gOtAZ8FqGplh1WDJMRlGxlt5i+7joB03Fd48b0Xcn6IRurIg+50YOIPP/6DNY96RLZkN0tkmMLSFEQLjH3HcsUUZ5X/jCF2TLli3T2qweccfP/5WvfEVdP9QdjA5ntLmcod5TNrSDL33pS/J7v/d76sZCzLHqg+Y+u3wuaelvkWONR+X1s69IY2+DjHvHdFEdIz4im5jspnwoW9yoGFgzLR9e6wg+Iw648847tdNdrljBnyVUAoaKhFqyPRrDzLmA+OPmwepniL+kgp8wKQlJpmEkhyOPjrCbHydx6ThunRjTlkgDjQzdseonvC4ViFiCesPIDysRFwQCMh2RvxmMEhBHZ2SAKPIdyxXOnftIHp+puXz85n72j/XJB/Xvyfc/fF5eO/9TOdN+SnrGeuTghVfkpWMvyJsXDkmr6QjY2J7PwKqnc3SsctoUz08HXoe7jffgVmLe7S//8i/1fi3l1qJzxQr+LKFCUBmoUI77Zi4g+PghsU6wRObaaJ2GM2uMBa/eKCZoOdSiN4cReiZwsfLDMeZBwNIPM9FsRB9rzxOI+O4To6mcIyTo7zdztS003BNEDIuTSXwsc2cCdjYw0YuhwMiSughzuu9LDOfOgchycJ/otIcmBuVEy3E51nRUzradlsa+q5rVlUyozQNNcq79jP79TNsp/Zs/GNm7FkOM0QHusFu1Cf5Gm3aMLcfliqsNlxtzdJQ1Zb5csYIfQyAEjkUzF6i4dBocc8boIla+c/A7OjoxZBpijK2+RegnTS+E7AdDQdPoA7r3bcoUXzjRPSmJyZL0kU5gZcB9n3NHH4NgsbcOtsrLJ38op41VTweQnJhiDoysBElNStMR3dX+ennz8iF569IbMuGLuGBmAuVGOKezrwFCTwAG0Xa4lTDGps6rLEes4McQVDKOmAXxx9KfNNa9z1jJwaRrqZFjAcIu3X6vsfo8EjLCn5qUosJOauS05BQ9UpJif2Mby3UYIeaOJWMQ3fDeRdJum79Gf5o+jlXPQkmEHn8/8yl/8Rd/oZO+zLMwGmO9zEqoN1bwYwgqX8xbZwg+hBIl6DVWvs+ct7Go+f9SEzQjGlbUkj6BybtkY43RSNWqN0LPkWzE37L84D6mJqfedKcy/k7HjtWfRKceff5m0M6YHGYUjNsHt+zGjRs1Yo7IIBa5sYIX3/98jLpjBSv4lpmD6CeGZWwkICNDfgmafyzQsliWA4g9Qk+oJQESrG9gIeTf/u3fatQUwr9SsYJv+TjGPFJ/PYeKuzmYsI1CTH7ADIPdbnO4QurTD4eW/3DXEtswknSisG5GMBwyI73IBvY3Ah89lj3rHPDLszoXkSfmnxh+op6mLnhbaVjBt3wcBJ7kaVMma3WOM6rpYeLbfUHx+Un9HBLP2KRcW9s0pWOwWOYDNszHFZeWlKpum+tFn+gsxx3KJH1yEhvpR8DV42xfitAz6Uo0E4u4SHtCrD+5eFjXcKMVvCsNK/iWj5JkGsmNaoURcmexVdAIvtsb1P1lfb6w9PX6xOXCrWNssISgpmKwWOaLtJQ0KcoukfWlmyU/o0C8QY+urHZggt4f9osv5JM1RdWypXKbeU9kXQxiT3glVjtpFoijZ5EkC7IIsyQ0dq4h1csJK/iWj6CW0Y28M+Y5LCmfLyBeY90j+lhU7Iblxcp3h8TnDUvIPBcLVj6Ttkzico7xBBYtx0oCqz4/q0BuX7tb9tUdkF3Ve6Qoq1it+WA4ILnpuVJXul7u3Xi/7K65UzenZ4IXEHxi53HZsHiKeHpSmLBYErGnI1jpVv1UrOBbpg0hoxNuv3i8H9/42+uelIkxwkpjQ2DJkumPLrWPRShLZ63EXDol3ktYofM5K0HwOX8mUzkoJ64rNyNX9qy7Q5687dPymds/Z0S9VjJS2U5xUirzq+RA7T3ypbu+IndvuEdWFa6SlCT2Yo4IPovb8NN/61vf0kfcOfEk8lOxgm+ZFghKIBCUyZsIuscdkPExtuKLDcHHKkxNTjEWIKtuYye9AkKDQLMh+oULF+TUqVPX8rTMBjZFOXbsmJw5c0ZaW1uvif5yBYHm+PGPfyzPP/+8NDY2ajSNQ2pympTmlcnD2x6V5/Z/Ub5819fkUzs/LVtXb9N7bvlkrOBbpkUwOKmunJtZ8IFAWDyeoPg8YQkGll70ib1n0RUWfmiKlc+ynKQEFl8tTdVHjBFlokUuXbokBw8elDfeeEPOnTsnQ0NDatXeCnI4IfSI/FtvvSWvvvqq1NfX6+Kh5S74+NOZWD1//ryWzc9//nN5//339fq0YzRVKystW9aV1sqO1TtlT82dsqFik5Tmli7r614srOBbpkXAbwTdhRvi5mLO3ybG2I81Nqz8G0EenbTENElOWDprECufLKkI/v/8z//IN77xDfne974nV69enZa1j7A3NDTId77zHXVTfPe731Xrnpw8y130OH8En1Wvp0+flm9+85vyr//6r/Kzn/1Ment7P9IhsggrLTXdWvYzwAq+5eMQkZMcluTUSUlOYZEKPmJ8qdG/34SQGQWMjfnF6469DJWswI1Y+kYQVRSXXhgRfgSOrIxHjx6Vf/mXf5F/+7d/k9dff12Gh4c/Im783NPTI6+88or8+7//u/zzP/+zCiLuDjqP5Z7j5XooG6x9EpWxv++bb76pHSPX/sEHH8jo6Ki+bmaJFCxW8C0fhzYUXXRFzLOPqJzgrSc/cfd4jNjj2vGbEUGMzN+a85hUPz7zEDqJGyPnhaDhr0b029vbVdRwYbz22mvX3Bjd3d0q9IwG3nvvPXXfIPq4crq6urQzQxRXWmghZcKIhSyXdIiMaLDyf/rTn6oLjHkLRkQjIyMaX2+ZHlbwLTfFFwjKhMcvLldI/L7pR7t4vSEZHQlIMDD99ywGAeK1jfATXhorIGxYsyToYkEQ7hqEn+Rd//Ef/6Hij8Dh1vj7v/977QjYwJx9W1kotNIs+xvBNRI+ySpYJrsRfsri29/+tpw9e1ZF3zI9rOBbbkrYGE4kSGMPkVu5c6bi9QZldNwrgWmMChYTJjQ5Yg1H9LHSOT/cN/jymcg9dOiQunguX76snYHj5uG1vCcemFo+jGgoG4T/5MmT8sILL2g0DxO8uH6YDLfcHCv4MQQVmyNWRCkcNGLv53yiT0wTfyAkEy6/pl7A9x9LYN1fv/9tLIGwYbljwePKQdRwX+DTJx87bo54EfobgbVPGXB0dnaqC4wJ75dfflnnNNra2q65eWL1Hi8lVvBjCMQe1NdsLJmlBuEmFPNmsfefBPl2hoY8MjoWWxYXy/BdAZcuxY91sGiZkF2Jk7LzAeVCJ4i4nzhxQv7u7/5OJ7OZ57g+oscSwQr+LHCG3fhSsTTYmnCuDRKxZwKPSSr2zORzWaCz2FYKeUuSJFlGRt3i9viNQM7O481EqcvtV0vfbyz9WFmBG5aQ+Ca9mi+IRTw33lDj4zj3h8fFsh6x5J3DMQYWEq4JQ4Pvm0l95vXOyMP5jMUqH+4JEK2Edc9CNtw7hLvyyMQuk76WCFbwZ4hToWn0VCQsjPlKwESjYSjPLjt0Ik7DWYzGA0hKdnqOpCVlybCxzj0e0sxG/s0UTtnnD5lOg3Ly6ahlKXGuA91MTk6UjLR0yUwjj8r0hA0BJBoGgZmaymCl4NQzDlxKWM/ThbJhUpWDOsxnLJboA8LPd2Mo4c5599135R/+4R900ptJbnz7LFZbafdsNiT9jSH6c9xw8eJFXcnHJBiVgAozHRB5JoVo+KRT/fVf/3V58MEHdQMFx/qbKzQ0Z6NkFp90dHToaIIOhc+fznfQ2Hgv+b3Zl5PG4FhCnwQfjdWbnpQh6YkZMu4bk56JLm0kfG/iLBYrYdnjFspIT5V0IwYaNz0ZvQbnMRpLTVvku27WJhk1XD9SIGcOzwPJ0vh9KpofPRwUf9g0+MmgVORVyKe2PSUHau+W1UVrdNHOdMrUERVGdWRdJA6cDt+579P5jFiFNsBEKMKN8UK64D179uhocybXRfkQaUQoKZ9HveUzF7Ns+C6+k06L73esfkJYuVecI0e8YgX/FoKPePIaxJ4GgLiTaY+Me48++qj+PtOG8UlQUSsqKq5ZWZwbYs85UIE5Hyr0JzFbwUd42RA6I9k03PQCSUyKuBKSE5IlOBnStLRmsD+ja0Wg/cGQ5GSZz01N0ZWuiyH4PIe/3hPySpq5doS+rrRO9qzdIw9ufEgzKmanT/++cR+4J5wfZemUJ6LPvXE6xfmqBwsN50s9YbTCtZFCeMuWLXLHHXfoNn9r1qyZ8bUwKi0oKNDPpc5Rb6mH1FtYjPLh82kf3B+MM6J5EHssf86F57hm7iXXfau2tNKwgn8LwadyMBykYW/atEn3uvzc5z4nd999tw4hEeX5rMSOwDsN8Pbbb9dKiaXv5Fq51XB79oIfgVziZfnlsrVyq2wu26LfOeDuk86JDklNTNNcNDOB4slKT5HUFNMQdU/SaHktoOBj2XuCPhkLDEu5uZZHNzwmz9zxrDy6/XGpyK+QTM20OPP7xj2nw6cuUKaETlI/MAj4faEFbb6gjnBfqSeMJski+cwzz8hTTz2l8e6zuQ7qJSMEdpKqqalR9w7hpNRbR4g/qa3NN47w054Q/uPHj+sCLvz9jKJpFwh/PGEF/waCz3M0YobvVGA2TWCY+9hjj2ljZ8NjKguVeCEaOJ/JOVFZ+Z6ioiJN6cpogkbFkJnGynlSqa8/h7kKvn6/scTZOSgjNUOKc0pkdeEaWVOwRlXZ7XfJmG9MX6MW+zRg8hdyMk25OVNHCyD4LKzyBN2SnZYjtcXr5OEtj8gjWx6VXWt2y6rCKslKy9Jznu19czpk575s3rxZVq1apeWLJelYs7xuIerGXHAsegSP8925c6eOUp9++mmt41j1OTk5sz5vrTfR8kFI2QCc8uFzeY6Eb7jCnDq7GOUz9Tv4mTLgPFiwRVinMw/nTDqvdKzgRwXfGeJiqVEhWflIg2bn+gceeECefPJJFXuGrFSOxYDzQuBpOOvWrVNXD99Ng6UBcb4MUa93J8xV8B0QxnSs/bxyWZVXJZW5q8x3IbAhCYSJIDICwqNOhprvdyz3GxAIhvTv2RmRobRGx8yT4JMjh5QJnAedVF5mgawvq5Pd1XuM4Buxr96lIxauZT7gWp37wigMvzXly32h7gAGA/eBa3Xuy1IQKc9IznzOBWueOlxXV6f1+pFHHlEXDtdCPZkv+Cw+k5EQIwa+23GnUB60O+dnWOgy4vu5R3wngk/7Z+TBfSJQgnKhza90rOBHBd8RSXx9VNDdu3fLb//2b1+z6rECeN1SwXdjfTFUPnDggFZSzpdrcSx9XkPDmS/BnwobSuRm5sn68g1SYyznksxi6ZvolV5zMBlqvtmI+Cf7Q7VRG71OMeeampI8b4JPp+MLeyU1KVVW5a+Wz+z8rDxkLPvdNXvM6KTYfN/CZpHEd8192bt3r4o/wt/c3Kz3gA6a715oQbsZjtgzWqUeEGzw7LPPasABdXy+Isw+CeotHcxtt92mRgtRM4gui8mol069XQz4Lq4Xgef7ORfKh/bESGSlE9eCTyOgh+eGUxEYmiOQHPjod+zYoe4ben7+vpTQIBB1hsp0PkwU0zHhi8RiQ/SJHmGEwrkiNoR3zpfg8/2ko8XFg1ukwFjRbETBZGh2Sra6UUZ8wxFrX8X/4+WFVLM1IhE7mcxDzEHwsepZPBUyow0mX9eXbpKda3bLnev2ybaq7VKRXyk5GTnTjsKZCwgIZcx9QdywbBE2fqd+4TbA1bPQwjoVypHv5JE6w2QsFj31gXkhxI06tBjnxHdwDpQNHSLlQ7uio6R8OE+OxRB+jCHaCO2De0Y5MOdAW6E9rXTiUvCZSEL0EUgqAILOzaZRfOELX1CxZ6i+WA1iptAoEHmsSlxOWCtORALXA4TFbdy4UTdqprHN53XoptI5RbKpYpPUFNVofvmxwIgR/CEx4wxVdoTGnKiKvwPP4drJSk9Twec6In+fmeA77psEM6Jg3UC1OYe9a++S/XV3yc7qXZJnRiIpyXPr4GaKdoimjJnUxf1G2VOvsPYRF0QGItcXcYEtBHw2dYBHRhfUE0Tt85//vDz++ONq1WPNcq4LLa5T4bswOvhu/PoYKvxM+TiC75y71ot5Prepn+1Y+Yg8Yk8b4XwWy1W7lMSl4BOby9ZppJzFEmOIS+QNMfXc+Fiw6KcDlZeKy1wD7htcT1gtCD9Ly/Gf0tBpaPPdgBxSU1KlzFj668s2yIaSjZI0mSgun0sGXAMazXMjSz85anWnGVGO/H36gs/ELKkRstNyZVPpNnl4y2Ny74YHNMwyPytfRyFLDXXHiVjBhUIHwD0gQgSLltHYQggugoZw0tnz+fjnCTYgAgeRdYQ+FsAIwcpnFF1dXa1GC+3yWp77qDDPF5Q75YIRRzt57rnndF4O9ygawPkshzY/V+JS8HHhUMEYWuJ3ZdKKBsGNp5dfLjfeaRRcizNUxo1Aw0ZksF6IxFgosYfkxORrLp6irCLJNRZ3dkauZKZmGHEOiDfoFW/IFznXqPhjnSPyTOAi/rcSfITeZz4rwYwfslPzpLZ0vWxbtUN2VO2UzZVbZVXBKt3QOhbEHrhWhBXDgXvBvcF9wb3hZ8CH7bgSef1s71GkvCZ1FAHUYUanCJnjvsF/zrnEitgD50K9xVihbCgXp5xwXTK/hitsLuVDB0gZ0wnyPQg9bYIR/P79+7WNMLJ35hHigQRTWW5iT1kss6N/rF8aeurl5ZM/kLOdZ2XAPShpiYh7RHBw42QZC3hdRZkR6nT9HdRdYxqp5u+ZUi2ZmHX5fZKXViDVBet0A+vaUiNi6dnRV8wNXER8b6Qjigh2UsLC+P5Z9k+O+x/84Adq6SN6sxU1R+w5mI/CfYOfnkADhI3RnhM1tFwg4yUZMEmAxqYwjlvVKaPp4NQdypcD0acDZKLamZeLV6zgW+YdX8AnE94J6RzpkMa+q3Kx86IcbT0mncMdOomakpgi6cnpko8FzESeeYSpgq/hlqGweX2C5Gbky8YyM/QvqpHKgiopyy3Tjazny6LvHe2R9oF2mfBN6Cgk24xY1pbWSGF2UfQV8wfzRsTrNzU1aepjBI4EX9eL/62g2eKiQNRZpEccPWLGvA6/M7JA7Bei01pIiJJjnQkuV2LlP/zwQ3X1YPE7o5RPssYRd9w3zGnho2eOi+ggRjm4axlB4L6JV6zgWxYUrP2m3qtyuOWwXO6+LAPj/TLkHhZPwCPpSWlSUVBkRLzQvDKyD4AK/mTIjAZSJSelUAqyC83fK2Vrxe0q9gVZBZEPniNun1tGPaPSP94nHYNt0j7YrnMPCGS26UyqS9bqQq2S7FKN9iE6ab5A3HEzIPjsZYvok/se/7WzruJGUVU8z3uBvzNBzIQsE8Sk+sAtiUW83N0TXCeTuXSEjIgIsmCTdsIoKR/KAOF3OjNe77huEHRGOriHEHoCMRB9nrNYwbcsMFQvXCahcFCa+prl4JnX5a3mQ3Kp/4JkJGbJ6oIKY7mXR/37WPbmSPBKkRHanWV3y/Y1O2VtSY0kmb8n6DE/FmvbQKuc7zgv79S/KYMTA3qOv4T5hgSpKlitE8KbKjeZjqky+rf5QcsFV5Wx0onZf/vtt9WNgbA5wnU9CJ3j10bAmHi899571ZJ1/NDLzaK/GU75cM1Y+OS7f+mll7SscF8xGnLmJHgN5ci8CK6bhx56SJ544gmdz+B1y3Gks1BYwbcsGuOecWNJt0nTYKM09NfL+bZzMujql0DYK+VGwEqyi6Uos1yqi2tMR7BWKnLXGOEvUQt7Phh1j6r75mpvg3QOt0vXSJf0jfWKN2CsRnbBcnz45h+up6zUbCnLLZWK/FWaWbOudL2U5JZoKOh8gVjhrnDcPIQL48ogwyNNE6FCyLFsCShgEn7btm1qzSP0uG+cieCVCtY+kWe4ebD2L1y4oKMjJ6yaMmACljJhwpqINUY+jthbfokVfMui4/V7pNuI7bv178i5znPSOdYpNaVlssZY1FX562RLxW1SmV+lqZrnapkhCG6/W8W+a7hDmvobjWV/ToZcg+IOuHRyNo2U0KkZkpGSIUzdcn7egEf8QTaACWlenrLccl3QVV28VsrzKzXWn1QNNwo7nS3E6hO6eeTIEZ3YxcWDP5oy4CDShFBLJmQR/XgEC//MmTO6z68zGsKlxfoCopKIusGtZbkxVvAtiw5VLhAKqBD3jfbKwPiA5GflqogyQZuWnK6pHOYq9nyPz1jvV3uvyocNR6R16KoMuQfNHxJUyHEz+UJeWVNULVtXbTcW/AZzXn5p6KuXCx1nzWigV88lKZH1BOZczH9lOeWyrniD7Fu/z1j9qzWz6HzB+SJghFhi1eLGaGlpuSZqHPjtETTi/OMRyoLRDi4cOkRGR4g8oxzHzbPc5zAWEiv4liXFY6xpjtTk1GvHfDA4MShdQx3SMtgsrQMt0j7QIWO+EfEFveqyIcqnMKtIRbu6uNo8VusELR1B/0SfeU+z+vnbBztkxDNsztGtLp+MlEzJzyiU6pI1Ul201nQWa6WyYJV2VvMNKbHxS+P2YY0FB776uXaEKwXEnxEQkUqOP9/yyVjBt6wYdGeroLGQjTg3Gqv+XPs5Odd5St03iQnJmlyNkQN+3XJjqbOAa2/dfs0Gen0UjtvnUsE/0nhYWgdbZGBiQD+fkQmHscelPK9StlXukG2rt8sa02mQY18/XxeTWSyxhxV8y4oB11Brf7Mcaz6iE7Jj3jH1xSPQWO746CvzV8ltq29XXzwboeRm5uouX9e7AXg97qAxz5h0DndKU1+jnGk7qcLP6mEWkTEaweWTb6x7rP09NXs1lHO+QkctlvnGCr5lWRMIBmTEPSxtg60q8h1DbbrKF7HHIiecMyc9V0pyiLapVH99XdkGTZtMls3pwIQv0TxXe+ulfahdeka6NX7f5XdpOCdWPWkl+FzSPLBegO/JMZ9Pfn6LJVawgm9ZliC0wVBQxo0FXt9zRQ5dOCjdo11GhCfUdUOlpmrj715bXCN3rt0n21bvkIqCisgHzJLW/hY513ZWjrZ8KD1jXWYkENZIH76LdM156XmytqhGHtr6iIp+djRF83xG81gss8UKvmVZ0jXcJefbz0rLYJN0j3TKsGtUJ2SJsgmGA8biLpaqgmrZULFBJ2TLc8t1A5e57nqlK3TdIzLsHpLm/ma50H5eOkfazIhi1Ah7inY2zAeQuZOFW+uK69THX2RGFBbLUmMF37JsIPXBiGtYBl2D0mLE9mLHeeka7ZBx79g1sWXitDCnwIjtGqkpqpX1FeulMLt43qJ/poJr50LHBdPpNEqX6XSGJoajcwZ0OkEpzCzUTmdL1VZduIXbJy8zf0ZpGhjFEL4KZBbV2H87KWyZJVbwLcuG5r4mOdt2Ro40fyC9Y73qRmHylEd/2Cd56fmyrqRWHtn2mFQVrlEfPa6UhQpj5HtZocsK4qs99XLw/GumA+qUCd+4TgQTxsnkL9/PpO7etftl+5odUlm4KvoJt8blndA8P0AK6PL8ct2AxmKZDVbwLTEN7pNuY0lf7rqo2Tb7x/tlYKJfQy/Z5pAJ02JjwW8o3xSdMF0lq43Yz2c2zVtBFBATu0wY42pqN4/MK4x6RqITx+zMla1pIkpzS434RxZ64eZhL4HrwW007BrSEQ3Nk9fQcRFy2jfWJ8W5xbKutDb6aotl+ljBt8QkASNu48a6belvkivdl+Vk6wn1myOguDZIu4DFm5+Zr5Oku9feoWKP73wpGRwflLbBFjnecsyIf6eKPgvLNE2DGQ3QQVXkVcodNXdKbdl6PWc6A2evAOAzyDDqDfi00yrOKRI2gXH7XZp9tCi7SGqM4PO+hXBVWVYuVvAtMQkx9UTDnGw7Ko19DRIORxZWMSEbDoci8fRVu2T7mtt0tWx6SoaK41IvesKFg8WPyBO7f67tjJzpOCmDrgFd/IXg02GRqmFL5Xa5vXqPbF+9XXIycqOfINI51CmnW04aoS8hm4OGnNJxkMbhnk336X4DvGb7mu36GotluthYMUvMwdaIA+N9cqrtmHQMtauly0Qoor46v1ru3fiAPLT1UdlVs0dXuDIRil87Fla4cg5MrLL4in1276jdK49se1z2194t5TmVOrGsq4EDHmkeaJJzHadkxD2ik7OEmo65x8zfffp+ndw1HUNkhBDZBJ1RDd+hLi3TuVgsM8EKviXmQODx01/puaSblDABinVLxsqtlTvkwc2PGtG/XzZWbpLcKZZxrFGYXShbVm015/uw3LfxIdlUvkX9+FxLirmmQXONV/vq1V+PyDPYxm+P+BdkFaq7hpEAHR0Hq3qdeH4nlbPFMhOs4FtiDhZTYeli3WL14q+/rWqn3L/pQXlw24NSWVAhKcvEd02ETqoZfVSXVMvjOx83wn+/bDbCz2YubLmCb37YNSwTXpeKe3Z6lgo9W0SSp59rX1dWazq2PHXlUB78C0nQir5lxljBt8QUiFjAWLgcCaZ6ImmRiUtSI1RIaV6Z5q6fzspVxBHhHHGN6IEbBOuZb7kZiOrg+ICGQtZ318uZ1jNyuuXUtYN5hUudF6Wpt1G6h7t0XQAumk+CcyXSptycP+kdyNKpoaJG7JlBIz0E8xN0cE6cvaaGMOeKW2dV4SqpKV2n7+8f69UcP6sKqvS1FstMsIJviVlIY8w/LF8nR/50wT3CXAD59iNpjltlaGJIF0ZdH6fgpGnAoh6aGJSmviZdxXuk4bAcOv8LOXju4LXjjQuH5L3L78iJ5mMq/G0DbVHRj1jft7K68eFj8XNd18NzjFzI/4Oo0zExN5GfWSB15bV6dI10iM9816byzWY0MH87b1niAxulY4kpEMz2gXY51XpCXj33M53cJM7+/o0PazQLm4tPhwnvuK6EffPKLzR+P9H8Iypmc8VW2VC58SOdByKPRX+u84zuxMXKVsJCmSjF4p8q4ljrTJry/pRkom6SjSAXSk1Jreyt3afi/Emhkle7G+RU20l58/IhcfnGpchc25Pbn5ItVduEzdqBSVrWHzA6waeP+NOZ8L1k9yzMKpQCM0rg94VaVGZZmVgL37IiQaxHPWOay76h94o56rUDIA0D4gmRaKABqe++oimVT7eekotdF4yFf1Xah9uld7xHRrzDmifHOYY9Q9I/0auJ2tqGWqXRvPZi53ntoI42HdbIG3Lps7XibMGNg/uGSJ3MtCwj7HQsqbqYrDS3XPKN4OPmsmJvmSlW8C0rFuTQ2OKSnJBqRJP492RJSjBCGXWnePxeqe+6LB82vi/v1r9pOohh81qE1DQL9a+HI8cUC39yMrI1Ytg8JiYk6Q5YfFO7Ef8Xjj8vh6++JwNjAxqLP1cKs4uktqxWbl+7S49NqzbrQrOZuLYslqlYwbfEEUbopxjFpFI+3X5SLfVk0yGEw5NqUdeVbJCHtzwmz+37onzlnt+Rr97zNfMYOb5679f1+PzuZ+WOtXslOy3XWNsp5mMTJSUhTZO6HW3+UPPpzBUseFxIbM6ih/nZWvWWuWAF3xKXEFmDn7x1qFnDInGZ4HsvzSmVnWt2yb66AxrrTyjofXo8oMf9mx6SB8xx94b7ZM/aO2RT5WbJy8hTMU5NTNNJ4svdl2TcO24XRlliDiv4lriEyJqekR7dIBwXDu6Zwswi2Vi+Se7f8oBugUj4540sasImWVRFWodn7vw1fa0D2x+Oe0dlwjOukTsWSyxhBd8Sl/hIb+AnRDMSGYRPnlz6LHBykpJhtd8MImR0o5PMfM3OSXx9eDIogbBPvCGPDE4MyLhnIvpqiyU2sIJviUuYjCWShulYIpM1csdY8yyAcla5Eps/dcL2ZrCVISMDslgy0UrGTt5L/h+LJZawgm+JS9JIr5zGzlNhSTCijuuGRU0XOs/LiaZjupKWhVrTCa9cW1Ij9266X3593xflywd+W57d/ZzsrN5lM1laYg4r+Ja4JEs3JClSNw5x7kywsoK1Z7RLTrQel8NX35e3L78hB8+/IocuvC7vXH5LjjZ+KOfaz2q6ZrJ49o326VwAYZJleeWyvmyjbKzYIrWl66Ugu1BXyVossYQVfEtcgp++JLdUSnLKjOhnqesGn/2YZ1TOdpyWdxrekp+ceVm+e/g/5fnD/y0vHv2+/Pz0T7QTONZ8VDcvv9rToKkVItku/ZKUFEmNnJ76y6yWFkssYWulJW4hj/7DWx+V/bV3SWl2qSQkTIo/6ndnkVZakhHv5EyN0WcEQN76loFmOdV6Ut5teFtev/iK/Oj0D+W/3///5Dvv/6ccOndQXUH+aFZLiyXWsIJviVuwxuvK1svO6tt1i8QtlduktrROVuVXaYhmVmq2xucTx+MP+WTCPyFDxprvGe2WjuF2Ff+m/ka52HVRzraflpOtxzVFw5n2UxrjrxkwLZYYwgq+JW7B7cJmJBsrN8tTu56Wp3c9I49ueUJ2V98ha4vWaogmryFNgjfoNqLv1S0WnXQLbE6exuYs5sCl0zTQKK9feEV+ePxF9fFj6VsssYQVfEvcg6gTd1+cWyK15etld80eeXDrw/LZ3Z+XLxz4knzl3q/JV+/5XfmNfV/UlAqf2vEZeXDTI7Jz9S4py6nUmHxCMPkcXEHk6Pnw6mGp77kS/QaLJTawgm+JS9hVq3uk+9rRP9anGShLjOiTgnnzqq0q/AfW36176JJe4Z4N98td6++R/XV3yd51+2XX2j2yddU2qSleJ8U5xUbskzQ5GxuaXOq6IO1DbdFvs1hiAyv4lriksbdR3r74pjne0OOD+vdleGIo+tePgxWfmZapC6sqCiplXdk62VWzW57Y+aR85vandZNyEpyFJkPqux92D85LAjWLZT6xgm+JS/rH++RyzyXNf3++86xc7D6n4ZXkyL8ZuGwQfuLucQGRWiEnI0cqC6t0+0XS7uDfZ5IX0beROpZYwwq+JS5xB9wyONEvnaMd0jbcqvnse8d6NMvlTGGBVVpqZH/ZSCqGSFrjG21jaLEsJVbwLXEJYZeEX7LHLOIcmpyUy11XpLGnMfqK6TM0PqibntCcyLr5yz14b77VocWyFFjBt8QluGDWl2+I7j+LL0akbbBF95s93PCBrqLtHe1Vv74mU/N7rh0ev1tz6HcNd8rV3no50XpMtzlkAxU+iPTJqwuqpTjb5tKxxBZW8C1xSWXBKtlYuUmy0lhJi/tFpGes2wj+cfnpqR/J0cYj0tBdL60Drbqx+cB4/7Wjb6xP2szzl7ou6u5W79a/rYut2PqQzoPEbJsqNsuqgir9LoslVrCCb4lL8LuX5JTK7uo7papgjW5cgiuGVMnjvjHNp/OLi6/Jj0+/LC8e+5589/B/Xzu+9+F35Cen/0/evvymnG49LWOeMU3AFggHJDc9T2qK6mRr1XbtVCyWWMIKviUuIdqGlbRbV22X26t3azx9aU6ZLpxy+13Sa6z95sEmzYx5pfuyxtX/8rgoV/uM9T/Uotk1fQGfZKVmyZrCNfp5pGqoKlqtCdoslljCCr4lbiGsErcOCdR+9c7nZGP5Zsk0z3kCLk2hYMx9YfvDGx24bgjBDEVTLRRmFcnddffJo9sek7s33aPhmhZLrJFghrC33tLHYlkkCGtsH2iXU60n5NVzPzPi65Hi7GK5f+PDsn31dl0FOx3YvKSlv0l+dOplaRloUpHeV3NAdtfcIbdV74xO1kbA984OV93D3TLsHhKXf0LG3GPi8rnUeidPTsAcISPsbJTCKCAzLUs7BzZRyUrL1q0Oy3LL9ZG/3Yyr3Q06Mfzm5UPm88elyFzbk9ufki1V26SyoDL6KotlYbAWviWmIHY9JSlZFzch/kymkpp40DUQ3Sd2XLcPnE/wvyPadeXr5Y51e+X+TQ/J3RvulX21d8md6/bJnpo7TUdhjrV7NKvmnrV3yl7zvKZd2HC/3L3+HnUL4bO/mdiTgG3MPSr9E/0a4aNhQazUMv+lJKdoJ2KxLDRW8C0xR5YRzaz0TJmcDKlFjfV92lj8J1tPSnNfk4ZFLjTkyq8qqtJOYGvVVtlpRgW7avbI7Wt3yfbqHbKurFZ3ucrOyJFk0zndCnL3NPQ0yInmY3Kx65xunUjj48g1n5Gp2y1aLAuLFXxLzJGemiH5mQW6G1V6SoZa9KyMbeq/Ku/UvymHLhw0wnlcFzvhcrkR+NWDoVDkFyzpGTI1hQIplDknfP4c5NHneZKt6Yram3y+x++RnpFuOXL1sBy6+At5t/4tXdFLh0VEDzttcY10LnyHxbLQWMG3xByIKZOgG8o2SUl2qQorE6i9o926ycg7V96WD69+IPU9l6VruEvDIukUmI7iHy4g/O+aGyccNJU8Us1JboaQLyScA+6bUfeodA51aETP+w3vyfv178jp9pPqmqIDSk9Ok4r8VVJbsl7yMvK1c7FYFho7aWuJSbDc2VIQS/5060lpGWzUyJmUxFRJMuKInz81OUWqC9fJhvLNcvvanRpmSefg8bl15yk6hsGJQZ2EJSnao1ufUJ98TWnNtNwws4EJ3sHxQTnRdFwa+q5I50ibpksOmA6JzicQ8ul5bqnYJttX3yYbKjaqhW8F37IYWMG3xDQt/S3S3Nco7cORFa/9Y/0y4ZvQDUfCkyEpzCyR8rxKWVtare6WJGPFI7rN/c1ytbdBrX0sbl5P6OW+2gNSkFWg1v58gpumb7TPCHyHtA22ak6evvEeGfOOqMuH3DrZabnmXMukqnC11JVukDXF1bqRusWyWFjBt8Q8hE1OeF1ypvWUHGk8LF2jneI2AourJuLCCerm43QA/E4Cs5TElClWfKSKf/Xer8ve2v3683xA0yEFMh1K72iPnGk5LafbT0hj/1Uj8pHdrzhCk5EVuFX5a+TujffKpsrNkpWerf5/i2UxsYJviXmoorhDCGsklw07VDX01su59jPiCXrUXRMR+ki2SkI7+R0xDk8GZXXBGtm9dq/uYLW6aE30U+cOSdUGzIjjdPspaTSjiUHXoHluXDsjRha4aXLSc2XH6h2yrqRON04h7j4nPUeSkiLnabEsJlbwLcsKhHTUNSLNA81yvuOsLpRigpRJ2rD5m1OdEdTUlFTJJr6+bL3cWbNfinKKNeRzLvD9zC90j3ZJ93CXdI10aabMrpFOtfQj7pu0aJRRiVTkV8q2qh2yunCN5GflRz/FYlkarOBblh1Y71RbjvaBNmkdaJGmviYj/MMavgn46SsKK2RzxVapyKuUnIxcFeO5QnrkgfEBee3cK5pXZ8DVbyz5VLXWEfywhCQvPU/21hzQmP2NlZs/MXTTYllMrOBbljUu74S6Vsa84+IP+tSfD4R2suqVVAcZqZnqXiE9gm49GA7r31PMMR1wGY15xk2n0mg6l2adQO4d7dPFVGTZxG3EeoGynEpZX75eF2WVZpeZEUWRRuBYLLGCFXzLioWqTcSON+ARt88tw4wAfBNG9EPqSy/OKdEkZzdLa4DFTmfCVohsdnKp85I0DzRK92inJBurnolhOpLs9CyNtllXvF52rL5NBd9iiUWs4FtWLPjbCZVsH2yTxt6rcrW/XvometTXv7Vyu+xcvVu2V9+mk6g3ggRslzouyMm241Lfe0U7AJoLRyDsl/TkdCnILJL7Nt2v6ZWx5lmRa2PqLbGKFXzLioXVtz0jPXKh45wcbvxA+sd7dREWG50UZ5dKeV6FJjyrKamVmuJ1kpeVp+6eUfeIxvC3DrZoaoSe0W4Zcg1K2DQVVurivqkprtF4+vL8SllXsk5K88p0f1zrq7fEMlbwLSsWLHzCJs8bwX+v4R1dsKV5bIylTmcQNv9SE1Nlc+UWzYJJ2CTPE31zpOmwNPU36mtZpBWJ60/W/DdF2UW6gGtD+Sbznorot1kssY8VfMuKhaqNYBMXP+oZkfquK5rb5nzXGfEHIyGUCD7bHbJKl5BNrHiX6Ri8fq/4gr6IG8f8yzZ/21S+Vbas2qrpEIiv5z1M/losywUr+Ja4oWuoU1pJe9Bfr5ud9I/3aUeAqBNWSV58IJKH4E/CLbNSc6TSWPG4b2qKazUdQkW+teotyxMr+Ja4Qne3Mtb7ufazmpTtcs8F8QS8kpSQrJY8IP6kQ8hKzZa1hXWyt26fbF+zXX33852Dx2JZTJJMBf6bhoYGGRkZkYyMDMnOthsvW1YuasknJUl2eo6U55froqzMlEwN30TwWSVLuuLbVt8u++r266Ynq4vXqLsHsbfpECzLmYSvf/3rH7Hw6+rq5K677pIDBw5En7FYVia4ckjT0DbYZo6WSEK2hATJMB1AbWmdVBZW6cIta9VbVgYi/z84vPT0jYCL6wAAAABJRU5ErkJggg==;" vertex="1" parent="JZUDk3lIRAv1eScNHPHP-2">
          <mxGeometry x="25.619999999999983" y="20" width="149.44" height="70" as="geometry" />
        </mxCell>
        <mxCell id="JZUDk3lIRAv1eScNHPHP-3" value="&lt;b&gt;&lt;font style=&quot;font-size: 18px;&quot;&gt;Frontend&lt;/font&gt;&lt;/b&gt;" style="text;html=1;align=center;verticalAlign=middle;resizable=0;points=[];autosize=1;strokeColor=none;fillColor=none;strokeWidth=4;" vertex="1" parent="1">
          <mxGeometry x="160" y="60" width="100" height="40" as="geometry" />
        </mxCell>
        <mxCell id="JZUDk3lIRAv1eScNHPHP-8" value="" style="swimlane;startSize=0;" vertex="1" parent="1">
          <mxGeometry x="120" y="110" width="200" height="300" as="geometry" />
        </mxCell>
        <mxCell id="JZUDk3lIRAv1eScNHPHP-9" value="" style="shape=image;verticalLabelPosition=bottom;labelBackgroundColor=default;verticalAlign=top;aspect=fixed;imageAspect=0;image=data:image/png,iVBORw0KGgoAAAANSUhEUgAAAS4AAACnCAYAAACviLHnAAAAAXNSR0IArs4c6QAAAARnQU1BAACxjwv8YQUAAAAJcEhZcwAADsMAAA7DAcdvqGQAACJeSURBVHhe7Z170CVFeYfniKLclrtcw64BVIxggphQsRIxlhcKkyCaqJX4hySEFF7LCmCgSJGk1IApCwUp0QT/MAngBamIwWDFhFgajWgiRiHh4qog4AILK8tN8eR9+ps59PSZnmuf7zuz+3uqzn57bnN6enp+/fbbb789Wb9+/TQTQogR4YRr48aN+VMhhFhuNmzYkD0p/78QQowGCZcQYnRIuIQQo0PCJYQYHRIuIcTokHAJIUaHhEsIMTokXEKI0SHhEkKMDgmXEGJ0SLiEEKNDwiWEGB0SLiHE6JBwCSFGh4RLCDE6JFxCiNEh4RJCjA4JlxBidEi4hBCjQ8IlhBgdEi4hxOiQcAkhRoeESwgxOiRcQojRIeESQowOCZcQYnRIuIQQo0PCJYQYHRIuIcTokHAJIUaHhEsIMTokXEKI0SHhEkKMDgmXEGJ0SLiEEKNDwiWEGB0SLiHE6JBwCSFGh4RLCDE6JFxCiNEh4RJCjA4JlxBidEi4hBCjY9WE6yfTLPuvrVn2uQdWHl+3/9/70/zNNeKBx7Pslkey7KaHs+yOx/IXhRBLz2T9+vXTjRs35k/Tgzidfec0u+TB/IUQk84zd82y39tzkh25c/7aAkE0P7Nlml38kD352cprPmess8d+k2zvJ+cvCCGWig0bNixWuLCqjvm+mVpt7DoTkUN2yLJLTDResXv+WiIesmNfvGmanX5f/kJTeezz1xyYvhxCiOEgXAsbKjIEay1aYJ/j48f/cJqt/79p9u8/zl8fyF/fPc12+V8TrfvtCWXxy4PF5T8K7DPH3z7N/m1L/lwIsVQszOJCfBCiGSYMp9mQ8JidVp7eaUPIj9vw8Zs/sSdV4mafP8k+e+nPTbLdzRLrCsL3IhNBJ0ihWNlzhqfH7jzJDn3qysu3Pppl5947zb75+Mpzh31267Mm2c5V5RNCrAkLGypetTnLXnVX2dq6/RmT7KAd8yceOMiv3DzNTr7XnoQiA/baJ/efZK/eM3/egj/+Qe5TCwTreU/JsguePsmOW5e/VsGrN06zK03ECs4wgTvvoEn+TAix1ixMuH7xFs9yMcG4/pBJ9vxd8uc1fPy+afbaTfafUMDs+akmIB8y66sOhqeHf8838wz7Lr6zjx0wyX59t/y1BiY2tJxh33/s2ZPsKdIuIZaChfi4mEV0w7+cl9pQrI1owe/uNcmmNjR77172BPEqsFJe8tDK8JPjV4GVd/h350Xror2z7HvPbC9acFFg3X0W/5gQYmlILlxf9J3qWEp7djdV/mS/SXb7oZPsefi2PAHDZ7bPzVMXD+aDA740NLXv8N17Dp9kb7KhYVdO3MO+U/yuHfNzDwaCKIRYU5IL13ce9QTEOK6DpeODP+y/D6u2vo42BStmHd95Rx7m4InWmetWvts3Fsv54rxzwNoTQiwPyYXr64/k/8kZGsiJ9XXdwZ4FBFbqF90+dY708whZ8ETr0/tPsr9K4Ew/KZ9tdNhxiQUTQiwHyZ3zfhgEwzUsnxQ4xzs+rJjUmrC0nQRow5lmyZ1fRPvbsW9+xiQ77Gn581WA2dajbp1meybvWp7gUOtU9rdr9BwT6WN3mWRH7ZxpEkIsPQuZVZzc+IS4YLV8akO6OwHH/D52M1dxo4nWs/MYsRTgN3NBq5BYFNuAcO1hnUB6mzhCblESO/eWvepDRoRYSxYaOQ/74lxPCMPOd0WW4eyW+Ld2CvR267Y+VKQl2IMYthebtUlICOs6hVhGVqs/T8IHfzTNzt6cPwk42CyxWKhEH8Jo+Z9VG3rbJvm5s/wKPyKZPYRYJkYjXMRpvZno+liJ7XWGkalustAZ/6Tt0fdjdYoFtqMNWZX2R/QFg+Kj90xdgLn/4LW+92t64fKOuMlf9zeAbz0ULCEyUblm/4lbRlT4ZgpeEPGBdeXh4DC7pa+pYXDeQx8dSG3Riu2HH1qnd/LdWfba4MFrfVn6WUXnkL+5LFpEwxeBpXOpc+x9FnN/sGF5UBPEh523xrOKMef8IXZqVx40yX7cs2N4xA675fFpdos1qEu2ZNn3OU5LYWZlgxBdwPA4iqV4YRuz+6rPcrqFzCqGi5SHNvRSlgk7URL9hYue3RpH1NsTr0v3zbI37tP/t0vnYce7/5n9slT0pUm4WMaUCoaBH9g0zc73Y+IinLbz8E5BbF8sQrgamml3Dn9K/h+wgg3xOSEeM9EyWPdYlamBNY7vYn2h/Z7DzurkTSspmftyfeDTWU3RWm1YKUC9YlUiinVcbFbokHoVIgXJhetoYqkKATFuDSLp24Lj7krvBuGGuvbn43fVWftPXAzSDDuzI0z1+ggn33HDpxyyS2wPMBTGknNrRGNYvZ5994DeSIgEpLe4nloWl2/3EC56dCymWelMCElLw5CGCPqqhxvuHDgvbK8L09y0ILQojk8Y2DoGvnZovdlFh6JZRrGWJBeu5/obXtjR//OhuHAQcoBIEOiIhYVDnOEhllKpZPZ/1iYys8Wyn6oH7/EIwU/1stumbgkPcWCEVeDQr7vxrg/KfKS/bnE7AJ/DdXQCnuVcwq7HtVu6dwhCpGIhiQR9h3rhSGZ2ECfdtx+ZZl+wv87x7d8YySU0QnAzkhX1hSZMpJQ+aqeVZT2hY361l/vAajrnY5QSQga81OqtbuguRMEoZhXh3XdNs7PD5SKFYKyWQPWhqoz22vSI1b9Bl0G45mZrfdaoXsT4WHrhIkfWP9kQ4jIbivmzgY0gGBU3B05iMhiw5nF3e5/zW2f/37HiRB+z39tiNzs/+4Adj+BXPyxjCFgXf7hHlr1899ULiVgG4WI47YbfEeEi2WPVPgKpwJWw2Sz1++zxUyvGk+2U97L28HS7Hl0b+6JhQudHP8lcbF0xIUQZWUO7bOWlXgkKfdj++vW6pz0WsTEM7qAjbBRTJVx9Or8kwkU20r+xnplpckfdiVtBC5ipw+l9mDX85z5tkr1zUzlPvR9k2he2F2PBsF+m95oAsYD6WyZq11iF+rOHbcpOSMZpe06yEzts3tGHZRAu8LN9lLD6uGF92k18uaGuNUudjLMueaPXXuawMhFT9tJdJ9kJdk1XWxgQ9S9ZOb9g7b+xrOCV92W7L0YgYlBWfJJX2z3qz9RXYuUiq8tr12XZS9a1T8aJWN9APQRwmjc/mu8lEWJ1hhumjg1WlrAMg4SLYcTp97SPui62A3suYhVEoIfR7ynzeLkdf7wKDX0zVDg9wo2PTLPrrBxuh+sm8kZK7Nip+yxm1+ulES5/4xCfvNGl8P1R/xfc4+123qI9zcivBaslztpvsRYgMJHkOtliX4UuZYW8vGz+cs6CyzuorHk5CTE61wyIpg7Ktdebqttr7e/mv1OJvffJA+d3+OolXMz+RbcSg/x1BOLzRYXZa3W9c7irTsohCL04G8LOymrPY9ud3RsuLyrIz6kSe4+b5t1WwSmHkduDcHGOJ1vH4qyAWP12Ib8WFxycflcmZ73faXVR1xa6Ysei8yMGMSUYAifZSKPLUq5arJwI7YU19VrXXntjv0tG43B0g3C1/hkuHI3YxVeB/00upsEw7MYNE7fM52J/Ot0++/ebq28AQhRmn7O/XMiUvRAmOULll+U1d1UHpl5uVqR/XuypyLlwTuz846za4jgF9nmsNC4ayQe3OcLz9ajyNbYFa4A6c35Ir84HkV8LslmEsXh9oZ0wy+xcDpCqrGDHIk0Ts7dV7bEPb7KOgNGL8zEnrFdGLSnrdSiNp4bFEr1w9h7jYXpebnDywxdZSN1w0Pusyw0fgEqXUtXY39S9D2BdEfYww37nHHa5Djjf34bMzu0EG+MD54S/DSsHy/FULMcKAWPTDkJBCIjdFsACrQOHbh+I1yPXl98+5qB+/QeEz2vAGTw0ESLXkZu1lbj6ZfMfTdhx8e0ehqU/AO5TBNC5OprKWtC1rAb1WmxUs5bUniLTmAyz5i6cnSSORoZ0pGaODRewwHzCE2aYMDuuHdMFPbaEm6rpxvL5ZLDhBkLqCwz/Lznqjaq9GBnusjEtW59hkZUuuJ0LPR0BsQypx87XbMhRRx/LGIugtMFJiNUnnSFWMu2LWSf3sI6Rv1vtL53HpXuv+EJL9e9jx0cc+4oXwy2uYxR+Ny8rZWFDF9Z6UmYe/J/XsNRxm0TLmUO7oW764NwhJnyxmLsZeRnoeCkXw7Br7J7714Mmrr7JLlxbp2D1SjB4pXjxvdgjRtVnvUfslKI+Li74XK9oB2JW7aN2Qdo0WsTAXfz8GH4OemYj2WaseK9NQCPfucSGczMnbg5lesfek+wVkbTOBTQM3/nuTwKEsWdtt95nxuaNdiE/XyHuVZks2rIMPq5SIG5AnwkUlyooJlpWXziCWbbVRRDpXN9g7dQ5oCPHZajfZT8C5+vEt1dlUdrx+B3E6vetzbX1pdFO/vLuvO1WlRPs2H1maksZVKqw4+KjepOVt82xKeuFmxo6GKujm02gi4m2YpKrqj5uMh0o5dMryM83Vocc80BrC61nFZ0jEvX3v2A/gjo3iUNIuB1/kR4mTFfT5JB3s4MNF53h4JdN/GJTzVWO+uKcwgmCb5g6/FIHxzNLieYujh2HPR77bJe21sIVdjohWNO4BtpSWT8F3nXoC77Sugy5XdMrlfKxFVg52eezy3mHVIXo+LTpwH3qOhegg2G00SeXHAJ2gt2kc5ac1QNCyMijDQha6jiuueqjsK5iPdHi5BGcPg3rLH9DV/u1KzevmO/+sKzJIc9aw1rRAnuPCsZkRqCqQNDI0+WX53i7mdxwwv+Ovd5FtICZD+rImdoFdhx6LUJHxsZrzIqM1rfV1Stz/18bsGDqRAuLaIhoAT7Iuf03PboOw6o6G4Z/Q0QL2D3JxS5Fyonl3tYFQruKxmXZ8XHnYBX3ES3gnuT7jJRm5bW/3K9tRQvqJh76TkrMNSUU1n+VQlP4vlP9rwq24D/3vpXYktlvWEWcXtMYmKmbG4Y1cCLqHoHkgmGaGsTLPz7j/z5QR7MLXWDHZdlM28a4DHCTz2J/KsCy7TL0en3QpmbYtecmTrWtHD5J/Dazm8yDAGnfp9kGtrxjSMSfrYeny4CLT5ibP8YXWzi/6ZzrlmOlyAJcgHvHpYyyuiAwfBETaF0pnTaWh99gsR6G7ovI+BVfTwFt2B86YgHVxYaUttdvCUKHczUGKXKqGrfDXsd3MQTqzDlkC6z8f0YM0AhgSO5WQcTq3OrnAx2sDq6D63hC7DgMu1IvXsfyZRgzh53PmXRQHUBQL7L2eaN1Rqkj3d/OqpCqNmi/85WajCoFf0F7ipQJn2/qLLWXr59kVxywYtkuA6VT/wixVsUrVqmfpatJwCkIQeQi1aVXZljZCzvupTXDM3rmUniEB40+RSDpJ+xC++eMGKSK1VkEzBLhd3SrDCI3BHBTVM22xvhTYtsqjofVO3TYFYNAyar21iePGDfqIpbncMxS4kuPm2usXcDaco7zKuw91/YSg3FBpuFloXRJ/PEyN3CX2Z06MLFp8CWsgq/A31TDVylPz0bTtHTno1VWlz1n5iUFiB+OeZ+qtVxrAQLK0BVrCKc2gsUU92yyJIbVz1UdLHCGZjFr65IFiRZwkzGkmcPa0mV9O8MF8BuRGb5bG9wKV8Q6ZatXzjtFx7vszGQhdGj/SiK/Q8F7aKjBbzQp+G0NPU8twW+F4HwPxRQrrOtUdB3H7Vo+502J/FwIDIuf+z52vGnqljYRYf3mzSvHa+wg7DxwonexPj5+vx246vP22lBnfBNuuF/RBi70Ql7Wmn2ZAKso4+aGtoufOHa9lmUot2hmpx82yDsT3WQFVVtpNS0fWORehgh1aA00BvB15E5MG+8cnpayTXHcFI825KLV1Yk+l5Mth0DHRYPVMWflG8xmdx0uLhOUPQyULggt/G2ZUtP1Z9tija4vb2dNov9r9v+3Njisnz9gFqeq0fpcEJYH7AYl3igVrmf0ODzRrNSqYfXBBA2rBLqKlhOHKsvBXnv5bqtjFfx2lZPeaFoR0Ab6JDpefINMavEgRouA2EXOIEfLbvX6O3tsH9YWlG7dtwQ9YapFw1zgqul1LB4udIzjaeBVjb8J+87ra3ofrC0Wt85htfE2QjUSQIyN3zMyDE3lM1w4eZ2zDITwjj5pe75VY00fkdgNEeNIEq+F7ceu8Xce7XeNESR8ggRVM9wmqBLfICtMeBD/SKZPhuEMyZmhpSNMOSnjZhzDDjcn9QztMlOqgtP2LV9oQhFSLKi8kHV7VZVtr7FcIwZ+qNjsXxN1IQ1/XjOVjNjUiWkbEOpwg9oLltn3wDXPH8SgEcVOpHlV6p+2/A/bZUeu+SJm6ao4MNJ2vt4xnouwHEQIQcIn6FwKnEPDgxlaAm8ROSLxQz9yH75RNdlh9L1Pxsrckh+XbyvYGmxI3iV6Gy5ccTwWeH7FKt+P5WKRJxHFVTDkiKYPrqLH8Uq5w4whuzWHazCh6zIOqFvy4+h6E0SOQ9lY57nBrMFUgaAQrgstIMLm/dZBPja1c1sgO0wm2V3W+BCaKtouAfqUfZ80SK3bXx12za7Y74lJqVhOf+ootqQrlh9tSJtdNBgCq5Jzfm79k/1A3y3tSxfHjuOWOxh+xlOoa0jREw8xU74qY6IPy4d8kcKHw3AI0352/J4VOif6OY9ZI+x6rDZrFdsMQfjdWLkcdq5N60T7ULuGzn5zVYi1F/v9NmvkaheF+9SdT/hd+yzxWwQp9xIuv516MOGxDBHtVSxCuCovCZUarrmj4dMYu5q77/anbu0vlhuPkvPcjlmXBoYQBdYBzvJg+WXIn1NeVqvXiRbD3tJMon3vb4nnMohb8/lHPzdXA4gMdTMnDnb8e6xMXS9MWzhu0wPocKJDCSvvr1rZU1Mbi0QdrcZjAPh3G0XLri+WDsuMyHJQpLThQQeNdcX7RRt12PEQdDrQ4nkK2ExmeyJ6ulghbtlKUOFkV2iba4phme+U9/NzhRlSuenrRJHp7SIPFg2F9YQcj8ZBQ6G8TWvJXhSk6aHnK4bAp2C+e+W5pGWgIs7aWCZPyrqIfPR9cKsgIvWLX2+bzN5aQ521SmBu7VIzq0faH9YCwzOWGdG5YrUWD9oVQ0Lex7pjAbh/P2H1V24gIVoRuzQO/DKsJys1ePsGIsNYuyl04Co/ANGOceLuuQlgIDIsBJ1hn3sHWSkaQAhoKATasWSExtFmmFNKEQ32/w+zNCTHCZhXG1hmsWltBJbjYbY7H4pfi/YeDm6GvssiWkAdzV3LAis/N2rXRch1PN2vkxDKsNaPGo6py4xh0FHS/gqLtg0sk+J+wv/a9Pt9eLj51tmmaLVZBrNkL/9BPr0f3KQ8p/dhFi9cauDn3KoatyMAYX6sPonUmkCAwk0wqnwCpWSCVpbQr8dY/UP31ixCtu/ENuLoShsfVx/qks4NOW5IuLtSAb/x5Q0Tt6ffWsFegrGJiNq8Ycb9ZtkPXVLDtT3q1n7XIeacZxetPnnfVoNV83GFcJGpSLf+y29w+bexOrjJ8PNw4bkwiIUfx3RGkMYZmBYvHdOev5LeLjF/FPag9ntVjsyTsAi9sly2ZWW4yzCKBkPlV+b0tu/gyyCtcArRWiRX1+SsSjlkPCTiU+M3sP6wuNfqUTd7erGfaMDH6ozU4inWAXIMMk70wQ03K4iFSWyrVF2iKJjHOMnncq2DHQk/D70VIraPH3Jgn31dZF2iW1vllSK1v4WI5lKyNSuL2/WnAtegvbLghyB04vTCUR/Wlh2LYSFDB3wZqxWfNASs2ejSECt/qiEjG/3OtZGc2BB8rWEEULko3GByo0tWjCZoKy7JQKSOYhwdWRESK/e2Sudbjd6CPOoImFtzRsX7lc8Rw6Pa86Nvm2Zn3jF1U8CYjr4j/gbiT4rn9tlUNw8O2DBJILOZhVXEDYQjlskGhjaVZnh4Lvn5YpojWMzAtvGxLRO1Qwo735fExjAdOIqo9Qgpltwsghtj0f52vc9NlDVkKEfTuXr3jk9KH+WyE96WrUHAGG4xY0Kktcv6md/UVXAvnP/gSkQ5Qy58WwgFw8vPbJmWs5IOvHkQRUTpLZFhJ0s2cKwXGRLY4LbKHzMjPy/OkRlNzpmbf2yC5eN2VIpdK7N63WTGAKLDMbu2V9n1XkY2sr4ywgvy2ee15oVkHKnC6vWfl7ReF0Er53xbsHD+w8TpH+6vdsx2xr+x7MLgtCwo6VrkBuwvyx52bGaCftksrNUcCi7KOe8Tc6A77LyxKIeIc/T4duw+TtlF4wJ12XAjZEHl7ROACjEHfap2kZo1c863hQLgBzgyGIeX9msrHm2gdMXDQKyKRwn/c/6jDV6ZKCNlDR2gZHUYg/+qK+9jyBi7Fna+QwNTT2RDjarj27E/nGgx+/ZIuF9pAZZyirXFY2Aht+NHvLSyiABDSgJEUVfCHYrNJ93wEjzxiN5IQ/GOT89EFD4NgGEuu7cw/KOMlDXMLLGsPpmhIMaxzSVg6JDRJQuMtDC2EvP9nMvAuh3idbHF6mJZeGMkSSJ1/YaR7G0wlIUIlx8t7+dEwiJjVgvnOAKBY5tATUSDYQl7GTIsQ1hCEBqEDiHkb9WDkITSUiWwC4xIIk5EsvNbmNNE4RPAys3FFLnPMTt7DcNqqM3mBWPlRLsW0dxldu4IjMut1RM2To3eZHOm89rCQvMYDHeWBQKbwyVqBXQ2xCMugiHtIDXJhat0ga3BupxILcCXQhobsjr8C8oVNHZSSSN0RB/zt+pxlglRmPeLaWxEEnFqG8keOpa39RiZyyrqe4a1ELdlXU9cAG+klRGmMnQSoA4maLokhozmCbPyX/5A+nKSwaIv51SkQndYWck1R1LDlBCiRGhQ6pnLNokCqkguXLcGN/kvxBpDDYgMaxD9C8Myo7rxOxVw8HftH/+M7PvXmaXVFSxDf5ZzW4+RQdBLG+UG0BkMEZhrYsNRu1ZYdDipU8MNRiwhcYVtLQWGzrHF6GxInNLioL2+w99ftCN09G5vxki9ktQwlXgxaVGs3WR3c1I3peL7Pe+tntUW55bHyhej73o91iCWzGE7JtkmY43nBETLB9E6uH+k8zHBsGHZ/DGpacogMWTIyHA8NrTh2MyspRzeILLcYA47fpdJhnNq/EepsmggWi+oWfLTFkYS4ebGM6y8iNfQYG5S+5Synthf8s11EcWdiu+G2OtX9wzhiB2yN7d4jTtaqS3BD1Xyd1lpsapC85LKDdPV0BsNiXQO891vXtJo75TUZZCg7ocMGeeupY8dm+EN6yjrNvJtgmEhoQKIrN+yKXbbLfhdcHLkruA4s3Q0PcFa2dHOM9XGLN8gQWXNNcNSol5ZQdIFrgPfq0ztY89fbPXZtNlNwYE1vkPKV7eSIlbuyCXqj7+l2LMSZEe44dD5C0NvVcAwI6xc0tXQGw3hgKDs920HwsXwI5pBwhg6ZGR9Xp14IQwEBBMgXKx5bYIbDGsNwXKLo6GiVbMwvs3xoC44l2Vg/FbXsAOGrsS1uey4CWFEww5MdeLFT5ITn3LTySMGlIdRBEZAEbBNXXJ9ESyugytqlULY51l7XLfm04cheJ1lyJCeMnF9KA+WPZlnKQflriJpACrwY8W1YSaQnnYoVLIz/b1KZBbxbWbWM3z0X+fGSBGEV0rZaxdqSPrqPqxGAGoM/xrOYXUxJDC1GCY1Whz2Ow47f671YTaMZdhPWML99t411tszg1Z8pg7qC8uki9vCZQqxNhA9tpWBofXb7Ab+tV0n2Xorox9IyfW7zdrtl7dOXXiQmzTyjsXsN9+tCnjtc32xfti8o6kuHEXdVtH0ffsuw/6u9zVD1tma3yqqykRZuNbWkfj7cCYPQAW/wafKyoizHn+Vf3Is6A5Fi/edhZaAXYKyb62q2G2UugwS1PeQISM3N/Fys8ygMaj//BpwrVkuRsqh8+wv0fgzayC4TiXs+PwOItDV14rF7vLF1dQD4ovw0KmyrwLLyIoHnQ7WVWlzDbDjIcTUgWtjdXXQAawfwn0QvcZjFvVW9ajDjosLpo8xcgqzy3XlipXF/r7v3vn2Vry9ELqfXhz8VeFMY6n09jqxWn2d8eIJiLU7I5ZBwhg6ZASyabjOCJputK7Y8biBsZKHbCDBd+dSOVVR3GhVDx87DrO3hO4sAsQZkW5V5h5wvfq6YLgv62au6/i8WZNhGEZYtUkZ1rTnYabRTQGHWGXQSMNA0iE8ElTwInfVjkIZKh4DDJ7WkAHEUfH78OZN842pK3RGBCC7DgnyY/fGvo9gsRqAGzjF0J60SwyN/bTLnbHv4TbBIvITU86seP56j6HXlzLzW2QwmR23D/l3CeDmOg1N68O5R0M4YthnT7VOlKG4zyh8XAU4D8PdgQpS/1Zpwa1VHtZcSmFsAocpZYitkfRvgEVBMPH1NasG9txhJd96Kri+n7h/6oaDpcZdVQfe+zh+ady/uS599lwf6mOWAbcgLFtQLjZZZolO1VC1rn5TXV98ip/ePM2u2BLkpWuo08J/R2Zj33eXAq7zH9w5fSJYPFKHrOh4z37zHVB0e7Ih+Nt/0Ut13U8wRpv97VL+XpjGmfxjGoauHsxybXx0JdUM+yM+4N1U+E73NSE49KkrnclaXBec4TeZxXmHV7YdrentbWWhXARed/WrrQaUmzq908p97+NZRtglUHay1lJ2VhCsRlIBrjHrgG99tFyHh9k/pBGKTQAtRLhKG4FaYVgbOJTKGR47NrMbRDT7rzNUIKd531mvgtL+i4nOQwgxnIXMKj4nGIsOWSbBcAkBqRItMkwwNAwdkYwkWVPVNeAuxA9oJS5MCLE8JBeuY3cxy8QTki89WD2GbwLhIUuqs3oC0SKDRJF+GUekyyHv/SafJ3CNgL8+lIIL7bivjC1XEUKsCcmFq+RIs6Offk/+/5ZgoZHO2UXMVpQOJzkZJHwQMfJ8heJFvA/Rwl2tr/cTN+L99m/toWGiEMtEcuECPwaI6GZmx5pAsNhMg2He3K7QJkg43h97Znxmj9kkHOizTKseiCDLSNrkVMLa8mdfGCYuo5NViO2ZhQjXW/f1rB/7BVaXVwUsMqvAmjQsLASL6Oi5EtlxCFxjtrBpWpbZJSKSq3bfJnqZvNfFOriqbA+IVika3z5zXs+AOyHE4kg+q1jAYs65leUmBEXqFLcMohCPUKzA3iOOgyR3fSweLDiWpoRrxBz571KWY+03MNKuNivLrX3zRIv9B5d1d2AhtlcWEg7hUwopaIsJBoF7HztgeKQu4N9yeysiVlUCWYV9liHiopZmCCH6s5BwCB+Gd0S0FxZOFN63B34s1kOxXCOFaAGrylmuwArz0k5DMew9liVItIRYXhZqcRXgFP+7zdPs8q35cAxMMhGq40zYjt5pJVJ2NZzgDCGv3TLNvmpDQ7fnXyFiVp4zds2yU/Ze3aU9QohuLHyoKIQQqVn4UFEIIRaBhEsIMTokXEKI0SHhEkKMDgmXEGJ0SLiEEKNDwiWEGB0SLiHE6JBwCSFGh4RLCDE6JFxCiNEh4RJCjA4JlxBidEi4hBCjQ8IlhBgdEi4hxOiQcAkhRoeESwgxOiRcQojRIeESQowOCZcQYnRIuIQQo0PCJYQYHRIuIcTokHAJIUaHhEsIMTokXEKI0SHhEkKMDgmXEGJ0SLiEEKNDwiWEGB0SLiHE6JBwCSFGh4RLCDE6JFxCiNEh4RJCjA4JlxBidEi4hBCjQ8IlhBgdEi4hxOiQcAkhRoeESwgxMrLs/wFHSX136/sjTAAAAABJRU5ErkJggg==;" vertex="1" parent="JZUDk3lIRAv1eScNHPHP-8">
          <mxGeometry x="27.659999999999997" y="20" width="144.67" height="80" as="geometry" />
        </mxCell>
        <mxCell id="JZUDk3lIRAv1eScNHPHP-10" value="" style="shape=image;verticalLabelPosition=bottom;labelBackgroundColor=default;verticalAlign=top;aspect=fixed;imageAspect=0;image=data:image/png,iVBORw0KGgoAAAANSUhEUgAAAcEAAAEWCAYAAAAegCx/AAAAAXNSR0IArs4c6QAAAARnQU1BAACxjwv8YQUAAAAJcEhZcwAADsMAAA7DAcdvqGQAAErESURBVHhe7Z0JgBxVtfdPVW/T0zPTs2/ZE8KSQBYDhB2CQCKiQJBdBVGURRF4PBRcEFQWH4IKvM+F5wYoKLKDCBJlXxNCAiFkXyaz7zO9L/XVqbkjk5nu6apbW3f1+b3X5t4actPTfav+95x7zzlCX1+fBDmorKxkrcnp7+9nrdzQmLmhMdVBY+aGxlQHjZkbp40psj8JgiAIouggESQIgiCKFhJBgiAIomghESQIgiCKFhJBgiAIomghESQIgiCKFkGSYe2sqD1qqvboKkJj5obGVAeNmRsaUx00Zm6cNiZZggRBEETRQiJIEARBFC0kggRBEETRQiJIEARBFC0kggRBEETRQiJIEARBFC0kggRBEETRQiJIEARBFC0kggRBEETRQiJIEARBFC1UWT4HNGZuaEx10Ji5oTHVQWPmRu2YZAkSBEEQRQuJIEEQBFG0kAgSBEEQRQuJIEEQBFG05MXBmEQiwVoTGT+mx+NhrYmMHTOZTEK2Uonjx3S73SAIAuuNMPr37djYHf0dx4452WeEjB0Tfxf8nTIx2fvE3xd/71FyvU9RFMHlck0Yc7L3On7MbN+nkZ/nKDSmOuwaE+dfT09P1vt2PHrfZ6a5FwwG97oHsmHG5zk8PDzhOYSkUilIp9OsN4JV31Gmz6gQ5hKidkzbRRC/4Pr6eqWdibE3RFlZGaxbt471JjL2fR5++OGwadMm1tub8TfZ448/DgcddBDrjbBy5UpYu3ZtxkmZCbU3LjLZmM3NzfDee+8pAjP6eQ4MDMDixYuVdjbGjoljvPrqq1BRUcGufMxk39F//dd/waOPPsp6k79P5JprroHrrrtuwpjz5s2DaDTKenszfkx86GWCZy7lgsZUh11j7tmzB0466aSsc2c8eu5N/Ltvv/32hDHef/99uPDCC1kvO0bd76PgYvIPf/gD7L///uzKx+B9+e9//5v1RtDzu2cj05j4GVVVVbHeCE6bn7aLIK66vF6v0s4FiuCuXbtYbyJj3yc+iDdu3Mh6k7Nq1SpYtGgR641w4oknwurVq1nPOqZOnQo7duzYSwTxz9mzZyttNeBkvvPOO+GKK65gVz4m23e0efNmWLZsGYTDYXYlN9/97nfhpptumjAmirDaB9n4Fe4oPHMpFzSmOuwac/fu3XDEEUdAJBJhV8wD7xFcJI9/8L/77rtw5plnsp51oAg+8sgjMH/+fHblYy699FJ4/vnnWc9aPvroI6ipqWG9EZw2P2lP0IHg6u/KK69UvQjAhQjeaFoEkCAIwgmQCDoYtNTU8NBDD8GaNWtYjyAIongQZKshpztUrVmp1kxFRsdEK2SyPcGxlJeXK/tj2Rj7PpcuXaq4+NSAfu8lS5aw3giHHXYYvPXWW6xnHehKxH1PdIeOfp59fX0TXBJqQFfPr3/9azjjjDPYlYnfEX6e6AreuXMnu6Ie3BO8/vrrJ4wZCARUu7R6e3tZa2945lIuaEx12DUm7gmuWLHCMndoZ2fnBHfoU089pWpP0GjQHYouzwULFrArH/PFL34RnnnmGdazFnwGVldXs94ITpufZAk6GFzf3HjjjRAKhdiVvcH9OHSD8gggQRCEEyARdDgtLS1w6623st7e4EGEsadBCYIgig0SwSLgf//3fyecdB0aGlKOo8diMXaFIIqL8a5QxOfzZbxuJxi7SJgHiWARgG7RH//4x3sFAf/+979XvWdKEE4k03GIhQsXKqFCvGCSCoyrG/tCEVPzwn3BTNxxxx1w4IEHsp52UNjHv6dMr0zvCc8mOB06GCPj1IMx47nlllvgW9/6lvI5NTY2QjweZz/hgw7G0JhqUTNma2srLF++XPXcwfmM90suML44E8ceeyxrfQy+T3wkXnTRRfDyyy+zq+pBMcEkGyUlJeyK+s8TD6Bks0LxGYAJQLq7u9kV9dTV1cEbb7yR9XMYJdP7zCTMTpuftst8ttVPJvAgxwcffJD19eGHH/7npfcB70R+8YtfKBl6vvzlL9PnQ+QdKtbje4FZlI488sicLxS7TK9soBCh9YULYa2gWB1yyCHKXjw+27S8JnPDorg++eST4Pf72RX1dHV1KaKOWx+Z/t3JXsWA7SKID2W14ClHTG+W7TV24us98YgrJxRdtFQme6mdKPjf4Xi5xsS0TWa5INra2uCss85SjoETBJEdFB0UwhkzZrAr6sHQCwxrQMvWSObOnQsvvvgi1NbWsivqwb+HGaTGbokQI9CeYJGBp0FzJeMmCAKUbRqM3cNUhlpBzxRaX0bfa5g+8YEHHsiaIH8yHnvsMeU9aTE8igESQYIgiCygV+Z3v/sd1578O++8A6eeeqrhwf94fuHuu+9mPW08++yzqjNJFQskggRBEJMwa9YsJfNSaWkpu6IePFz3ve99z3AhPOGEE+C2225TTn5qAbdjfvOb3ygJ9okRCqqKhFlkqiIxSq7fHd+7Gj877gniBjWi9fPEP7VUkbAKqiJBY6pFzZhaq0hgubD99tuP9bJj1PvEqhMYW4t1/7RywQUXwE9+8pNJzxDwvE8UQhQ0nr2+m2++WamYMXogx0lzCVE7JlmCBUC+Be+Okq/viyDMYN9994Xf/va3XAfX7rvvPiU8SesJ2Fxce+21cNVVV7GeNn7wgx8oC4lih0TQYeCxbkxCzAOePsOVrlqMvqEJIt85/vjj4a677mI99aDH4/7771fClIy8b3AhikV3MQew1kUphknhQZmXXnqJXSlOSAQdBrpncdU5PvN7LjC4F0+dZapGTxDEx5x99tnKNoDWE5rosvzhD3+oVJA3Enwf3//+95UFrFYhRHG+7LLLlAD/YoVEsADQsnLE/xZPsmH1CC2cfvrpMGfOHNYjCGIyzj33XGWfjwd0iz788MOsZwwejwf++Mc/KgdmtIL79xdffLGST7gYIRF0KLi6O/nkk1lvcjAvIQYG0x4fQagD75XrrrsOvvCFL7Ar6sE4PdzLw4QcRoKHbjBZ/ic/+Ul2RT2Y6ebQQw+F7du3syvFg+0iqPXBi1ZOthdmUhh9qc3k4lTwc8Wk2bnSLOEmPx7h1nrUmiCIkRPSn/3sZzU/xwYHB+Ezn/mMEktoJJjpBmMI99lnH3ZFPXh6HS1cTPlWTNguglpcfZgAFpNiZ3thuqLRFx7yKHYwIz6uDCcD3SAnnngi61kPinCmF+5p5npNlv+RIKwAF9sYpqAmVGM8+Ow77bTTYNeuXeyKMYwmzObJdLNlyxYl5Vu20CUnQu5Qh4NxQPvvvz/r7Q2WSsFKEASRD2i1prZu3TohiX6m18aNGzO+jAL343CPDyvXaAX341AI0R1pNJgmraGhgfXUg1VsTjnlFK54yEKkoILl0RKcbNU09n3OmzdP9UR3UrD80UcfrSTLHQv6+THV0tjvB9/3n/70J+XI91i++tWvqt60NyJYXg+YNB1/VzPnZy5oTHWoGRPdcFguyOjsKplAwUXv0XjwmYGJpnORyVLCBP+j97hWpk2bBg8++GBG0brhhhsmxPOht0QNmJRfy/c0Fkz5hiEdWBptLE6bn1RPUCZTPcFRcv3u6HpQk5AWRXA0ma7WzxNXibjnqQZ8iDz99NOs9zEoVj/72c9YD+C8885T4pbGc/7558Of//xn1pscI+oJ6gEXLmvWrDF1fuaCxlSHmjG11hPUA4pgJsHCCisXXngh61kLZst54oknWO9j0D35zDPPsJ61XHLJJRO8RU6bn+QOLRLwNBpaTghunv/85z9X2gSRL2g5H2AEVv97ueApmGs2aN06HRLBIgGD4TEMAvnVr36l2rIkCIJwMiSCBYCWAwOT/bfo8r399tuVwPhsaPm31O5LEARB5Cv0FCsAtLhtcv23V1999aQxlFr+rWI6Rk0QhDMhESQIgiCKFhJBgiAIomghESQIgiCKFtvjBJFXXnmFtSaCAfKjYMmQo446ivUmMnZMjB8Lh8Ostzdjx0TwwAjGIGYi1++OQaz4EY4fczx44GQ0zZfWzxNjKSf7jJDR7A6YBWY0FCITub6jDz/8EDo6OpR2rowR06dPV17jx3z55Zezxk6qzUKR6/NE8L85+OCDTZ+fk0FjqkPNmLFYDLZt26Z6r1nvXDryyCNZ62N27typKsmGmvk5itr3ifHSixcvZr2PwXsSg97HYuR9NEqmMTF4f+bMmaw3gtPmZ16I4GTQmOqgMXNDY6qDxswNjamOQhiT3KEEQRBE0WJ77tBc0JjqoDFzQ2Oqg8bMDY2pjkIYkyxBgiAIomghESQIgiCKFhJBgiAIomghESQIgiCKFhJBgiAIomghESQIgiCKFhJBgiAIomghESQIgiCKFhJBgiAIomih3KE5oDFzQ2Oqg8bMDY2pDhozN2rHJEuQIAiCKFp0W4LSrs2Q6mpR2oFAQPlTDaFQiLUmh8ZUB42Zm/Fjiv4A+BZOLKeDOH1VvL0nDBv2DLHe3tBcyg2NqQ4zxkwnInDk7EoQBXYhC2rvI90imHjmPoj/5W7WI4jCwTdvCdTe/CfW2xuni+CDb7fAFQ+uZz2CKBxm1fjh6a8tBLdrchVUex/pdocKdc2sRRCFhVhexVrFR1XAy1oEUVj4PSIIOaxALegWQbGqjrUIorAQq+tZq/ioLvWwFkEUFn6PC8RcvlANGGAJTmUtgigsXNXFu4Cr8JMIEoVJVakbDDQEDRDBiioQ3HRDEYWHq7J4RbCKLEGiQKkNGDt39YdIoHM2EGQdgigchNIy1io+qkq9hu6rEIRVNFf6WMsY9IugTDE/TIjCRQyUs1bx4XEJUFdu7MOEIKygqSIfRbCsgrUIonAQSotXBJEplSWsRRCFw5RKY082C319fTnjBHPFW/TcfClE31rFegRRGPhv+QuITTNYb2/UxhipjdND8m3MK/+2CZ7Z0MN6BFEYvHHdsTC7tpT1sqP2PjLEEhTL1d2IBJFPCCV+1ipOplaRJUgUHlOrjL1vjRFBOhhDFCCCv7jdodNJBIkCI+h3gzdHphitGGQJkggShYXglQXAV9wiYPQpO4IwmxqDwyMQY0QwWM1aBFEYCPVT5f8p7hiBhjKvoUHHBGE2lbIlaDSGiKArWMNaBFEYCHVNrFW8lLiFnEmICSKfMDpQHjHkdGj8w9XQdd15rEcYib8Sk8XSgyoTqZQEscE062nDs/xc8J57JetNpBhOh7YPxmHF/1sL4XiKXSGMompmPXhKKUl5JtKpNPRsbgcprf3ePXdJA/z8vE+w3uSovY8MEcFkyzbo+PqnWI8wkrI6FwgGJot1EslYGiL9fCLou+Bb4F62kvUmUgwi2BtOwPJ71sJANMmuEEbRMG8a+MqL+/RxNlKJJLSu3S6LYE7pmcA3jpkG3zv1QNabHLX3Ee0JEgVL7kqY2REap7FW8eKWF1fkDiUsR75veQQQqfC7WMs4jBHBsiAl0Sash88IVBBrp7BW8eJ1iUr6NIKwkmSc3/MQLDH+YIzuyvKjRP77dEh3tbIeYRTkDs1ObDgN8ZB2JRRcbmj8w2vK4i0bal0pat2RSL6NmZJX44fd+hLs7AmzK4RRkDs0O6HuQejZ2s562njgK0vgkCZ1e61q7yNDLEGFquItUErYg8RrCWJ8oGi8W6XQcMmLqxqqME9YTCKSYC3tYPUTozFMBMVaOnJOWAznpqDoLZGta+PWf4VMMyXRJiwmFecXwQoT3KGGPQmEmkbWIghr4DhhPQJmiyFLUGFmTe5ExARhJMkYvwhWmlAM2jhLkESQsBjeE2aC1ydPWLIEkRkkgoTFJKI6RNCfxyIoVNWxFkFYBKclKPjQHUqWIDJLRUkagjAKPIeZTvCdDq0p84LXbfzi1TgRLK+S/4dOMRLWwesOFUvkBz9Zggq0J0hYCWaL4WWawSWURjHuSeD10eqasAxeVyjiqmlgLWJ6dSmtXQnLkJL8Iji9Os9FcGSfhUSQsAYpxS+CYjWJ4ChYm63chBN3BJGJVIo/T+3M2gBrGYtxlqDbK49GLibCGtI6cj676ylbzFjMiL0iiEzosQTNOslsqDuURJCwCj0i6KprZi0CIUuQsIq0DktwRo057lBDqkggUiwKbV86CqTwELtCGAGlTctMbCgN8TDfqtL/wwdAnLYP62VGbcoltWnLkHwd84L7N8Dr2wdYjzACSpuWmeHOAejd3sF62vjHZYthVk2J4feRsXuClESbsAhde4IUzrMXQROqdRNEJlJJPksQE71jEWgzMM5/KQggVFKFecIa0ryB8h6vbF5nT5xdjFSSO5SwCN4YQax44pZfZmDoqGLjdNYiCHPhrSUoVFSxFjFKmY9OdRPWkOI8GOOVrUCzyn4ZK4INJIKEBaAA8oogJnUg9qImQNsYhDVgVXke3KJsCZp0NsKwgzFI91MPQOzem1iPMAI6GDMRtALDPUmuE6Ku+YdCyX/fxXrZKaaDMY+t74JrH9vCetYxrzEAU4LODM+ondUIvoAzs/G80R6BMKdF17puJyQjMdZTz5SgD569bBH43KLh95GhItj7xj8hcuvlrGcheCDHoWkvyuvcsontUBFMxrn8mvhXQt1JrnqC7sNXgO9rN7JedopJBF/c0gcX/3kj61nHt0+YBl88xJmJ9wNl5eAv8bGes1j26DYYSmi/b5GWNVshndC+ep1V44dnLl0ILvk5n9ci2Ld9M4SvOoX1LEIWQM83fwqCQ+sZ1tRiTlbWcRihH58FUniQ9dSD4qeIIMd96Fl+DnjPvYr1slNMIvh+WwhW3ruO9azj4sOb4KrjprKes3CqCMZSEhzzyDbgOZyNybN3v71ZbrALGlg8tRwe+tKBSjuvRbC/rxdCXzkadz/ZFQsQXeC94fcgTJnNLjiL2tpa1nIY8hwZvHwRnyUoi+BwF+cps89dCp5TLmS97BSTCLYNxuHYn69mPes4c1Ed3PipmaznLJwqgv2xFJz0xA7gOZydjCeh9d1trKeN5QfUwF2f21dpG30fGXvmVBBB8JexjkWkUyDFIqxDFArSUA+XACJ6kmdbPj8LgJpSjy3OhsGojrQ/hC1Ekvz3HoogL9OrzNtfFWQTNedvpVZRUaHbv/ZJSHW0sCvW4LnkhyAefDzrOQunWoKpHeshdMs5rKeNZCwNkX6+jfnqa+4E/1Ens152tMx5teTzmPt855+yKPEXO+Xh8FkV8H/n7Md6zsKpluDWgTic89xurvVrqGcIera0sZ42/udzB8IFh09T2kbfR4ZHH4ql1q+0pR6+NDyEfUgD3aylHUmHASGWqxeYYmKKiSvtbAxGyBIsNCK4GchpDPIGyiMzTcobihgvgoEK1rIOqaedtYhCQRroZC3tpPSkTCMRzIhZBUsnYyBq4dkBwhCiyTSvBupyh84wqYIEYrgICli122KkHj4Tm7CPdH8Xa2lH0rEvIQbKWYsYyxQbRHCQRLDg4I0PRFI6RLCp0jxPhUMsQXKHFhrpAX4R1FNGSSwjSzATTUHr96+GYylI6TjkRFhPe5j/5ktxxAciWOrLZ1LeUMR4EbQhNyNZgoWHFFK3uZ0J3tOhWOlEsGHPuhBoNnGlnQ38GjuG4qxHFAKdYR3We5rPijS76LPxImhHmZpICCAeZR2iIIgOs4ZG5AenJPEd6HfVTZWV0KGZB3TSHLSn9t3uPu0ptAj76OR1Ycv3LW/ll2qTc9saLoIum8opScPaM48Q9iHhwoUDPTGCrjpnpugygoDXBaINC4SWARLBQoLfEpRASvFZgkF/gYmgWGlPwVJpmN+9RliPFOUUQX4NBHfDFNYixlPiFW1JUdvSTyJYSPCKIN62Eqc7tLK00CzBKpuCu4cHWIMoBCROd6g+ERwJtiUmUuIhS5DITZeOE728XpzqQIHtCbqq61nLYkgECwteS1CPO7SRRDAbpSiChj8NctPSTwdjCoVQIs2fNk3+a2lOd2i1yZagsQm0MZ2NbPKGvnwkPq3YVWtwn/9f4Fq2kvWcgxPTpknpFAxdhsmztc+RZFS+EQf45pb/+78FcfZ81pscTXNeJfk85lAsBUfd+Q5E5AedlTQHvfDcpQtssULNxIlp03YNJ2DlM7tYTxvJaAJa39vOetr4zvKZcMGhH1cJMvo+Mn7tJy8nxWA161iHNNTLWkS+I3Xt5l4kcW4rKPMSSilQPhslHtwTtF6IkikJ4joyABHW0asj4Xkiyu/2riq0gzEKVTa4RENDrEHkO+nOnaylHV4Hg+D2KC8iMx5RgIDPxXrWkUzLIqgjAxBhHXpEMBnjT85eE3CzljmYIoKiDfuCTgyREBwa05bu4BdBrkJmMooAeszdYC90ZlVbHyuIIpjg3CsirKVHx6GYRIT/7xZcnCAiVNqwjxVy3sEYFVWuCpJ0J9++AsLtDkURdJm7oix0ZtVanzUmQe7QgkGXJajHHVpoIRKIHSIo0enQgiGlyx3KaQnKAkju0MmZaZMlGCdLsCDo0bMnGOF3h1b5zV28Gn86VCb5ytMQu/cmpW0VQm0TeG99mPWcgxNPhw5fvxzSPXyFl0PdSa4E2q66Zii55S8jFqEKiu10KPKPjb3wjb9+xHrWgA7/0xfUQWWps6z06mn14PPbczr0lJnlMCdovOv/+jc64LldfPG9u97cxFraCMoC+PY1h7DeCEbfR6aIYOq9VyF659VK2zJKAuC7+znWcQ6OE0EMj/jmoSBx5nod6uDbW/BMnQ3eH/5JnvHq9lmLUQQ3dYXhlF++x3qEHhrmTQNfuT35WO89fgosMsG1fcVLbfBae5j11IPxgS3vbGE9bcxrDMBjFy9gvREKQgTTH70LkVsuUdpW4v1//wbBY7zLK/6jL4O0YyPrWUtZnQsEO/JZ5SHoCh3u4nPJlCw6ElxX3sF6uSlGEcS9uQNvfoP1CD3YKYJPnjIDmkywrL/0wh5Y36N98Yp1BPe8u431tHHC/tXwv2fux3ojGH0fmRMi4bN+g12hu5U1jEUIBFmLsBOJf0tCcYcSk+N1CVDqtT5MgjCW+hJzvsNhzkQKvJlikIYy8090C5KKI4hqFXVUoZN7tkPH5SuUtpV4rroTxPmHsp5xJH5zI6TftMfVSpbgxyRjaYj0891Q3s9dBnWf/ybr5UbrnFdDIYw5/weroGuI8nnqxS5LMOgV4YXTZrGesax4Ygd0cxyOiQ1HoeMDvhPhN5yyP1y+bO/fx+g5b87pUH+AtaxF6januK5QRpZgPqAnE59QTxUk1FBRQmEkhUy1id8fryXIWz0CmWrBiWVzguX9paxlLaZVmA9Quq18QI8IinUkgmogESxsqk1yhYaTaYhyxnPqcYc2B83fWjPHEvT6QRDM2W6cDKmng7WMRShT754izEPSEVQt1DSwFjEZ5SbHZBHmUmNS6ruWYf6ML6kE32a+SxTA5zFfR8z5F1wue0oq9ZojgkDu0LxAT7YYocL6pO6FSMBLIljIVJlkCe4J8Qe7p+N8AuoSBPAXrAjKuKfNZi3rkMJDOp6U2aE9wfyAN4ucGKhgLSIXFWQJFjTVplmC/CKYSvJZgqJsCfo95vw+YzFPBKfuw1oWkojLIshvtmdDKCd3aF7A6w0tIxFUS2OFs2rgFRtV+SiCvJagLIIlhSyCLjtO4yXlLyqlI5gsGxQnmBfwWoJCSRlrEblosOAgAmEe5V5zHul7dIhgktsdCuBzF7A71DPVnFiVSUFL0AQRFMiSyAt4k2eTJaieOguCkwnzKDdpD60lxO9hSyeK1BJ0T7HeHSol4/KD0nh3KHjl1bGfrAnb4bUEaU9QNQ0VZAkWMuUmZPxJyIvPSJLzrIV8z6Y4RbCy1AseNAdNxjQRdNU2gCCar+J7YZIliGCVCsJeeLcE6WCTehpJBAuaMhMsQcwpyxudpByK4fy7s+qsiTc3JYG2giRB6NJlANEIu2ANnlsfBtEEwUrc/W1Ir32Z9ayD0qYx5NXoEGfy7OD5V0HZmZeoTreEcM35HBTCmFF5xb/wlje5FxzECHalTXvu1JmGnxDti6Vg5TO7YIgjY0wsHIOO9Xz1Q89Z0gA3nTwxysDoOW+aJYgIPhsyx5iVOq2mkbUIO0jpCZSvIEtQLSVuEQI+CpMoVMzYE0RLMMl5+/HGCCIzLCrybK4Illi/EpK69rCWsZAI2ouerV4xWMNahBoagxQmUYhUeEXwmOA1iqfRHcqngryHYpBZ1da45s0TQfwubLAEzUqiDdWUdstO0josQReJoCaaKEyiIJlWZnwtVUTZE+Q8mZ3kTJmGzKwpdBFEFfRav6KUOskSdCJpXn+MjFjpsOr8JtNIIliQTDVJBPFkKPfBGB3u0GaLPBImu0NtsATNcoeioFt92pX4D3oK6oqU8UcT9eXkDi1EpgTMEcH2ML+QpTktQUyXhvvTVmCuCNpRfcGk6vLg8QImBifsgdcdKsjfG+UO1UYDpU4rSMyyBNt0iCBvLcEKkxKBZ8JcEbShkoQ0PDCSPs1oUATJErQHWf8kiW/D34VubIFCTLTg5FhBPDeC1QlMfcn/CP47Vr9ME0E9FSQ4awmWW1jX0rw4QZnk8w9C7IE7Wc86fHc8KS8ljC2dIw31Q/w7ZwOEh9kVa6A4QVxNSjDMGSPoO+gwqP3hH5S202L6EDPGfKctAefd+w7rOYs7TpsD8xrN36YpqQhCecDaxURjqduU06FXvdIOL7eGWE8bbet2QiISYz31LJpSDn+56EDW2xuj57y5Ivj2Kojdcx3rWYf3R38CoXEG6xlEIgbJx+4FiEfZBWsI1pY6xpBJvPMsSCH1D+NR0BUa6uYTwdJlp0HVN29T2k4ULDPG/LA3Dafe8ybrOYtfn70vHDXb/LhRt78MKi0WQbM45x+7YctAnPW00bp2GyRj2t2pR82phN+edwDr7Y3hIijJsHZW1A42/s3FN70HXdeexXrW4bn+1yDOns96hU1trXNONg5/dwWku3aznnrwZGioh08EPadcAN7PXaa01d48CO+cn4xCGfP1j/bAqb9ex3rOAi3BFQeYX2DZSSJ47KPbIJTg25NvWb1Vvn+137unLmqC33xhEevtjdFz3tQ9QVeVTQ9wi12WhDqk8CBraYO3hBIiUmiLZspMSMKcLwzH+BZTxUoUvTCcAojw7glWlpqzv5kJk0Ww3p5DCVhhnsgvpDRIEc7vRYcICpTkQDOlDhbBTh118YqRAR2LBiVGkHMFWxewrqSXuYEYbg+4KqpYxzqkCFmC+YbU2y4vC/lWhWnObBW4AKMyStoJOFgEe3ScdCxG+uP8IpiI8u0jIrXlThFBGbGyjrWsA09yEvkFz17gKLIRyQd6ITC0hdBEiUd0rDXYRZagJvpjvDcfVpTn/6ytDNMxXQRdQfM3oScw2MsaRL6Q7tYjgryWoDy9fc6NeTOTWRblbbSabrIENaHHHZqI8H/W9RYmbDBdBAUbRFAa7GMtIl9Id7Wwlna4U6aJIgheEkEeZlpUxsZquob5XXTFiB53aFKHO9TK1H3mW4I2ZI2BIRLBfCOlwxLk3xMkS5CXaVXOTJ3WHeJPAVaMYEFdXpI6LMHaMgftCbpsyOAvDZA7NN9Id/MnNue1BAU8GOOhPJg8zKpxpiUYS6ZhMEpCqJahOP+eYIpzT7DC77Z0T9p0ERTLbTgdSpZgfoEnW4Z6WEc7ad7FqNsDQCLIxexaZ4og0jFE+4Jq6ee0BDFxNm9kU5PFuWvN3xMsLWMtCwkNgpSk1V6+ICXisjXH932oSGiUFaGuGc1B1iO04FRLEOkcon1BtQxwWoLKFgbnrdtcZa0Impo7FElteBuiP/k661mH99a/glArPwQLHCekTZPCQzD8/ZNlC127m1pPyjT/MZ+B6qtvZ73M8zMbeuZ8NgppTHQbzvnO8xCX/3QaP/r0LFi5wNz7yilp0774fAts6NOeABvDI9re28F1svu0BXXwk1P3Yb2JGD3nLbAEy1nLWqS+LtYibCcpr7xTfC4o7vAIGXd94S+C7AKLETg1VrCDLEHV8J4OlbD+J+et22hxPUsHi2AnaxF2IykiyOkO1WGIuJtmsRahFUH+P6eKILlD1cMbLI/bGPh/PDRWWJvgwnQRBL/5tbsyQpZg/iCLIPeeoB4RnDKTtQit4FYqZY0pbjB5dpjTHS5h4mxOS7DepOLA2TDfEvTLlqANhxPIHZo/6LEEOdONKnimkCXIC96yJR5nimBIx7H/YqI9zH+4MMVRPmkUv8XzznxL0O0G0eAq72ogd2ge0S8vSDhPefLuCQouNwjl6jbQiYk42R0a1pEFpZho05FYIMVRSHeUgM98WRqLJf+a0DiNtSwkxFe7jjCeVI+OQHnORbstoTkOAi3BMp+b9ZxFOEGWoBrawvxu41RChwhavPiyRgSrrS9sKsWi3NYHYSySDhHk3VcQbTqQ5SSmVDoz5VyELEFV6LEEk3osQUeKYIMNlmBcFkHeJyhhKLpSpnF+hWQJ6sfKTP5WEpItwb5w0tTXoCy0mG3FilccwxFMIKkjPCkZ47ci/R5r3aGmB8sjqTeehegvb2A9a8BAee/ND8kyb+0HajROCJYP3XY+pLatZT1thLqTXGnTvAcsgbpb/sR6Izg1sF0NPGM+8GYLXPWX9Uqb0EbDvGngK7cm686PltbDihnGez4uXrUH3u1GY0I7e9Zu494XXH/dUvC5sz+3jZ7zgqQiL5XawbK9ucTmddD532eynkX4/OBatlL+Da0/mWoUeDghWFcq/woW/A5uD3hP/BIIJQF2wTiGrj0OpAG+07rDXUmufUHXwiOh5Ko7WG8EtTcPonfOZ6LQxnxl2wBc9MAGpU1ow0oRvOuYJji80dhQNDQCz3tuN2wZ4IiplP/urnc2jwyikaDfC5t/9EnWy4zRc94SEUx1t0H7xcv4fVtFTFmdCwRM32EyQmkFlN30DAhGJzxPJWHwsoWso53hTlkEOaaN+7Dl4LvkJtYbwcmClQueMbd1R2DF/+Oz4IsdK0XwvhOnwgEGl76KywJ2zrO7YRdHTCWGR+xZvZX1tLFkRiX8/YrDWS8zRs95a/YEvT4QPNZmASA04pa/H7fxpwGlsI5TurL68a6b7Cjm7DRqLQ5aJvioNOEgSUoWQRRCHlIJ/oNH06utT65izYaZ6FaEkMhfBCw75DJBBIfVrdoykdKx4S9UWF/Cy2mUl7gtD1wmtFPpM/47Ssq3Hu+Bm7QOEdyn3vjtmFxYYwm6XFTcNN+RLUHBZfzKXwoNsJZ2JP5T1rIlWPgHiuwGnfA1AWfGCjoFv1tQXkajxxJM68gWs2+DQ0UQRHmlQu7Q/AYXKfJixWikEL8lqNQk40SoJBE0groyum/zmeZSc1zW+ixB/tXr3HrrQ5usEUG0BMkdmteISkID41eUukQQ70ROhKo61iL0EPSTJZjPNJpkqSfTaf49QR2W4PQah+4JKu5QrzOzTzgFsWYKaxlLetgmd6gN+WqdCB2OyW+aTBLBPXryhnLuCfo8IpRaHCiPWPMvCiK4KJlxXmOWCIIudyhraERJnl1WwXqEHmoDJIL5TLNJ30+LjnJTShklDgJe+b41wRuVC8tk11XTwFpEPiLWmiOC0nAfa2lEkv+f1xuKh2LkhRehn9oA7QnmM02l5liCLcP8liDvwZiACadc1WBJsDwy9ODdMPjgXaxHqMWqYPnA9X8B14z5rGcc4V9eAcl3X2A99eCsDGG2GA4hdO1zEJR8917W+xgnB7bngnfMR9d1wbce38J61nHLKbPh6DlB1jOO65/aBi9t5XfRq8WqYPnfHT8FDqo1fqvp+tc74Lndw6ynjY4PdkFsWHu6tf0ayuCla4/OaQsaPectyR2KJF95GmL37p3BwwrERfKHWmLsZitWSU+/s0qHqaIeq0Sw/I7XQAgY/9AJ/c8XILVlDeupB+sIhrpTXB+x//CToPpbExdcam8exIg5P55CHPPZDzrhi79dzXrWccOKGXD24nrWM47rn9oOj63vZj3zsEIEXfJj4U8nTYM5QeOt9S/+swU29MZYTxut7+2AZFR7urUFzWXw8JcPYr3sGD3nLRPB9MY1ELn1UtazDu9N94PQbHCF8UQcYl8/AaO52QXzsEQE3R6ouMec9FjDN3wG0u3bWE896ZQsgj3y58shgoFPnQeVX5uYsN3pgjUZvGO+vq0PTr3nDdazjkuPbIZvHGO8i/5/Vu2G373ZznrmYYUIemUVfGj5NJhmwuGl4x/boVTC4GHPmm1c9QQPmxmEP35hHutlx+g5b9nGiVBt/KpODVI0zFoGgjGPPmvyAlqBEFA3qXiQhntZSyM6jGzafzaOKpP2nHLRMcSRuFkFTjro4xIE8JqwQMb4QF4BRHhDJMpL7NkTtFYE7ajoEI2whrEIdVNZq/Axww2qkE7yZ4xBEeQUQlc1iaBRVPjtEY3uEP/pxMlwkghiohi0Bo1mSEflfSU8gnObqN6mxAzWHaHDtFx2VPs2wxKUERttKBRsEmZZgun+Lu4bIq1jv1UsM0nUi5BgiT2iEdHxIJ4MJ8U9umQrMN9EkGcvcJS6cnu+G0vPkQs2xApKQ5zuuBzYUi3fJESTLEGpt421ONDxDBRKnOOqtptSnwv8JlQpyEU4bo4IOikXKuqfzwR36JAOV2hSR8q05gp7sopZK4I2rNCl/h7WMhYniSCYJILpnlbW0g5PNflRhFLr8w86FXzETq20flER1lGJYDJqTcq1aQcBtwhuM0RQlyXI78ZurHC6OxQJ2JDFg7OieU7IEsxJulePCOpwh/pJBI1kWo0NImiSJVgd8ChuRCcw1STX7pCOzz4Z4xfBhqKwBG2o8ZbuMycmSGyYzloOoMyc7yWtwx0q6RHBUuvLsTiZ2bXWJzWOmGQJIvUO2RecWmaOa1fXydA4vzvU+QdjZARbLEGTAmP98oMWC9E6ANEkEZT0uEP17An6rH9oO5lZtdYvKsyyBJE6x4igOaLRb4MlWOp1QcBrrWNyFMvSpiHDD/8SBu6/k/UsQrY+fXc8xTrGErvyZPmXMjcFkxXB8qWX3wPuBcexnkHI0yp0y9mQ2vkBu6CNYUyZxnMvivLN9H+vyDN74g2lNsgWMWrOj6VQx1y1uQ8ueXAj61nHS1csMiWk4YpHtsA/P+LMaasSK4Llf3pUIxzbbPwC5bY13fDXLdqfayglbZgthkMIZ9WWwpvXHct6k2P0nLfWEiy3obzNYJ/y5ZiB0enY7EIwwxJMp0BK8KVdwu+LSwBlhLrmjAJI8DMlaM9ezU7OtF25aCi3x+1mNGZZgr1RPncopjrEFw927Qcilj4txAr1q1FD6TfJJUoimB083skpgnrCI8SmGaxFGEWwxG3LYZJtPebE+DY4xB06zaRwj94Y574eLl45DY5qG6uVWCuCNtUUlAZMCpNwSOo0odx4EZT0WIJ6RLC2ibUIo3C7BPC5rbeud5hkCdY7wBIsdZsTKI9wW4IogJwiWF9eLJagTYVOzRJBR1iCLg8IfhMy+eiwBDnvIwWhkSxBo8FYNLMeuJNhlghW+gs/YL7MY14Cgx497lBeESwed6g5pxBzYpYIOsASFGuaWctgdFiCac59BURsdFDoSp6AIuhx2WAJ9piT97fUplOIRlJu0u8QS0kwzBksr+zl84pgWbGIILrd7EiiPWiSOxQrmBc4QnUjaxmLhGWmEnx5BHW5Q5tnshZhFCiCPszWbDEtAzE9xUSyggd9VhxQbVuGEj3g43P/Kh8sn25OQojOiJ6K8vKNy/mFlZXYZ51bKoKCxwsuO/KHDpiUP7TQS/bId5SrYTbrGEx/B7ea8Z4wA1G0JT+t08E9Qa8Ne4IJ2SoxI5F2kyx+d5w2B1ZdvhAeuWg+fPGQBphT64eg352zqrnV4AKkzu+CBbUlcO3iWvj3abPg/hOnwkUHmONV6wzzi6CebDH42duF5TNbtEE4JJNi+VzLVoLnmrtAXHoSgMc+c14rQrAOfCu+AoEfPAG+M65mV40l1bWLtbTDHR6B7mk7PA0OBx/EfhP3oCYjoiN7iRr2byiFb58wHR798nz4+9cOgr9eOA/O/US9bbXtRpkd9MI1i2rh0ZOnwcMrpsP/LZsCZ80NQsBj7iO7Q4clqEcEK20q2YVYLoJuO3JuRkKsYTDyQ1fc/xPgufgG8P3i7+D9zm/A/flrQDz0BBAqbIiJzIgAYt108Bx9Jvi/dIsifOW3vgC+068CV+Ns07KrSJ06RJDXB6bs0ZIImoFdqcbMzBwzFhR6PDAzrykA31s+A165YjH8TbYSb/zUTPjM/BpTYwvxzNEBVT744v6VcPuRjfDUKTOUivHn7BuEplKPInxWre06bLIE7apbiVgugq4GG4rRRk0SwbHIlqAwax64jjsdPF+9Ebw/fQI8sii6lp8H4uz5svVVw/5DkxFEECsbwDVnMfg+czmU/eBxKPvRM+D//A/Ac9hnwdU0R/7WzV/lprp2sxYHvM89b4ny+xPGM1V+SNuBWdUkcuGRlekA2Uo8c1Ed3PbZ2fDC5QvgoQsPgC8tbYKDZKGsCXi4l1seWXAx+fWhDX649hO18PQpM+G+E6fCFQtq4LgpAWgstc8tq2dPUE8FiTKffZa30NfXl3PdrTb9jJp0NskX/gqx+25nPWsQpswG7433sZ4NoH8vlQKprwtSqx6G9CtPgxQZZj+cHLVp0wSvHzzLzgPvMWcpIggut3zRrltJfnj99EJIbnqb9bQR6kliUXrNeGbsC/V3PpZV5NWmW0KMnPOjFPKYv3ppB3zv8Q9Zzzoe+MIBsHhqflUFwS3rpPw/O3uicP/qDnj8/R6I46GQMWRKm4ZW3fmydbdiRhmUydYdWp/5xpUvt8ErbXxJClrX7YBkhO8w3HvfXgp+la5eo+e85ctmoaqOtSzELHeoWtA6ccsrx7pmcJ99BXh/9jR4f/Rn8Hz9VnB98kwQ6rVbx2J1E3iXnQ+ll/4Cym56Gsp/8RaUrLwaxFp5LEzsbfPeWEqHO5T3hNnIniBZgmYwvdqemFi7LMHJQO3CuMm59X7FXfrW1Yvh8a8cCLefOgdOW1ALFeyk436y9Xzx/Cq4+5hm2dqbAU+eMl1xcVbKVk8+CiDedhHe6i3yX0txukPLSzxQYvJe52RYbgmmd2yEyA8uYD2L8JeB765/sE4egvE1Hbsgvf51SG98F6T2nSB1tcofVmrEEnSJiuiJTXPAPXcJuA86FsQp+7K/nIfI73vw0gWso53hziTXvqBv4eFQe+PvWW8ixWK1ZULvmGt3D8BJP3uN9azjztPnwPL982V/XT1CSRnUlJWwXmGA99wFL7TABo4kBRge0bJ6C+tp46CpFfC3L81nvdwYPeetl19craOrzkoU1yPnCscKZKsNM524TjwHPN+4Dbw/fhC8dzwBrjMuhZLlF0HZraug7ObnofQbvwTviovzWwBl1Lp6M4ILAs6vylVpg5ehSJheY48l2D7Iv89kJxU27nHxgrddJMl386UwLpiTKZV7u42txnp3qMcrP62snyBSdztrFQZCWSW4P/V58H3uGhAr69nVwkCKDLGWdvRUlHdVkwiaRVUpuqysv2/bh8xJnUZMBO+86Li9TbVInH8PsaNe5VistwTdbhAsOJ04gc4W1iDMRo8ISjq2gFw1lDzbLHAHC4XQajqHCtMSLEwk7j3BdJL/xp1TV2SWILjRErQ+O0CqQ8eRfUITUpjfHZriX1CCq9acFHDECEEbYrk6h0kErQK3ISKcFp0eESw6S3DEHWpDipzOPaxBmI0UGWQt7UicexKIq96kZOCEQrUJVd5z0TnEd+Se0A6GfWACbR5SOkRwWlWxWYI2iaBE7lDr0HEwRpc7tKrAc7nmOXYUPiVL0Dp26nA9pzldOFidJOCzwSgag/UiKLpAKLFe+aVOcodahTTcx1raSXOKoCAvrMRg4R2lLyRqbBDBWDINA1H+LCaEenYN83/Oac54TowPtDtmUpBUFIBSG2+hNn6j98eXQOTtf7GeRZSWge9nf5dF2Hrd10NtbeGVa4o9cgfE/vF/rKeNUHeK64QolrUq/fnTrJcZtfMTMXrOI4U+5u2rdsGvX7V+W+Gprx4Es2sKK+YuGAyCx2NfPkwe7t3QB798n6/iTveWdgj3aN8GwfRzz1++GKY2qE8rafSct0URXHYUPk3L5jpnkVdCG+khzvqNivbx7UkIlWQFmk2VTeVuekLkErWCXXrcoQk+KxJLdLlstgTtEcGmGaxlIbIISvEo6xBmInEWMUb54w2Uz5+qHc7FjhAJ5J+b+mF9awgGozo2jImM4O3WHk7Cmx0ReK+H//nIuyeIxZpdNjvnbPnn3bU2xHNhEus4WYJWkOat5M8pgIhQFmQtwizsOB2K3Pd2O5z9hw1w2J1r4MI/fQSvbR9QklgT/IQSaXjgowE46fEdcMpTO+HyF1thj45DSClOS9CHlqDNeY7tEcEmG9yhyQQk7rkOkg/8FNIb3salC/sBYQSp3R9C7PGfQ+j2CyDdupld1Yr8ZOO1BK0qVVXEVLLE0Hby1s5B+MqDm+CIn62Bs36/AW58die8vmNQqUJPZKc/loLHtw/C1a+0wxl/3wUnyOJ353vd0CdfN4IU58EYLKFktzvUloMx6JZsPXuR3LBv4gr+AAjzl4I4/1AQpu8LYtNMAG/+VYfPy4Mx6TSkO3ZAqmUjJD96C1LvvwzpPv1p6ST5QTbczXczec/6OnhO/gLrZaaYDrGMx4gxd/RG4aR73mW9/AIL4h4xqwIOnxWEeQ2lykEatDLswu6DMf3xFGzuj8P6nii81haW/4xByqTnLQbKt6zeynra+PT8Wrhz5Vxb57wtIoi0nvsJkOwucTQGweMDcelJ4Dp+JQh1U0YKtNqQ43Q8eSGC0sh+qtTfCfHXH4fESw+BFBpgPzSOVFKCcA+fCPou+g64j/ks62UmX8VlPPk65lA0BUv+5y3Wy29KvS449aBaOGdxHTQHvVBi8QEMq0UwkZaU5NerOyPw4JYB5U+riIdj0L5+J+tp46LDm+HbJ8ywdc7bJ4IXHQ1Sbyfr5Re4vyRU1YNwwBIQD1sOomwp2oWdIpju3gOJt5+G5LsvQLq/AyQ89YmnbE0iFU9DuI9zg/3ym8F9yCdZLzP5Ki7jydcx8UGx4JY3ldi9QgG3m6pLPdBY7oVj5gThMwfWwMxq88MtrBBB3Bd9oyMMz+wYgg/7YtAVSUHYhu8m3D8M3R+1sp42bvjULDj/4EZb57xtItj29ZMh3cJnQluNUN0Awr6LQJy7EMQ5B4LQPMuyeEPLRFCeBunuFkhtWwuprfJr89uQatuuWIFWkQinITrE9++VXHs3uOYdwnqZyVdxGU8+j3ni3e/Czr7CPmWNInjI9HJYMq0cFk0JwPQq40XRDBGMpyTYKIsdnuJ8tysKq7siygEXuxnq6Ie+HXwGza/P3R+O26fK1jlvmwi2X3s2pDatZb3CAo/ji0d8ClwHHy8vM2WBxJOJJomiaSKILs7wkGzd9UJy3b8g/uqjkG7fxn5oD7GhFMTDOadjRvw3/hHEGfuxXmbyWVzGks9jfuG+D+DNHfy5YfMRFMUzFtbJD+Mg1JZ5lMrweh2nRoggujjxQMueUBKelK29f+wchqieDPMm0berC4ba+LJEPX3JIphb57d1ztsngjddDKk1L7FegSLIwocHbMoqwXXYSSAe9WnFajQSo0UQ9/YSrz0Kidcfly2/3YoQ5stJ2Uh/EpKcUSyltz8KQu3kCbTzWVzGks9jXvfkVvjb2vzcxtALpu8qL3FBU4UPzl5cB5+eV63sLfKgRwR3DcXh4a2D8OKesHLAJSxbe3xLQ2vo3toO4W6+hdHq/z5U+cztnPNCX19fzs9X7WBq3xwi/eEWCP/rMdZzCLIoCo3TQJixP7j2XaTsKSqHbHSgVwQVS2/jG7LV/TakdryvnOg0c19PD+GeJKQ40xc23fcmiOWTz1Mt89OMOe+EMX/6/Ba47VneEJjCArOZ7Ffvh4OaAnDYzApYOqMCylVWjNcigjsGE/BmRxjWdkdhQ29MtvwKK0NOx4bdEBvSfhDHLy8wdt5yktK2c87bJoLCw/fA8FN/ZD2HIgjK/qF4yAngmrcEoKZpJLOJhuBQrSIohfoh3dOq7Osl3/k7JLesYT/Jf4a7knxbkKIIUx7+IKdLOp/FZSz5POZD7+yBb/x5HesVF3jbHjkrCJ86oBoOlIWxqcKrxLllIpsI4sO2O5JUXJxvtofh7zuHoaWQ08LJv1D7BzshHtLuwpla5Yc13z1Oads5520TQdc/H4LB++9gvSIA7yC3B0TZMhSXrRxxnXpyxyWqEkFMBPDeCxB/7veQ2rMJYw3yxsWpGnkWDnXymYGu+inQ+OtVrJedfBaXseTzmC9v7oEzflkYYRJmguEWHvmF1uGXljbAIfKfY5e240UQD7Dgvh5maemJJiEhSXaGSRsG7qZheEQior3u48JpQXj+yiOUtp1z3jYR9K5+Afruup71ihCXG4TG6SBMnQOuA5eCcNCRIJRVsB9+TCYRlKJhSG18HZLr/g2plk2Q7timXCtk9ATK+xYeAbU3/o71spPP4jKWfB7z/T2DcMKdr0HaCU9wA8Fg/Tm1I67T4+dWwsJ9GmFNbxJebg3D9qE47B5KQNyBud4k+XdqW7cDkjHt1uyx+9bCX782cqLbzjlvmwiWbFkLPT/6GusRaCmK+ywAcdFRIMyaD0LTDBDKKxURlCLDkG7frqQmU4Rv4xsgOawiRjopQYgzUD7wyTOg8hs3s1528llcxpLPY27uHIbjbn8VEnl4SjGfaJg3DXzl9lZMtwIpnYbWtTu4coeuXNwMv/z8QqVt55y3La+QWKHuFyka5JV1evN7kPzrPZD4yWUQv+rTkLztMgj/4hIYuvoICN16DkQfuBGS6190nAAiegwLW0pzFSk+t/25Hon8Ae/bNOdBu5oy64s0Z8I2EXRVGnv034mkZFFMrH+p8Pb3ONATk29LQvYiBfNx2l0JnMgjZBFElygP1YEiF0ExKIughlOShLPhvZEQtx31KYuUEo/9RVCJ/CGVkhfonG6coE1FmsdjmwgKvhIQA+WsRxQ73O5Q3EulgrqWUeJxkSVI/IdklD+8o+gtQUSsrGMtotjhtQQFjxcEd36sKIsBj0sEt92lwIm8gedU6Cg1NhVpHo9tadNwzOhPvwmp9W+wK0QmyupcIBTByjs6mIJERLsQimUVUHLrX5XUdbnQOj/VUIxjnvnb9fDenmHWIzJRLKdD9eQNfeziBTCvMaC07Zzzti7pjM6zSRQuvAdjlIQDLrIErcSKUkREYcATJD8KJirPB+x1hwZrWIsoVrCQbnQwDak456ag2yNbyvYXPy4mZtY438IhJicRjUPfzi6IDfAX760qJREEoaaRtYhiIZWQIB5KQ6Q/BaGupFJJPhFJcx+MwT1BsgStpbEiPw40ENaB1eMH2/qga9MeaF27Hdre2wFD7X3yfcvnwsHqHLwVOozGXhGsqmctwqmkU5Ji5UWHZNHrlkWvNwWx4TQkY5IhxSwEL7lDrWZmNVmCjkZekSZjSYgOhJU9P8wIg/lB++V2pC+k6zDMKFMqfbprNhqFvce8/KXyU4yOWzsNzAMak6294a6ELHwpCPfJ1l5YFj0TYv5duJCiOWQpM2hP0JGkZatuQLb29shWXuvabdC5sUU59JKM8e/7ZaOhPH+8CfZagkoVBXqAFToobolwWhE7tPYwEXZctvaktPnfrauOXOpWg0fbMVSCKGww3+dwxwB0bWqFVln4Wt7eCgOytZcywNLLxZTK/FlI2TuTfX5axRcgioszJlt7stDhnh4KX3Ro5HCL1RneXDqLFhPawTs24CURLDRQ9NDFOdDSA+0f7II9a7ZB744OiPQNQzIqW3vcGSu0M72SLEEFgUSwMJDvDQwnVaw9RfRSEO6Xrb2QLHxJ626cTGAtQcJ68uV4O5EdvGfTSfle7R78j+ihi3NgTw/Eh6Psv7KHqWQJMnzyB0EimJcoohdlpzh7kjDclRqx9mwWvfG4G6exFmEl5SSCeQlmXgr3DisuzrZ1O2HPu9uhe2u77aI3nsZg7oLiVmGvJejF1QCJYD6Aoqe4OGXrTtnbQ9EbYKc40cWZX9r3H1y1zaxFWEmwhGIz8wEplYboYAQGWntlK28PtKzeCt2bW//j4sR6f/mGKBs+5XkSHoHYVlR3dMy2zx8K6eEBpU1MxKy0aYr7X141omWH6cpQ7AoOUYTAva9AZbW6pAs88zMXxTrmhb9fA8+s72A9YjxmpU1DSw9dnBi3N9w1CFFZ7FRkvswrsBzXy9ceDTNrStkVe+e87bvbnqmzWYswHfleScXllSO6OLuTSiX3SP+ItVeICIGgPIPJIrGDoD8/kh8XC7GhCPRsa4fW97ZD67od0PXRHoj0DhWcACKYgB2FMF+w/Z34j/0suKkyuCng/YEnNuPDI7F6wxis3peGhCx6mOihAO+f/yCUloN78dGsR1jNUfvUwCxKn2YO8n0ZD0VhsK1XFrtWaFmzDTo27IaQbPml4knFBVqolPncsGy/2rzaU7bdHTpKsmUrRF58HKJrX4dk1x5I9/ewnxQ3mtyh8jeZTssClwRF6JIxjNVjPytwhJJSJc2eOH1fcB92ErgOXAqjmWLscgkixT7mzr4oPLG+G17e2getA3HoHo6jl73o0eIOVfbjZXHDTCx4qCXcM6S4PJ1AwOuC5ko/7NdYBp9b0gwnHFAH3gwxpnbO+bwRwf+Qlh/ciTikOltg+Mk/QOjFJwFi/ElaCx01IphOytZeNA3JiCyA+G066CEkHrAEvMvPBdcBByvJsjOlSLNbCNTi5DFR+OKyhdIxFIf73mqHv7zbAdGEQ1ZgHKgRwWQ8AcPtAxDqHoR0KqXs9zmFxVPL4cLDmuDTi2eA3yPmTK5g55zPPxEcR39XB6Tbd4G0azMk170KqfffAik0yH7qfDKJIB5mwZOcI8Hp1geom4boAt8Bn4CSg5dBrHk2iFPngBCoYD/MTr4IQS6Kacyk/EDf1h2BjZ1heHlLP/xbfg1EzM9Eki9kEkGswh7pD0F0MAyJcEyx/JzCIln0ls2tUsRv33o/VJeO7BkXwpzPfxEcP2YyAalN70JqzYuQ2vYhSO07QQo7t8AniiBad+nkyP4eujidInpYAcLdNAPc0/eRhe9Y+fVJpUguYudNgdCYudEyZjBYCa9v64W/f9ABa3cNwKbOEPSFjM9JmS/UyyLo8XmUensoehiyoKf2Xj7hkhflWFNybl0pHDWnEk7Yr1oWvcx7fIUwPwtPBMcjpRXrMP73+0HatBaklKwQTtkIkxFFxUPsDDAxgmztueuaoezUi6D0+NNBwIQJGbDzpkBozNzoHfPN7X3wi1Xb4KVN3ZBAj0Yhn9Qah+gS5cWqM25c9EOh8GG+z68cPRNOn1+RcV8vE4UwPwtfBMdQ4XFBqmM3xDetg8irz0Bs/VvyVefcWIWKiNbe0hOVfb3g3Pngqs5dQsvuuURj5saoMYeiSdjVG4H1rYPwl7d2wZs7BmVRLN79xHxhZm0pnLqwSTnNOaOmFJqCPiXQ3Wnz01EiOH7MdGgQYmtfgdi61yG++X1I7toMUrJ49iVsQb5JxPqpIM7cD8R9F4P7wKUgNHyc2qxQ51I2aEx1aBlzQBbFN2QhfG17P7zfGoJNnWGIJUkUzQSdNNOq/LBwWhCWzqyC42Thm1tfljGrpdPmpyCpiLZUO5jaN4fYMaYUDUHytWch/fITkO5qg3RkGADdpwQ/8l2C4QuuYDX4D18BgZPPnbSyg1Pm0ig0pjr0jBmOp+CxtW3w+9d2wc6eMAzFkpBMkYdHDyhupV43lPlcirV3wRHToM6bZD+dHKfNz6ISwVEqg0FID/VDurcTIu/8C8L/fASS7TvZTwk1CGVBJV7PLQtfcNZcEIM1IKio8O64uURjqsKIMfFB1R9OQMdgDFZt7IL739gFW7rCIz8kVFHqdcHKTzTDysXNMLuuFOrKfOBxjZh7xTo/i1MEM4yZbNsJ8Q3vQEx+xTesVvrExwgV1eCauwBc+y0Gce5CEKfP1RysjhTDXMoGjZkbrWPu7o/B6t2DsHrXELyzaxC2dhdvTHEmqko9cOisKjh8drXy56Kp8uKVid54inUukQhmIdm6HcKrHoPQWy+A1NcFEib5dtDptckRQCwtAwhWy4K3ADxHnqL8qRxVzYCTvvdRaMzc5OOYbYNx+NvaTnhhUy+0y+3ecFLJyFIsYIaWunIvLGgOwMqF9bBi0XTlMIsainUukQjmoL+nB6RYGKSedkj+6xFIvv4cSLiX6EDwVik5/CQIrDgXPLPnwSAG82KWlhw48nunMXOSz2Om5MdaOJ6GzuE4PPZ+P/z5rT0wGHXmoThRFOCY2ZXw+UMa4aDmMgj4xP+EMNBcyg2JYA4mjJmMQ3rPdkjv3KjEJ6Y2vD1iJRYggixw3oOWQsnCI8GLFt+cecohl1Hoe88NjakOu8fEgzQfdQzDupYBeHlLD6za2A29BRqsjynIlkwrh6PnVMKBssU3rzEAwSwJqWku5YZEMAc5x0wlIbVpLYhrX4bE5nVKnGI6NMR+mF9gEWOsxO6esR/4Dz8RSg45Xsnakg363nNDY6ojH8fEYP3H32uDd3b0K6dO+8L5aSn6PCLMqC6FfRvK4NMHNcLy+XWQVOmNou89NySCOdA0pvxRSrIoxj94G4YevRdia19lP7UXcdpc8HzqfHAfegJU1tTI37q6bA/0veeGxlRHPo+JT0DMVvPOzn6447mP4MXN/XmRvWZufQAuOXYWnHXwFOUE59i9Pfrec6N2TBLBHOgZMx0egtSebRDfvB4ib/wT4uteNz9/jXyjYKC6e8nxymEWsXE6CMGPK6/Td6QOGjM3Th1zOJaC7b0R2NAWguc/6lUy2JgdrI/yNq+5Aj69oAEOm1UF+8gC2FBekjFYHaHvPTdqxyQRzIGRY+KBmujql2DwzRcgvfMjSLfuUBKC68LlAnfTdIDmOeCafwi4FhwJQlUd++FE6DtSB42Zm2IZE0Xxte0D8OKWPviwPQRbuiO6y0RhLs6plT7YryEAh8+sgOPmVsH8GQ3sp7mh7yg3asckEcyBqWMm4pB89WlIvPAwpDtblH7ObNny0lDw+MBVWQWlJ54NgeVng1hRTZ+nCmhMddCYkxOVrcIXt0fgVy/tgG3dIcVKTOWoBYgWnc8lQnmJC85c3ADnLmmQLb299+PpO1KH0WM6OndoNvJuTHkdkh7ogVRXG0TXvgKRF5+ERMtW9sMRxJoGcB22HNyLjgahthGEYO1ecXv0eeaGxlQHjZmb0TExDrFtIAav7xiAJ9Z3wcaOvTPYVPo98LmDm5UDLTNrSqGxQl7AjqsPOgp9nuowekwSwRzYNWaybRf0vfUvgFhYqb4gTt1nZDmZBfo8c0NjqoPGzE22MVtlQcTk35gE/JDpFTC/KQBV9HnmxM4x1R0TJCwH9/k8x54KnpPOVU53TiaABEHkB81BH6xcWAdfWtoEB8oCSHdt/kMiSBAEQRQtJIIEQRBE0UIiSBAEQRQtJIIEQRBE0UIiSBAEQRQpAP8fcVVDB2NXJHIAAAAASUVORK5CYII=;" vertex="1" parent="JZUDk3lIRAv1eScNHPHP-8">
          <mxGeometry x="27.66" y="120" width="145.36" height="90" as="geometry" />
        </mxCell>
        <mxCell id="JZUDk3lIRAv1eScNHPHP-11" value="" style="shape=image;verticalLabelPosition=bottom;labelBackgroundColor=default;verticalAlign=top;aspect=fixed;imageAspect=0;image=data:image/png,iVBORw0KGgoAAAANSUhEUgAAAacAAAB/CAYAAABL9Q1uAAAAAXNSR0IArs4c6QAAAARnQU1BAACxjwv8YQUAAAAJcEhZcwAADsMAAA7DAcdvqGQAAE6xSURBVHhe7d0L2H1FVT/wY5bdr5YUqUlFkJamkpaaGSaICmiYYYqiWJGaVpIlWqZPUmKPBSEXQUhUREBLTZOkAlNCUSNRK0SxMi3MMrva7fz3Z+L7+w/DPuc97/t7L+f8fvN9nnn2OXvPnsuambVmrVkz+1bTAZOOjo6Ojo4lwufcdO3o6Ojo6Fga7NGak6qlere61a3KtUaefc7n7L6MXiuvFovE6ejo6NhbsVcIp1mCwLP//d//LeG///u/y/V//ud/dgkZv92/9a1vXdJIIMyEz/3cz5183ud9XnkOeW8RwbNInI6Ojo69FXvFmpMqCoRNBBCh4/of//Efk3/913+d/Pu///vks5/97OS//uu/yjP4z//8z/LsC77gC24mkITb3OY25f6XfdmXTb7wC79wl5DyzDXxZwmhLpw6Ojo6ZmOvEE6EzD//8z9Pbrzxxsnf/u3fTv7mb/5m8pd/+Zfl6t6nPvWpyWc+85kilCLIIAKtFjKuQgTVV3/1V5dwu9vdbnLHO96xhK//+q+f7LPPPpOv/MqvnHzxF39xiVdDul04dXR0dMzGygknxQ1zn8XgCaJ/+Id/KIKnFkT/9E//VMI//uM/Tv7+7/++XMWlHdGaaFWLIvkTPl/yJV9SNKiv+qqvmtz2trct1/z/2q/92smd7nSnIrAIMPcIK8Kto6Ojo2McSy+c2uIRIO5lHchv2g2z3L/8y78U4fOxj31scsMNN0yuv/76yQc+8IHJtddeO/mrv/qrm1LYPhBchNLd7373yV3ucpfJN3/zNxfNilb1FV/xFeX553/+5+8SsupSC9z6d0dHR8fehJUSThFMEOHEFEf7+fM///PJu971rsnv//7vl980J+tHCVlH2k4oX9anrEn5TaP6vu/7vskDHvCAyUEHHTTZb7/9ynMgZCFmxC6cOjo69lashFlPEQmmMGv/OTJ89KMfnfzpn/7p5G1ve9vk4x//+OQTn/jE5K//+q+L9mSdCdZjqttstAJGuQnVO9zhDkWj+oZv+IbJAQccMLnHPe4xufOd71zuxZmiC6aOjo69GSslnFwJHoLoL/7iLybvf//7J+95z3smf/iHfzj5t3/7t/IcMHjIezuFVgNqy8Pb7/a3v/3k3ve+9+Se97xnEVDf+I3fWNamaFgdHR0deyuWTjjVxWm1Do4LhNFv/dZvTS666KKiKY2BcGoFwVoY01Tae2OkWot80oiwrKFsdfm+9Eu/tGhSj3/84yeHHHLI5Nu+7dtGy9RikTgdHR0dq4alFk7gP1dvjg0XX3zx5L3vfW9xByeYeNiNAcNOAEJgVjU5JfCg+/Iv//Li+k1jsQYk2L/0RV/0RbscLqxtcbqonS/+7u/+rmhts6AMszS5lClu6ZwjmPa+5Vu+pWhSD3nIQ4oThbJ5L/XJe/53r7+Ojo49EUtp1gsTt67EuYG2dNVVV00uu+yy4omHKddMfgzi1MycQwLh8zVf8zVlXxKBRPDwmuP+TQAIhFWcFwgLAiplIYSE/LY3ipAkpPznhME9nTAltDhhtOUYI3fMf3lGQPLqu9/97jf57u/+7uLtx9xHYIqXunuvC6eOjo49EUspnHjXYfz2J9GW3vSmNxV3cAgjx6DnFV08QoZwIWQIoQMPPLCYy6zt0E4IKoIgcSJEFoH8CZ9oUPZNWQfjvk6g0vA8o90JBFq88VrQrOq8pR0BdN/73ndy+OGHl/B1X/d1RXhGIHXh1NHRsadi24XTWHatUMDgL7/88snLXvay4pGH+TOlhRFLY61iEzrWcO5///tP7nrXuxbz2L777lvWdggjzgi0owiG9QimQBkIEUKHoIoQihZlr9UHP/jBIqi4udsUXEOe6uSatKCumw2+HCS+6Zu+qaxHcUFXjxopu/c2Uo+Ojo6OZcNSCKeA+zcT3h/8wR+U/UrvfOc7i1AKakcHTN3vOj1mOxoRQcQMZg+R/5g50120jq1m4MpE+yOgrI9xb6dVfehDHyqC98/+7M/KM8KsLk/q0taLECWkvvM7v7PskXrwgx9c6ugeWtT1iQDv6OjoWGUshXCieVir+fCHPzy55JJLJm9961sn73vf+8qzmvHWTDzCicCyfhTBZJ0GE/ebxtGazLYTqav8OVOo37vf/e7JH/3RH02uu+66sn5mzUq8lNGVwIkWFbgvHpPkIx/5yMlhhx1W6midDJKG+nZ0dHSsOnZMOIX5YqYYt71KZ555ZjGBcSjIiQ6EULQBQgwDDgOXlnWjQw89tGgThJJ9Q9aaxIGdEk7KljpGkCo/jYpLvM3Db3nLWyZnnXVWWZsKlLd+FyJ0vO/KNPmoRz1q8oM/+IOTgw8+uMSp6dnR0dGx6thRzSmM+sILL5y8+c1vLusy1peY98SrTVR+Y85A+FiDsXn1u77ru4qTA+82pjuODRCB5LqTwsk1ZUg51OPTn/50Mfdx9BDU3UkXidM2S50GWqivuhPKtCgOH+7n/Y6Ojo5Vxq1/ccBNv7ccGG6YNc3ISeFMeITTH//xH5d1GKiZcP2Oq0NTaUg2qj7sYQ+bPPCBD5zsv//+hTlbmxGnTiO/dxqtoLX+5cRyZjpeeNaPgOaDNhwroK2HoI5o9clPfrKYQ+MGzwkkcUM3yL2Ojo6OVcG2ak61JsF0x+nhhBNOKG7Y2VCLOdfMNO9g6DQmQulpT3taOTQ16y0t6irtFGNebxlokIT1+eefP/m93/u9YvajWXo3go3G1TYXoWbD7pOf/OTJEUccsUtzRDfxCexaMHZ0dHSsArZVc8JoMU2muwsuuGByzjnnFHdrTLhlumHo7mPAvNMw4Mc85jGTb//2by/rLrOYrncTdgqLlkH9BPG4uDNXcoG3QdhnPuKt6PksGuW7VISRvVyhSwT9WmXo6OjoWDZsq3BirnJyAo885+NxG8/6Uo0wVILMh/psRP2BH/iBsr7CDBbz1aoz3dRbPdXFCRC8Dp1gwdGDgEIzG5LHBHiEEBOgOLQv5kIaJeFd02fVadXR0bF3YUuFU8tMmfKuvvrqyUknnVRcxQmmMNg6LkbKHGUdyZrS0UcfXTQmDNt9z1eV2bY0gdyLp10Ogf3Wb/3W8szaEm0zZr3UPzRAQ5qTeDb6etd6Vr4T1WJVadfR0bH3YNs0J9qBNaYzzjijbEK1xoRJRmsQwqRdaQ+EkkBzcqIDJhzGusoMVp2hrksb1JWQspmYZx4THwFES6rpgFb+u6KpdSv/aZdMoYkj5B2of3d0dHQsG7ZFOJnxO+3hjW98YxFQTFAYdJgmZgp+g0+aH3nkkZOjjjqqmPFqN+mEVUbq6VoL57pururMtGeTMY8+gokGRUglXtICv5n/PPcuDYqZj0YmnzovyLWjo6Nj2bDlwsmCvo8DvuY1rymnin/kIx/ZpTkEYZJhqD4VQWPihRYX6wiwPQG1cLKmpP4RvkGEt/s0KKdBAAHFu5EQiplP8G7S8Vw82qZPcKBh0k68/O7o6OhYRmyqcArTDTA/R/TYy8RF2jeZ2jgQBktLeMITnlBOP7CXiet4zaRXjZmO1VUd3E9dmOJoNrULvToTPPnvaq0t5wTawMt8R0MKkhc6+c3x5E/+5E8m3/Ed31HeqYV8nW5HR0fHMmJThVM0IkxPwESdenDKKacUl/HsZcIgwyTDVK2P8MhjyuMIwK0axEn8PQFopE60G+tIhIi6Mr8FoV9oVP8X7w53uEN5D31jwgt9IswFAs5/J2fYqJz0gvp3R0dHxzJh0zh+hEyAMTqW54orrigzeOfHhcEGYY7Ow3Ngq7Pi7GHiTh2076wa0CVCG9CFNukMQXRRv3jp1YggSQBXgsYGZBtuHV+EVnnf87odmP6cvOFDjb6NJe+Ojo6OVcCWcH1M0DeNnHTgQFfAbGO6yszeb6Y7X3v1MT2fg7BHJ88g11VDhBJaCH5bX6LtOJXc+pvPaNAYa2FcC5cxoAdNi5b58Ic/vJj66mObasjX+X2EEw1Wm3R0dHSsArZEOPEow4B9HgJzJJTCqF2jCVljoilhstzF8xyjrQXUKkLZI5AjPBxJdNppp01OPfXU8owJM+bLCBfvjQVAm9DHMUXf8z3fMzn++OOLN597no2BluZEDmZEjhJJr6Ojo2NZsanCCdOjHWCCmCEHCLP1MEMMtA4OcWXKu8c97lH2NeU+7CkMlMDgsUhTcsAt5xB19XVe60CEV+q8FkITV8KNe/l97nOfIuRoUGPpiGuy4NPxPuJostDR0dGx7Ng04RSG6Zw3a02vf/3rdzHClmli2PYu0Zp8OM8mU+8nrCrUM5qN4AQMX8K1x+sVr3hFoYlTHJgwrRdxblhPfUPjvOMECM4RPt9O80TTNr3EJ6DsMzNhiPZUl7ejYxGkb8/6PRY6thYtnWvat89WCZtu1nMs0eWXX14W4wFhmOtaAllfeuxjH1uYK9MWJpoQxrlqwOgT1MFXbgmkY445ZvKGN7yh3FPv7/3e7y37uTYK6QTMezYtP+hBDypmPppY6AgxlXJIufLKK4uplWYLdXlXtQN3bD30jfSP9BVXVpK6D+lrdcg7vW/tPtIGYyH0b+9B/WzVsGmu5AiAAWLGDnX1vaExgmCmcRvHUHP6A2C6dVglpK7KzYxHQ7nooosmr3vd68pxTbQoXnb2cTn1gkBOR1qkvonTxvMf/ZLeNddcU/LCHBI375kw2JjL6cT+p/pZQkfHPOgjTPW8P22s5/DkQ5nxCn3HO94xefvb3162ONDsje+817E5iOCpx62x734m91DzloRVwqYJJ3uYeJ/99m//dvEMmwWd1WfVfb3VF2yDVSPcGNSBUH7/+98/edOb3lRo4eR1cEaeU9WtsWVPk84Du9Nx0imdpcfzEdOwhwpzoEVBOqygnTii0LI4aoiTvDdaho69B/qIvnXdddeVczI5PrGWmBQJtke4mgA5nYRlJO91bA4idExAHQX30Y9+dPLhD3+4nL5j/2M29uMH7cR/lbBpZj2fazCLQiREqJleDZ02Z+ZBZgGrjtTVwHzZy142+fVf//UyaMEzHokPfehDd2mKEUxB+38RRDABQcNUeOyxx07222+/cg9qweS3o6RodTpy7azS0bEo9DnWAaeUfOhDH5p88IMf3BVMUE2QbJmgwe+tMDY3MqZnIWMYjGMBz2WVOffccyfPec5zJs94xjMmz33uc4tGa3zHtLqZ5dhOrFs4pbJ1IKmtr7zlLW8pndO9EAZBI6h4lDk3z9VxOlFDVxF1HZnL1J+LuOBwWzRRZ8LIUUz3v//9JwcccEB51/10MMF/Yb3wDtomDYJfXgIBpXxtQHNlvfjii4ug6uhYC+mfG+mjezKM/YSxcSb4XcfbHXhfmsDRivfts5/97LKMYiJMMaC5vvKVr5ycfPLJZeuKpZZV5bG7VeoQmymLq/L1119fZkxQN0R++8rrwQcfXL7LROWEVez0qY9ym73wTnz1q19dPqLI6cCM0mIx+K4SrYmmWG8wbsN6MZYGG//tbne7yb3vfe9iMpVXG4DZzwZp5oB8abejo2PjaMdiUI+7+v5GkHSAU5M1PvyGUDKmmfh4A+PF7lsL9H233c13p7Bh4YRQkeJm4D4iOHYCQRrHQjzhdK973av8XiWkDgka25XZQsfgiffCF76wuIxzpfccbTgp0JYe/ehHlz1J7tVpJOwuUh4BnOZu7xhhNZY+t3Ibc5lkTCw2qxwdHXsrjD0TUts0rMnRWOoN75s9vkwsmefDg1vgxYTTKltHNiycEDvqIgZtc2kOIWVqSvDfeoiz88zoaU3enUXUZUMYfpBOhsETyITSOeecU4SSuLUK/f3f//2TH/qhHyqCaTs0RfkzIzirkHs58ynnhxrKlzIywWq7jo6O9SNjmVmfIwJhwaRvzfm8884rmo2xtpnjPfyIxYam1PKnAB/w3PLCqmLDwgkQnTpp8U2gSSBWGwgpggnDNJsPg9wqJr0ZiO0YUo+UF0N/85vfPDn99NOLZyIzng6aeOpIS7SfybmB/hPQ21Fn+dNMeQf6xL01L3nWNE8ZOG8YULVdvNbuOjo6/g/1mDBGCAeHWnNGsL7zK7/yK8UJ6uyzzy5bSExcCayMtc0YTxnH4DxOJvykXz8Dk2Gekrx4VxW7JZwQnO1ToEmEyWm8BERy9tvd7na3XRtPETJhGZGOmA6V39R0p17YZMwjRickmILE4+zBVZtAvtOd7lSeRYvcLviGE+HkFHN5p/PWNKc5CUwQY0Kp/t3RsbeiHQfGCivR7/zO75QJ6otf/OLJS17ykvLNOqewMO9zOmq1ls0YT+GbTtVxwg7e2lplLCew1jDtE2CrOo53WzjRImoG3YKERyQz+XpDXh2WETFLAqauQ/KQefnLX15mR8yY7tXwX3B23g//8A9PDjzwwJue/H9sR521C1pzwtA5bXxuywpMkdqOXXpvdvvt6FgUxpaxxJHIxmNecibmY+NrM1ELGL/xFs5l1pfxWPeiHDDrmxw/4AEPKA5Zcc5aNeyWcFJpG06Z9GYBc3Tumxk8Jl8TeZmhnCmrxUUqPLWd2yZHglnM3MkLNtrqPD6vvlP1NZvSaXXeaG+QeqUtePfwNsyeJ8FA26lyd3QsE4yDWZPJmOoXFUybNSmVn/GNx9jb9Au/8Atln9MJJ5xQfj/rWc8q523iveJt9WR4q7Ah4aSypDSGhlHP8wihRfDQY/tcBYanjCknAWRNzeZibuIEE0Yed/kaOqm6OiXcZtvaXX47kY6oPJwh7n73uxdzqjrp1BE8iccuzquHaQ9WtSN3bAzp7+nz24VF8vUs/TXXnUI7Lvw3vmNdWQtj42qt+o8h70jPhJ/2ZDLs/E5nlbrauuKotPrM0lXEuksdInMA4IbMLOQ6BnHZRNlG68+QLxvS4AkZCOzK1HaLncx51tbUO0y+ho7K4YNXoo5hViWN7QR664hpI2XwyXtqPqReQkwA2s9ZaDx7gjqNVUbquplhHsbib0VYD8beb0PtELNW2AwkrTbfGv5nnImXvtuifn8rwjykXBuBtMfoPgvGo+dj+dGQeOZa18/HS8MLFh3LbTl2N2wGNixSzbSZ8+Zt4qQ9WJi3+RSjXEYgpE7CRJnOYjZkLY3Tw8/93M8Vj7bWjKfB42gAZilmLMxo6RiLdIrNgrzaoAwWRnXWIB020H60pxw3472g/r3K0KZhdH7XNFor5H1hoxhLd1aokTKPMaT1YK36px/PC1uNNg//677q2sZJm6ReNVLuRUNLo/yH/E9cZcHP/F4Es+JJJ2mvheQfmmizMZrU8Mx7qcc8JF7qD95fT9hs3GooyIZGnU1gnAJOOeWUwrzH4JtFNqA+7WlPK//rSi8L0iCgXLQlJ12om1MUeOalvDWp3NNBCDQCgMv4z/zMz5STGdq9RbATdVZemt6ZZ545+dVf/dXiQaS8ylJ3WJOIs846qxyxxFTgmTg7UebNhPqnzVzV3eI1TZ8ziN8mWQS0Z1z+rRNyJnE1qWKq5VBSM/BZqPsHoL205UX4y4+GKk+eXOjMs5PJW17yRX//5ZnyC8l7rTKMwfvyUkemeGUQlEd/5xYdGqhnyoQGftdlkrd1Sh5pP/mTPzm6T068Jz3pSZNHPepRpU+l/EHKI2CwyoA+dV3dT5zcM8mKVuBekN+5r45j7czbVv1YcdBbWuqWtRl5et8V8tukDY2k4x46OXnhZ3/2Z8vBztJtgR/48gKTW+pQw3YP+Sff0CfXFu378lQmtGufAeGpjibNEaSz0oaazvoteqGdoK/Ix730ETxOf03fxUPcy1LGvLwWxYaFE4HkA3rcqW+44Yab7t4c7J+81pzGXWezGQXfLNSNgviO/vCZCyeKc7N2P51W3CD3NQavmB//8R8vJr18Mr3FTtQ59bJWRvg4QdrAbaHMv/RLv1TaifOEetYDZpVhMEVIWD+0RqpdTa6YaXlgGoAYEEbMuwkNaPzcdS06+42JYdbzgN6CPPUlTJzZ1PhIfv7TVDE68eTn9G55WRv0dWT5m/Aoj/6VdkibrKddlCfMlQCwFUJ5lONjH/tYWS9Wzk996lMlHsHiC9XKpN7Kx1SkXM5r9BzTX69wAuXOb32MtUK7GHMOjUUPz8XDUP1PX8QIs7Ecc0w6gbgEvjqqV/ZeCmlnNDcBIYzsAeJBrF68WtWXsCA05Afy8Ft90cy+wJTbPUeWqf/YRlf9xvozniB+W150tRYvT/TK81ltW78vjommvNGu5kuBvsPMl71O3p/Xb9Av/UT/RDO002/1Gf3EfWMJDY0H/dSSgTzU1xVtCX/tFzpuFBsWTr7bctJJJ5XNZjr3GHiS0JyYulri7hQ0pLK0hNOBfvd3f7c4Pvikus6nscTLOy3Uw4AxCJ/61KcW5qVRZsXdbiiHfB0Q6TDI1772tTdbWwrMfGi3j3jEI4oDRcq/k+20EbR0V373DGKbpQlpvzEpbWugCWGK2powSDAIMQ6TD18vPuKII25K+f8wlh9maxA7KYDmbWYtrwT5xYQM+kvycpUfIcXDlWONNUOMWR+U/lib1PfqMrlvhq3OxivHHp+6MF5T97o83vVOyiT4rUz27P3ET/xE6e/e2Yhwck0eAqaub+qXLBVt2fPfuHriE59YPrVTf2YHxAN14jmcz9RgqDXdU8fUD70TCCRti96Eiecgf30CzfAGVqIIGmkRhOpQlztAA0xaGHvOqnTiiSeWzfoRHpD6jKGOg+/aZ0VB0B4tCA1jWn0IDe/Wabf/8QX1xPty7mbdZ9NP8l7dRzJO8HkfUz3kkEOK8B2r+7z6tdjQ95xkqCI+LEi9zcyhZfga2wnZZgc11lPAzUYtaJQD8c1C1EXHNojNEjREypkGUb+27Bi6k9adoZf6i9OGnYK8DSJ19BVczEo5606jg2GIZqX15zZ2stzrRV2f/HbF/LSrzZFObEYHAxEdMvBqhuM/7dIMUjyTFLNQs2yDr4Z3kheaYojyc2oAQWCmbQYqHekZJ/IS0g/l6b48aVvaiiZnps+8TJDGDIUh1HmmfcbaSf1oEL4rRigTlimPOsmLIJW3OitHgv/uex6TG2aDgdOylZ/m5SsEytpCOe1tJMjiKZoyuyovetBGfvM3f7PQymc2lAmt6iA/GgjBRINjOlJGaaTezolUT1Yce48ITMIKTdPOoXnq517dxurhHVemXG2uTQU8jmOUPoQWMXFJcxbkg35tfRKYwbJJvj5rdKwtg7rOhId662/K3KZPu0Q32o3JDdRppz20Mw2JtcgaO+coVjETLHWs+y36hYboh7ZojB7KIOhztGDx0HB3eP+G9C6Nq+AaUyGDZKxBSdPYJJcJdQMjLCHrKCLeeGYNBm89kBAZvJPO6rdBwiRgZsgbMWkuI7QBU40OO1ZOnS2mphqhwyrCoMLcCSZMi+bErBeGgg4JQfs/0JcJ8BpoE/oYpCY09sIx9RBOTKjZYtHmEczKD3OhBdDiabwYL4ZrzEGd9xgwi/Tr888/fxfTIZgxmrE8W9RxCBuMhqnRDHk9SFkTpKu/EUZm/oQm5uh+xlagz1q7ifWF0JCGMemqjZlp1RPdtbX/6i+dOrRo7zH1ojNhmSPJEifjfk+Dfqbe6ScXXnhhEXju17QbCzVyT/8yuUdDfQ4d3atlxHqwIYpj6gY6KamzBzqdTqMzm/GQmpi4e8sCRMwgUH5q8U//9E+XwUvyY+CzmHgNqvKP/uiP7tIMU/dlBMaqHdQ7s58a/qu7dt0ToJ60GBMOJgoz9LR52l97CaGFa+61YE+nVdZIOoL1GgPct7wwXMizOp7+kX6S3/k/C0xUv/Ebv1G+v0VApV96p21H8ByDFt9mTELSpCP9WlCWtSDtpE8wmeGbbLZCelFIS5nlT8gS5M973vOKkJoFZ1NyKKBhMO2FTqEr7cFaqjGMqdb1q+k7RqeW7tLDlNGbAxEzo0l4HWdPAhqZwBBIv/zLv1zohwahIYRG6BdatvSUTk33pEHQv/SlL51ceumlRTN1f71Yl3BKQxFIZovpcEEKZ3ZlMVVnXu9Ma7OhfAmgfJgJqe5MLOY8TNmMOvHajltDnank1maYLc0m1Tt130gjbDW0AeE0q2zqpAMZnAbkKiK0F0ycmPCYKmgv6ue+Nkpc9KD1HnfcccXLUrBuaCOjjY0WyAN9WTvX0D+kQwgySxmIhIJ+ZHB6lngZJzHlcBT6sR/7sZK3tSwmw1nQF9WHsGFGkwckfUhfNSajcVnHGTM9pTwBby7OGNZy7M+zSM9Erb7MifJhmrM2YtJZ57seeE+Qv3pgWsoLoVdNJ6byRz7ykaU8aTfPBP99AVY6TG1MoHWdQPuaVHDIcmqC010Ejj9PfvKTyxoaTUy+SR+tzfI5GTAP2pzONFcjYymTvXlAr8Stg/ve3R16bgRoB8a4OhIgtE2Tl5p+aYeAhYhJ90d+5EdKv33MYx5T1pbi/BWhBTUtaWVOaI/WnvavwzwsvOaUxGRgls0Ga1Ya1I2sU5tpGuT1GkawEw0C8mW2c5S9RtE4Zl8t5hFNw+nYD3vYwyYPetCDdglfaW9nvRaFMoXB+e4Uk0cLcdSZwM0G4tRlGeu0FjAutngTjwjb1EM9aQGEBAboSvtlmsXM4pXG6wjzohUTINZPrA2kb7hKm1mKIJAfZiufBHHQUjqOtTKgrZ0wVVmTIRDk5bm0makIE+1V0z3tJz1ji5NEGFziiYNJM2Fi2IQUtOXRf+VlfKoz5u8cNjRQprve9a5FOIUOhJT7+gWvNjCZW++ak/y9R/u74IILikZXm99A2bQNEx4GqFwmCXk/cdCZpmoM03TQLM+BcOOpZoyit0mI+qG3eluHkY+0sq4iD3CVftJED/WJkPdfvdDGhI7wyrs1lEFcbS6+vBO0nzpyimByr7XRuh7zYFJkbcc6srZvQTGgedZnmoI6E0b6rH7ia7nuyTd5q49+xjqE1+FzPv+jvOpknKAhbdbEQrvGdKdPhh5oE6GkjytLXb86z1EMCc3FUPASBgJMhwYq966//vrpC17wAiXYFYZMpkNBp0Phpvvss8/06KOPnl555ZUl/k5BuZV5YCLTgXjTgYjTYWBMH/GIR5Syrieol+swsKeDPJ8OnaOkvwpQ92EWOB1myKWd6narwzOf+czpwGwKzdLuqwhtPDCm0Tpqw2HATa+++urpMEhveuOWGBjn9AMf+MD03HPPnV533XWFhulPgv+DMJgee+yxM/MRBiY4HTTs6aDNTAeN/abUb45BY51efvnlJd4gDEpfGxjiLdpK3xuYxHTQnkpfhrTTpz/96elb3/rW0sb1O8ogLVfp3eY2t5kOgmc6aBPTyy67bDowj5JOC/X75Cc/WfqNcTzMtG96Mp3eeOON04GxTQdt6mZ5JQwTtulTnvKU6RVXXLGLZsbgMJOePu95z5sOQu4W7yibcg6CZHrqqacWfhOkjoJ6K8ugVc1MA43OPvvs6SB0bkrh5kiZBs26pIMmaC7U6Q2CbDpMZEv7fPazny1XQTtee+2104H5lzap30m43/3uNz3jjDOmg6ArfSnvJigbmihLypTfi2DQRqZPf/rTS9nH8h8mBdNzzjlnesMNN5T4SX8QxtNrrrlmOgjvm8UPf8vvYYIyHTTM6SD8SvlbSOvjH//49KyzzpoOQms6CLObpdGGpz71qdNBmJc6ZwytVd/5emmFoeF3aUYkpTAL4lpETvxlAI8bi6a0PWtNXC3XE3grkfyPe9zjyozOzEg9lx1DG5fZDfMNNdyseS2sQr3mgdmWpjEGJiyzejN6Jhb0EVqglziHHXZYmb2jYYA+Ztxm/2awYxgGXvGwM0O2psk13GyUtuVZ8hXkZXZtUycPK2s8ZsNtuQaBUWaitDRaEiiLYBZtvUu5WkgneZoFP//5zy/mS3QYWy/1W33N6s2SaUzGwFiZ1oKy4QM0LfR61ateNWqtQAPaDvdzJiTvBfVv3nK0JuuI7iunIA88h2ZCY6IV00iUWd1beJcmwDQvnnq1dTPz5+GId9CelFHQb1zn8TfxpSvknTooK4zlu1VQZ+2g/4w5P4VOtBxWr2GCUTRo5U85E6RF+9SfbDFgaYAxWoNxwkwa68Ii2JD00ODCLOgsVL5aXd1p6AyYDCbh67QIL1hnWCRoABttvUstT+daZtQdSVtgNmuVW/xVBwY9Zr4EtMA4COkInNCphngGpUEXgR4G70oAEgY8AscgnoFt8DLpmczIN2nUUA5CgrAQn0Br44B3MUrM2QRLHMFEkfsvpsNEVcM7gnZnmjnyyCPLvi2Cl/Cc1R/SZwhK/SYMar2Qt/JZ47UWxjOvndjKA62sMZn4EYQtlGeYbRevUs4KzPO5D8qmjDHhMUd6FhqNQZsQZsysGG0bj3By0DOaS4swiiBM35mFxE/csSBOyr+VCA1MjNAf/caEk6A89kYxdzPv4uMRwokThKfG9MfUWT+vwfHFOl7afpF6b1g46Sg16kIhvFmiwbgMQAiDn/2X5kPQDCrxrmAzofBTP/VTM4Pj6AkpA5uLq0HXIo1Xh51GyqGDYQLzJgzLUubdgfLrmwbiGD7zmc8UJwkzSAMldW4DhLEnuK8v0WBoLo62CpOsIY6BSxMwaNEd/d1PaOG5MYM5Y7DGzlg8mgNGbybKMUmZaIkWuDHS2nsWPNfm+iyXbGswfks79UzZ1sIicQJxBbSyzmQTqzWqsUktBhfPPAwR/xgDwUsoW2eyjSXl0TbqQNhKx34oSBkSr4a6ewctaE9jAtEs39p6HC68E5qtB3mvDiD/7YI80Y/Gac19bPIWvq3P0irbdki5IfXQt1iVjjrqqCLox2gN2s36mP6rD8yKV2Nh6iiIBgIVG6ucTBNnGYAACKwTuCJkG9IA4swL4oVhCO6lgRLUvaVBnu0UlDN0wCTX0pxWHepqBi2MwQI+Tz57MThOEGShUY20MbjWvyPgMN6xthUH08NomcX0M5Cm35773eYJmCTPuGy6baG8yZ9Q0t+4BPs/C7Q/5kJODfE6lLY+MVaO3Kvv+51yLwJpi4/e559/fqH5rDTM1FkxCKn0zzpOaExIEMImHtIRAn2byZZgYr72fspQx4P6mfcs8tdOA4HJC4ZqIpB+khDarRfemRe2AtJVXhqgfqL/jE0SaEmsQpxGaJU1koa6t+VkWeBMpe96Pgb9wCSFkCIkF6nreEozkATDhGdBZ9KYO8mUayj3rBAoq3q5jsVbKwTt/2WBMmHYYZR7MngSYfBj0G+ZhpjkbCWwh4gmwuyQQSPoB7P6r8Ft7UcfHwMaE0y8nXhzJs2EFul7gjYiQKzzmMXWyPvqQDAxLUY40QRngSs8jYKQqgXlIkieCYuC8MMMmXLiSlwzNnTBzLgmM+cRLKFVi9zjHRdBEZoF1nGslZgw0KowQQFd8rsNEfDMd3VagXue6RetRrqKINz1fX1mrG8z3/LgZOLUfqHJrDZJ0K6EuzV5444QayFPwl77GT+LYGHhlIKAzMcKEKRRZw3eZUSYUc0o1hvaNFyXAWm3vQXWL5gYMPe2n6KFQcKBwLE+5513XtnNzu3cxlBrN5hbmFFNu/xmr8f01hJO0VIWhT6jvJiD8pvV16jLYiYqGPQEqzLPAqZtPasVdlsJDJ07O1Me4dlaWsy2aUpO7rbm4/9a/VR90T3MNePLe2iH6TG1cpHWnmsFWyuYGwnPefTDy1L+ZRnTG4EJggnDLNCcOOYQUmi6SF3TDvq8dUxa1yzticZLQI457YxhTeGkkG2nMcPJIvEYDFodySxm1aCTI+J6gnpiZupt4Lj67/dOI22nXgbYKrbJemCgMO1gxmbmbT9Fj0yu0IKQcsqAQ4qf+cxnTk477bTiVWSWnngZgH57X982854lnMw6zSJb08gstGMMkzDIW2GiDQVguyck/VeeMTN7QMhFi9sO6PcW3u0BMwEgNOqyg7JYByY41TM0rkMN/2mKZt7tuMIMaUAcQnx/zSbbek15VrCGzJPyRS96UTEXzoLyo3FbplUDwTBPCGsHEztX/bHWdGdBmxoHaEMzJ6BmCSftho6E/SJYSHNKZ0njkJKxDStICpPKKDCmXXfGZUUaQVA/6xA6LldbC7SLBO6vRx99dLn6z+HCGVMY3LJAxzDI9gTzxCykf2J8bODPfe5zy2BL/2yR+OmznBvM9J0i4F1aVdZ10j/AQjlhMKt/S4+AmTeBmwflx7RjghsDwWqQKwttYlZfU27pYTh1HbYKYWZcsGlOMeEQ7GkHV/SjpfI8zIZh9KxDXVa/abwRyNKQl7ap29H/jYS16LLVdNsOoPk8rUV/Y54bW+ucBe0gPtrr7yZC6QMttJv8F50gLyScWihEBt5YQRRiWTSHtaD8CQY5G3lUfuaBtYK1iwSMzYxRY1k7WE8jbzW0xSKa06yOteyomYcBw4OI15HJArdY61AmVOKF+QWps4FjDw5vJkyTuc++HMewEAKBiRdGWacBdV8y0DHk9cK73tN/5r2vPc1YlYUAmDUb1QfVW0g9twOEullyZtWQ/F31QyYmY+bKK68sWlHoKX4rDDzzjnao02vjbQXCgGE7abjZQLt5k1P11E9cFwV6hCZoNG9Cpa0WmQgEa5ai7ggphIFjAbKFDiS+q8GyCsIpUFazPaYIA2Vh6T40JCZidmqNwT4SpgK+/7yGlgHaBBObJ5zUQedaT8dcJtRMQ/9TH/SPiccWAGscNAjP0ldhbLCwz+sLzmWzcZtJJHnoK+jZAu3qcuwO6vKNIfmINy+uNt0JxooWdWjz9h8dCSZnE9KeZvVNdRNS13lIP3bdjKCcGLbxvZ302wosQr/dQdppFtBvPTxmYU6UzgFpOKjvpfHcWyXhhNGwZVtMZbeetZZQQ13VGV3ijuqU5cc//vGFCXo+r6G2E2ZLtAKL1GNMVT24PmPmmfkof9pzlaDvZZCkbbhRO9j1BS94QTHX5mw6ECfv1DCA3EMzGpRz3PRn9zCqMfOFdJKWuH5Dm/YYpJVBG21oXj/MBDFjcdaAN1tWB9eUZ7ug3sqVD8+hSWhYgwn89NNPL+t46t7WJX0xdQ1yT71cmVJ5Juag3t0N1lAIJm0tbVikLZcV+oy+ux7Mq69n9fNotrOgvfCXWX21xcLCCSQOKhizXgqXDiToYFT6lhkuS8PW5dCx2euZ8phz/E49aviPqEKeScfiu018Zug56BZt6nhtWtsNEwUL6NpirA0MbIv37M3bbf7ZbCh7HdRNvTgYcKe2EdWeGhurnfZhbUp/bgcMOukbmCmznv0u1iOZ87Qvj6axd8B7TFY0VViUnimz9qK5zTPBRDgpu/WpMM8WyqLM+jVht2hZdhfy5XVoM6eTVZhW4yDiWYLyMAHaWMtMnmOJWtq6h7GhfeqA3qG5fWE2PTs524b5nDS/O4GDzM///M8XrZuA2kyk7Cl/UN8fC7sDfWRePQiWtfpdjbodwIRKW2rXMRiL2imyYy2sKZxSANf8Niiy4KsThXBhyJggrxCLl6loKrC7BN5dJP8QEAPh6urzCvHYST1ruJf6AabAG4xAciy/GTmPqNqEkrDTwOxMFjDaMagXRoLh1hrFqiH0Vp+6rcDAMKN2+sITnvCEwnjssfElY5tT7bPJwPWe+ocGBp21RJ/G1l/0f1qmNMdACNDEmYfXg+RJy8Wk581Cjb8cP6RePN9mQXqcPYzF7WpXwpOGir7o/PCHP7y4x2sXZYhwAv3S/hsnZRNSaJy2hJSZ9mWiIY1AGp5rEx6STjPnhecT5bsbnBrz7Gc/u2wSVp/NQtsG+e/aPoP63tjzRWGMz+snlAnHcbkG9RiahZSbYLJuP6uMeAsLjXZcBGsKJ2gLqCOYrcVVV2HSScDgNFPDEM3alg11eQkmzgy+k6NRdPy6LjXq9/KxweOPP74cizSLUS0DtAHNSdnHoM6YbTurGqPBMmOt8nouGCTqa38Njde3mI499tiy8VVfR4+aAQJB4/MC+ggGyXQbQd5C/ydcDNZFoVzaJ2OHizuhMgtMToJyuirTLCiHExqUPflsFUJjguLBD35w8WIlRJlWHcjaLpgri6CPKqO9Zj58F6S86onncFUeo7uJMGcW6aR+3t0MpE5bjdAi5YfUfzPy12eZK2dBfzNBr4XTIjBmlJHWpd/PmgRre3xTf1gECwknUIAIKYwYI1NRGkSepRFD0KxzLBtSXqaXd77zneW7TmbH6QBjHSF1cqXmZzZosCB6OlTSFpYFJgnz9uVEq5jH4FYBNe3HQg3/9V115snHkYUJyj1o+wAGj2nq0wQbTWuMSUrX4HTOXWahY/2phfcwYJMIWo53503szIIFbaf8ZqSzYJMu71NX2lMreDcb0ifoaU7KqG7K50BWdMYka3guKJt1X1YMM/BojtLzHN0xN3XOeMxz1gHvmGSaSNTjdXeR8gmLwvpLvaQBa72feuBLOUlBX3JfPXa3Ltb+5u29Qzcnx+MVaL9IfcVRRrTXv2jAY+Wk0GRCRQtdpC4b6qUKRDhhzLW6WzNoMAMUlhHKah1BY1hLMDDqxvC7/o8Rmbk5mNNxKwaZwUdFRejUfRmBsTJLtYMlULc9QTitBxkcBj7tn8lJMIDDDGpgGgYepmPmp+9noNXQZ7zraBxrVZjlLLq38C6hRLBps7H3DHJ7t0wMjUGM2n/tNwZpGoMEq5MQ9INZM9vNAvoRRsZLBHjKbS+g8wZDt3acqb/jpHjwYdJomefonS/yup9nAlqJz6HJeA7tEm8roJ512WuYEOaQU5gVD/AOggg/4lpPODNx2sBMkzRZISx2ty4Ek4mBCUM7sVI+kyH0p7XPO6uxhbHBHKuvm7yNlVGe2t8Egyl6EWx4CmV9Iud/KUwtmDQaqOB6KrkVGGtQZUXQiy66qMzUxqAOqYc6sfH79IHv7VtfMkik49m8jreTUC51N2iZL2cxSQwOs1tU3V52pM3bdg/c13b1c4MVQ3XsULSnGrRjfQCt9Hkm7ZxDNgsGOWapryWvlKvOO/2HZstzjRCZBQza5ChMWnkwe+UZ64fpx8rwyle+spQHE6oFVF2WoC3jeiH9Og/0JqysQTm9Qz0gYyz8AzDjM844o5iYTAZSDgLY8Tq1tUb9U29rVS9/+cuLYMPswbtJu61T/rdhFupnyVsYAy1ibJ2vTV86BI9Jwwtf+MKbnVxhbdQ3vgisTPLXKuMseIdgYG5FQ5OFGsqhLcSz19O2mkXy8hytOZTp77NA47W9xppXKxhnYcPCSeWYE9qZo8KmM7ABs0HCIhXdKqRMrhqBwGTmQEyE1SieG0z1IAGdD8M65phjJs961rMKIzDTFjedMyGDZFmgvupnkNSaUwZWyut3hNNOtdFmQfntSaK1EMi1WTn1besPBANzhkGJWegTdbsSTPHE9B+tfIiQkKjTSz9SDsyVBxqBwB5fw/OaeTOp6JMmS05vTt5CGDjQbnkdEqRpKxoUrY+52bhsyy6IazxeeOGFk5NPPrms75jZg+ctck8ZaQEbtYBIJ+Vx9R/dfFsKMt7qOpp9034uvfTSMiNP+U0Q1Nv7NNcgY1sghK0h/9qv/VrRQKWVtKWTekH+1wH0GYFgrNMOpEdA6gP6wxj0IQKKB7AyBHU+6Svq+JKXvKRcWzrTZKyJ0qDwrdBwPVB2eXmPcOJdTEj43/YxcU2QLHUoe8zSdf1rGGM0PM5CtP2kV6cJ8mV10j9TnrVw618ccNPvdUHiwmWXXVbsjWNAeLMdgyaNkrATkK+OQn32yQTCKe6+LfHF1YBmGYcffnhp0Hvd616FEaT8GsDvhGUD+mNImKMOlzrWZTW5MKvhYu3a1mMZ67UWMF6mISFeoxgNeuizGWwEEiaC+eoTDgE1a/QsbRqaYYaEgj5AQGh71gMMyPpALQTzjrT1L89MDAzWTGyUwz2TBwOcedkgZ34zyMOEavob4JxvaB/6ZvpfmID6YHA0o/ZdMIsnkAhvdc5Za8ZEBJC8MUH1Mj5sRFY+aZuMgvSNeTN677UwM6YdGTvolrKkPMaQussDfbSNZ6Eb2qCd8uqfJgCEAeEkHrMQE5K+Dd7Lu67SZIJVV3XS/tqA4JKuqzqLJw7LgvqYFBBoNC900b605JrJgjKgh35mQjPmlZkyyUf95COefAgc/2mPrsank0haN275eNd74jLJpQ30Oe2j3+pPLTKJ0Wf8Vhb1QEMCgvBHG/RIu4DfaKWN0cd/72lTaag3+nnXt65sUCfITMTqfpc09VEWJ/xT383kDup4Y1i3cFJACSqwDqODItQYgTQMGz7hpJMhDMwr0GZCWaEmgk6tzOecc05pGDAYWuiUZqM+osWMx4Sj/HWabaddNmAAZjQYX9zkg9RDp7fXx2yU2aXFdrXVZoKQoSEw22KsBr2BIxAGCZgS5kLLuuCCC4oAx2y1q3qjkb5hgOkLhAJGaXAbrMwkGB/mgVGGprmCgYyJyEv+xgGGJB8MUPloCNYZYo5q+5X/BrU2chyTvhjTSNqHZqfPEq7SD8Ov289vzA/j1i94H2LI4hMUrBzKg+lger6Y6lBczJRAMfOVhnqsRzihR10O5cxYCqMeG4PaDV+h1QtoRzD57UQJYxl9a2grdVdHB/hKXxsrp3ZCc0KZNUGdPZcWQeO0CnXSFzBme+Pwr/AtSDld0UC7S2cMGLi2J+zlJy7hJx/9hrco3kk46bMtD83kA52UgWAyVmE9wilaEuhHND500CdrjV6cBJMUZx9qGwLJPX0zApZwsy5GS9WXxAFlTf/VD5SDJ+whhxxyi8lv8pqJIbENYWic6dBJpyeccMJ0aESjcTQMHXr6xje+cToQY9d72wV51WEg4PTkk0+eDg1cyjY0/nQg5C3KLAyMaHr++edPh448HYTYdOgA04HZlyCdpLlMqOsqDANs+vznP7/Ud+gEpb5tnQ866KDpKaecMh066S3eF1YJyjswpumJJ544HZhiqd8wGKeDEJne/va3nw6CpfTVgblP73Of+0zvdre7TQ844IDpMIBLHHHRp6aVNAahPT3++ONLXxiY+83og27DrLekOcy0d9E1IWkNzH26zz77TPfff/+S54EHHliCMg0MsDwfBvMtQt499NBDp4PAnQ5MbVc/TF8U/B4Yx/T1r399iVvnPZam5wPDmw5CreQ/zMoLjVwH5j8dJi3TgbGUvjIIk+kwQSt1Nw4GplbGtLLXdU0YJq3TpzzlKdMrrrhiV7sE+T1MXKcDo54+5CEPKfmMpSOg6aCtTocJ1nSY0Zf31fXtb3/79OlPf/ot4quzMqeO2nRgztN999239AltrdyC3wPDnw5Ms9RZO8sPjdDw4osvng4MeVdbC2iNBnjCIFSmj370o2+Rv7wT0Fj73fa2ty3tL6DxcccdV/rqoOkWWtVpJCQN9dlvv/2mL3rRiwrtIPUfhPXou+o6TMCnw4SjxK/Ljn4f+chHyjhRnuRT9xF5CoMgK/1Cv02fNYbQDr3Qt+5nuXr3jne84/SYY46ZXnXVVaW9a76ZMA8bNusNBSqBBDcryNpSCzMukppnWy3BtwtDHUuetDgzwksuuaRIejPIgYC76iEeMEPyKDJL5lrs/0Ds8ixxvZf/y4KUf2jwUi6zRzPEV7ziFaXeZrspb+KCWTjPQzNcs6oWy1THtTAMujJbtTirjf0fBkSZXZv1ZfZsVijErOW+/hDaBaGT/TpMu7QBfaGmI5rRWvRtaZtpSgvES1ztoQ8qX10GebuvrPqVNOtg5q4fMruaafsPSTvBu7QKDhosGupCs5BG4kCdtjjy1TdoCmjkqjzuKbM4aGjWjgZm8CwO69GcIPm7SlMcGqi00IP2UY/HxFcGZaHV8zZTf8/QnNkN/bUhTQSSBqgjrUIe6iWO8tbBvbrO6Qd4FqsCk5Rygvt1+eSN99G8o8El70AZpOk5c5kAtDL7vmIes6UFvJ9+AK7+40P6AbMyrNesV5dbeviyfhL6oRFay68O+kc0pvRZv9HOO/qGeNJ1BVcn5zgVxD43PEZbgXg12v81dssuJeFhBlI8hWZBZajXCKCi2w2EQnSDyYJzjvGviaKxDGwDiV3UHiYLtv57P8QX6s6/bEjnAIMuTgE6ExhcdRyDzgKzhX4dFZa1bovAQNHP1DdMYAzogBGJ3yJtbdBihJgspmwTaS2YQDrDTLGYKwxCzAbzMB70p8Rt6T4L4oQBag8CgSmNabl2AtAH2+Ad5cNQCVOmaN5R0sDIpZ0gjxp1nYL6nncwWIx0s8aw9PU/5p773ve+RfCEvgkgb23FxIiBKwNmjOE62cPRSMaqya80YoLzHtRpzcLYc/2IcE992/S0O4Fxz3ves/QNkwJtDuhbhzHkGaZtYkNYpB0T5Cn4TcgwZ+4O6rTRWtmdqDFor0WAMFOnXKlvDe+1yD3voIl24UCmXU16naDjHoy9Pw8bWnOqoZIa0brGGMwYCChS34Iee/N2QoOT8jxPTjrppDLjAIRMQ4iDgE984hPLsSU88sKs02GgJu56Cb0dUKYEawk++0CDIIwD9RG0I6FEGOucNTOt01klYGK8EuPxth6EESTYZOuTG04lp7GYubc0SVz0tB7i8F8zRn1LOczIPV8UiYtpE3BPetKTJo973OPKAMe8kve8dpGGMab83pNW1pRS3haz7tX3MUZaBCbs/kY1p8D/jDuCTzrWZPxu8zZGabn6KAEkTXkQRIQxJksI4zXWl/SDvN+mNYax59qQ0LCQT4Aob0IN+Wsra1fqMG9SFBB4ymsTv/oThNZwTChNmOoxCupNc3aMkvxgvZqTtOqyoykaoqfJAcFEe5y1Np32quFZTTt9w4QBDzWhctZh8p0V5mHDZr0UDBPXIRBXw9SESmXEI5h0cLPM7YTyEJwW7yx6+q9cCKNcNAczTNqSGSeGrdMnTk3AtYi5k0hZBZqiRdczzzyzLHjWs93EUXfnzBFOFvvzbJWhzTBxzIKgYDohVAgOdYvJpoVn4hEs+sIRRxxRBpf+YKKCwYc2rgmQcYCZCbQUfUj+3jX43Qd9b4yRKJ9+qB1oAT5dzrSMaWDEhI08oM57DKkfxqMsZvfKQbBIC6NN3xa3LY/7tEbMioBTDw5NaEFIY3TeI/CYo5TduFZ+AR29S2DQZmJVqcusLtIQ0AYP0W4msa7SqNMUQkflJfTkq47gt3ds8kRDV0zcc3WVz5iWDBi/uPiTdDF0kxKzfpM2abUTtxryQFNtjtbKHxNZm6fye04jx8RpF9JGb+U3iSQghLQ34cIJRp/UP1MWDh/4LqGt/DW9CAl0T/8ZM6lJ339lkiZBLH3lkiezJlobM64pT+Bd/UsfMREhxI0Z5dT22qu1xrjWZVgLtxoyvXmuayDRXdO5eJvwxedWqNNCXRAdRKV5bdgvpDHcC6S1nkIvCkzZjJHb+Ktf/epiH1bmlE2HZIY59NBDS0fMABCnLl+wFWXcLKRdlFE9rTU95znPKfdqpF7qeOKJJ5aOj3FtVRtsF+r6mzlnHcNaqEFMSAsRUGlj8TEYDMNAw2Qwc78xWcjgFDfvgHvSAffFSxwTNZqASRvTKk1DmWhT3hEvcTEP+ZtNY+iYBEZnkpS86ndybwzKAElbGWkUzGHKYYavXGbrxqpnqYN39H/CEIPD6DA95UqQJuarPjRz9YmQAPlLz6yZoMDo2r7lefKUn3GqbaKJScP9Fhg+Jkp4G6voIx1lkj5hgMb6v3oKPNLUnVaiHClL6mrigfaErvqqo/9h8uIkPuRaQ5rqgL688eyV0+cIm7o9CAFMX9oYunVttFMvwkb9TaBpRd4TX3/A+E0SvJvya8N4GSpjTS900IYmn9GcoC573ea5KgfBaDkg/VY9tLH61e8oN/rgoZZ2HMiAdjUPVdbAOwmLYlOEE7Med1ib+3RacB+B6+SZzZzyS6rHNgzrKfAsjFXD4LN3xM54pp6USWc229LJqctmhZA02vLMur9MSGdQN/sOuMMSyGNQD53r7LPPLjPEMbV/FTGvnQxYTKqe1aKBfogJoIGZHvq1SLpQp93SbF7+Bj1mJRjo4shbGQgnIbNiqNOu84ex9IO2rPq7a10v9wglZanX3sRRJozNrNgYaTGvjmMYi7/eNOZBWkmn/h1o79Ae3RMH3bW3umL6Y+0erLcOnhGymDo6A94jP3kRiDX/q6GPErDeI4j1S21RY6yeY0gZg1lldX+sPnhK+iwa6ifioZ2+YfKGfrPqAouUYRbWLZxqeFXQCOyfvqNC1VeRVNhVw6soldnH+NhaDUbPPVtPgedBevKRpjIok++x2Jho5hQGTsozmzChmCWbAaw61EvnwWycZGHfjNnYGMzcmGh8s4bmaODAZrXDMgJ9MvvzWwB9RTDg1H+raEAgaJ8McEjfR3/5+7/ZSF51vdxDB2VxFSD138rybDfULbRPu6ee6qeuQk2fzYC+Jl8Bkh+6zsvPe+mn4mL84u8E0Cq0c637krqkbJtNu2DDvS8NLZgJWEtir4+N2f1UIoWnZvO6oV2Z0WxFpVImC9LUZBvJzGJSHp41PjJHQMZDZU+Aupnh8GhiWmDOmMVcqN5MmUxHBsDeAPShmTApm/Xps4L/7tf9dCtgEGembt1BkL+yJP+tgDq19fI/5ZG/MgnbUZ7thnpgomnzup7qr/9vRbvLU9+qaev/Wvl5T1z9Q/ydEkygnMqbeqTf+o1+W0W7YEM9MAKAdHdFQOqqxXX2x6Ad8OyXduHbmU59HWMISXt3QJNji7XfhWlP+ajGysaMR3tjE0fk1GHV0NLJ7AZ9fU48plW0rQMYkIQSF2Ua4yrWvaOjY8/HuoVTy8wiYEhSJiILyfNAWFx00UVlMS9phdEuyijr+HUA5WHG46FnUY+GxnaLGTtc0ToT5pz4q47Ug6cToZ9v4bhP8KJHAvDe4QBBUJsR7Sl06Ojo2LOwbuFUz8QjmATaCRMZ0x7XU+op5pgQJmhNhG++zwIwuXkGYaa7A55YXCudBJ3PDmDENpr5ai2PQW6Xypbypw6rCDRLsJ/J+VwWUy3453loH9o6m4sXDw1K3T3r6OjoWDZs2LBcC6f8x/T5uPPfZ0bzHFOshQ7zk5k9zYYLOhNcFg3DaDcC+TMVEko887jKWlPid2/3vjUWpsd6jcU7Kf+qwuIpeuY7QKFlEMGk3nGdz+GRsOr17+jo2DOxYeE0BoyQXz3tCSNk6qtRayqY6cUXX1z89WlTu4MwWE4Qp59+etnnYI+Fo02OP/74ojFhztEi9hSot/009pc5jTrmvDEQzCYNPpVtHwch5v0unDo6OpYRmyqcMH+ePjYy2nBbO0cEmGE0KkfM2Btl/QmzZBrEXBMWQZirYzcIPO7jvhTqCA0HD1pvku6qM+GaLoL60A5559nPpN6grgm1Zks42WisTVadFh0dHXs+Nk04RZhgfFyVbWy1C9qemtyHWnuxPsK1nBkuJygvisRlJuRCzTuPtxqBZOe1PVXc25kaA8x6laHOqTdtU51pn9bwOERA6FzTkpOKo0yY8xyTAuJ1IdXR0bGs2HRujSky5zl2w0GFObctgoFwioCycG/270QDQsrG2ayZYJxhxjWjDdyTDicIx31wruAa/uIXv7i4tHOTllbelV6tSawiQgv1Umf7uM4777xdR0YFoY1Ag3LormOjHEUTYR1a1KGjo6NjWbBpwglzq5m/K+2F5x6EWdYQB/MkWHjYMU/RpsY0nAiZwLvucajgMk4gHXfccbvOw2rz2hOALupMGDnU1dlmoL6hO/gtrnU2J2AQTrRY9yP8Ozo6OpYZGz6VfAwRILnSZPymETE7tY4PYaI5cJC3nbOkHG3kWjPcoL4n7Qg9jhicMOKNl7Rdx9JZRfDMcxijjbYCBxB1r4V5fruio9MwOEI4TDT3Q489hS4dHR17HjZVOEVbCdNjQnLcBaFhTanegwM1o+R1xtvMzJ4bOhOUvTieR9jVzNQ9/8URVz71c7/zv76/7Ehda0QI82zkmUdr8ptJs62b/+JyBHGSMW9Fe720RU1vWCW6dHR07F3YVOGE+dUBrD/Z+IqR0oy4eUMdJ8yXYPKZAw4OvP7M9jFVzyKMEt/vOq82eJ6wSqjLHGHvynxpfenCCy8snok5yLKmjXrnP1Oeg10d00SDSrp16Ojo6FhWbKpwGgMmSMAw0zHrEU60pFrYhAkD0xVGzAwYLco6Ui1woP69pyFCR/0Idaa8c889tzhA+J1Dc8UTgvznmedgWxuP40rf0dHRsUrYcuEUxFHBd0ocMYTBZnG+ZrBAePHic5o4wWbtyj6dVkDBniqg0MY6nPPyOD686lWvKvvC0AYdoBVOTjN2dp7PgRBM1uG6YOro6FhFbLlwwjxpARiqz2n4dDbvPJoRDakVTCAuDQoztuiPSTNP5Yj7eVgVYTVWb4jwtTbni5Snnnrq5LTTTism0dAxaIWTfV0Ek6/bcuEn4JJeR0dHxyphW8x6dSBgCCnrShwgaFAYbh0gTNdzH81773vfW7QAGlQ8+cKcE9e9+rqMqIVJkHupexwfHMXkWCJCPEh9Q8/QIecIPvaxjy3akzU7z5JmR0dHxyphW8x6ERauzHQcJAga2oE1KDP8MFwIAwYalK/YZq3KOxgvU5+0oGbWkOsqgYMDIXTNNdeUDcn2fb3tbW8rHo5j9ck9wt63+x/60IcW4WQ/k09hrDItOjo6OrZtzSnALDFUR+pYh2Li4yhB6BAy8Tar4V7MXE5GwMhpTzwBCSjagXRXkSGrq7pZY3M+nrWl1772tZMrr7yyOENEm2xp4r+6O8TV+hJznm9WtZpSF04dHR2riFsNTO6WdqYtQi14XDk8ON3hpS99aTlf7+Mf//guRixugMGG6dIKmPbsbaItHHnkkZO73OUuu8xYq4QIXWfkXXrppZPXvOY1ZW2JyZM5E9RbveI8UsM+JjTwSRDaE22yC6eOjo49AduqORE6AobJrEeDchCpfTiEi2N5aFFMedAyWvAsJ04weX3iE58oWof70sOgW0QgBpvBsNs0a6yVPkHDY5Enng8E8sYjnJ3OznRJM4QIpjY9TiG+y3T44YcXU55zDHnqJW4dOjo6OlYR227Wgwgd15j4fEWXFkHwxMxXC6cItoDWgcHb92PjrnfinZYrATiLQed+0lwPI58lmOr7dfp+K5MyEqg33HDD5F3velfRli655JLJVVddVepQwzsRToG0CHIej8x4tCYfd8zam7h1/I6Ojo5Vxbaa9WrU2ca8RXN63eteVz4DccUVV5RnYdCtWYvgkYZAk6B5WX/hcn7YYYeVj+o5YcK6VITcvKquh6nPSidmS2kpXw3ODlzjfX/JKezW2ghX9Va3Nk1ppO6eJW0bbJ/xjGcUzSmfnK/fXU89Ojo6OpYVOyacIFmH8WLSHB4w8Msuu6yYu6xL5aieGi3zBwKKo4T9Phi3b0lh4k7mpp35zhRNba29UhtFyqgeNhvfeOONxV2eVnT11VeXPVtMkDmiiWCC1D8gYCJk3HduoDWlgw8+uJzy7kvDTn5Qly6MOjo69kTsqHAC2deB0MHU3/e+9xWT17XXXlvMYLSMGmMmO+/XjN46DA3KmowvwDqAlsBiQnQskvUpDD6hNaPNQvKxzkXA5ErgMEvSAAlZDh4+gKj873nPe3Z9EBDqvKQlBO4L7tkTZkMtjYlX3p3vfOdSL8/EiVbY0dHRsSdhKYRTrhhumDbtgynsDW94QzH12ZRKCIgj7phwCsbMZMxfvPxsVuXdt//++5fNqjQswipaVfJP2q7SSgBl4OatfDQ7woiXnQNZr7/++rIORhjF4y6Q9pgwkZ4QyFP9hKOOOqp8KJDWFBNeTaeUs6Ojo2NPwtIIpwCzDbMWaBvWapwQwczHw82JEeKFQQdh3GNVEo85LxoT7cN6FFMgpi94zlWdaVAQh4AgeGwE5knHXJeyEYIEJrOjq+ecHgRalDgtUu6U0e+kFzBBHnTQQeVT9z6tzqRHgNbv1fXu6Ojo2NOwFMKpZbSYPmYd4UMgEEiO8nn3u99dTlGwP4rGQihA0vDuPCRenW/N8AkrazwCQaUMBE0EE/NdSzLvCWPCqEbi1QIpAocg5NBBo/P9JetK1stsVCY4825HR0fH3oAdF05jIGAEjBtqhm795h3veEf5EqwTIzgY0Go8U5W1BETSFDeCoX4nAmA9ZJGO91KGWUg9QDz/CUCCMNqSdSXakv/iJCSPjo6Ojr0BSyecUhxXzL5m6P7TlJjNOE3Qnggqruf+t2s8s1ALE9f2N7SCJu+0mlktbBYhZdIXl+nQWXgPfOADi6bEq5DZkcCiLaUM3unCqaOjY2/C0gonCGMO6v/WeawFccvm0edgWFoVZwQaFZPfLEjDWpL0kl8rnOpnUN+HOm4gjXlguuN4sd9++5U9WEx4CTwJuYcHdf7Jp82vo6OjY0/FUgqnlgm3THoMjjEilHjJOXGBK7d1Iq7dWTPKepF0ao1nLaEyhqSRd/O7JidhRBMSmO64sfsAoDPxmO4OOOCA8oyg7Ojo6Oj4/1jKNae1MFbkCBlmNwLJ/iKu3bz7OFHkRIaNCKKNwjFDTqywlmR/kr1W++67bzHb8Qwk4JSHcJoneDs6Ojr2Nqy0cHIVogUFBBTPOhqTfUjOs7MmxeOv/p/DY11pXvH8WwS8+pjh6kAzYrbj9p2T07Pp1/94AAJhJCh/fnd0dHR0/B9WXjjBLMae+7QTgodXn2CtipcfoeR3hJONtUnTO9a1BOnQdDgpBIQMgUTwcGzw24Zep6y754BW+6kIsRrSl/aYQJpVj46Ojo69DSstnMLM/R9j7G28WagFUbzx/KZ9OQWCYCJo8jkOmhpTnPvrNcmNlWnRcnZ0dHTsLVhJ4bQVQAZCKsj/aE6EUO244F5CR0dHR8fmogunjo6Ojo6lQxdOI5hFkq4ldXR0dGwPbu7m1rEL3WzX0dHRsVOYTP4fLsaop47eXz0AAAAASUVORK5CYII=;" vertex="1" parent="JZUDk3lIRAv1eScNHPHP-8">
          <mxGeometry x="33.38" y="230" width="133.23" height="40" as="geometry" />
        </mxCell>
        <mxCell id="JZUDk3lIRAv1eScNHPHP-12" value="&lt;b&gt;&lt;font style=&quot;font-size: 18px;&quot;&gt;Backend&lt;/font&gt;&lt;/b&gt;" style="text;html=1;align=center;verticalAlign=middle;resizable=0;points=[];autosize=1;strokeColor=none;fillColor=none;strokeWidth=4;" vertex="1" parent="1">
          <mxGeometry x="410" y="60" width="100" height="40" as="geometry" />
        </mxCell>
      </root>
    </mxGraphModel>
  </diagram>
</mxfile>
